<svg id="Layer_1" data-name="Layer 1" xmlns="http://www.w3.org/2000/svg" viewBox="0 0 123.69 47.1"><defs><style>.cls-1 { fill: #fff } @media screen and (min-width: 300px){ .cls-1{ fill: #197f21 } }</style></defs><title>logo</title><path class="cls-1" d="M116.16 41.84c.38-.15.35-.15 0-.15a.44.44 0 0 1-.4-.22.47.47 0 0 1 .44-.12h.45l.9.1-.72-.24c-.7-.2-.92-.5-.42-.5h.3a1.66 1.66 0 0 0 .6-.12 1 1 0 0 1 .4-.06.66.66 0 0 1 .2 0 .35.35 0 0 0 .15 0q.15 0 .15-.26c0-.26.15-.35.9-.35h.66c.6 0 .72 0 .54-.15s-.2-.6 0-.6a.26.26 0 0 1 .12 0h.08a.87.87 0 0 0 .5-.18 1 1 0 0 1 .48-.38.3.3 0 0 0 .12-.3.9.9 0 0 1 .78-.75.4.4 0 0 1 .15 0 1.35 1.35 0 0 0 .75-.57v.1c.3-.44.42-.6.3-.6a1 1 0 0 0-.24.07l-.9.2-.8.18h-.1a.6.6 0 0 1-.44-.2.38.38 0 0 0-.3-.16 1.57 1.57 0 0 0-.53.14 1.8 1.8 0 0 1-.68.15.8.8 0 0 1-.3-.07c-.33-.12-.3-.2.05-.2h.36a1.13 1.13 0 0 0 .73-.36.57.57 0 0 1 .4-.26.3.3 0 0 1 .2.1.57.57 0 0 0 .34.1c.26 0 .48-.1.38-.3a.8.8 0 0 1 .5-.47.76.76 0 0 0 .46-.3c-.08 0 0-.2.25-.4a1.45 1.45 0 0 0 .38-.82c0-.17 0-.26-.06-.26a.53.53 0 0 0-.15.2 1.55 1.55 0 0 1-1.26.57 2.2 2.2 0 0 1-.63-.08 1 1 0 0 1-.68-.45c0-.17.06-.24.18-.24a.5.5 0 0 1 .3.15.63.63 0 0 0 .38.1 1 1 0 0 0 .85-.28.4.4 0 0 0-.18-.26 1.32 1.32 0 0 1 .53-1.25 2.42 2.42 0 0 0 .26-.9l.15-.82-.77.75a5.54 5.54 0 0 1-1.46 1 2 2 0 0 1-.6.2c-.12 0-.15 0-.2-.2s0-.23.05-.23h.27a.26.26 0 0 0 .1-.5c-.1-.08-.1-.1 0-.1a1.55 1.55 0 0 1 .3 0 1.58 1.58 0 0 0 .3.05c.18 0 .22-.1.22-.3 0-.36.08-.5.27-.5a.87.87 0 0 1 .34.1 1.3 1.3 0 0 0 .3.12l-.12-.15c-.27-.3-.3-.53-.12-.53h.15a.4.4 0 0 0 .15 0 .12.12 0 0 0 .13-.12.12.12 0 0 1 .12-.12h.18a.57.57 0 0 0 .42-.3.47.47 0 0 0 0-.72 1.18 1.18 0 0 1 0-1.5.42.42 0 0 0 .18-.4.15.15 0 0 0-.14-.08 4.45 4.45 0 0 0-1.92 1.4 3 3 0 0 1-1.2.94q-.18 0-.18-.3c0-.14 0-.2.1-.2a.12.12 0 0 1 .07 0h.03a.24.24 0 0 0 .18-.2.3.3 0 0 0 0-.23.5.5 0 0 0-.1-.12.27.27 0 0 0-.05-.06.4.4 0 0 1-.27-.3.15.15 0 0 1 .15-.13l.1.33h.12c.38 0 1-.54.72-.72s-.24-.38-.1-.38a.6.6 0 0 1 .3.1 1 1 0 0 0 .3.1c.07 0 0-.05 0-.17a.3.3 0 0 1 .12-.38c.14-.06.1-.1-.06-.1a.3.3 0 0 1-.3-.3.2.2 0 0 1 .15-.24h.14a.3.3 0 0 0 .25-.2c.12-.3.08-.45-.12-.45a1.2 1.2 0 0 0-.65.3 2.9 2.9 0 0 1-.75.45 2.65 2.65 0 0 0-.6.33 2.92 2.92 0 0 1-1.17.5c-.08 0-.12 0-.08-.1s0-.2-.24-.2-.3 0 .08-.3a1.06 1.06 0 0 0 .42-.56.62.62 0 0 1 .5-.3.45.45 0 0 0 .54-.3.48.48 0 0 1 .45-.35c.23 0 .38-.17.3-.24s0-.15.1-.15a.1.1 0 0 0 .12-.18c-.06-.12 0-.2.06-.2.33 0 .48-.8.2-.95s-.14-.18.16-.18a.4.4 0 0 0 .42-.18.2.2 0 0 0-.26-.2 1.2 1.2 0 0 0-.78.4 16 16 0 0 1-3.16 1.67.53.53 0 0 1-.2-.25c-.06-.2.1-.4.45-.6a1.18 1.18 0 0 0 .65-.75.52.52 0 0 1 .5-.45c.23 0 .35-.08.3-.18a.54.54 0 0 1 .42-.75c.26 0 .26-.06-.08-.3s-.3-.22-.22-.22h.33a.7.7 0 0 0 .5-.4.62.62 0 0 0 .16-.54 3.78 3.78 0 0 0-1.2.75 5.64 5.64 0 0 1-2.57.9c-.18 0-.26 0-.18-.14s-.08-.23-.23-.3-.2-.18-.15-.26a.38.38 0 0 0-.1-.38c-.15-.18-.13-.24.1-.24a.93.93 0 0 0 .57-.24c.3-.24 0-.6-.56-.75-.3-.1-.24-.12.1-.12h.22a1.56 1.56 0 0 0 .35 0 4.63 4.63 0 0 1 .56-.1 2.25 2.25 0 0 0 1.27-.37s0-.07-.24-.07a3.67 3.67 0 0 0-.53 0 4.75 4.75 0 0 1-.54 0c-.23 0-.35 0-.35-.1a.24.24 0 0 1 .27-.22c.36 0 .75-.5.5-.64s-.1-.2.1-.4a.54.54 0 0 0 .2-.53.35.35 0 0 1 .22-.4c.26-.1.28-.17 0-.3s-.24-.14.05-.14.3-.1.1-.4a.6.6 0 0 0-.4-.35.4.4 0 0 0-.27.36.52.52 0 0 1-.38.4 1.27 1.27 0 0 0-.72.45 1.34 1.34 0 0 1-.45.3c0-.06 0-.06-.15-.06a1 1 0 0 0-.3.07 1.3 1.3 0 0 1-.45.1 1.16 1.16 0 0 1-.5-.13c-.6-.27-.65-.53 0-.53a1 1 0 0 0 .75-.4 1.13 1.13 0 0 1 .35-.33 1.12 1.12 0 0 0 .36-.15c.34-.18.34-.23 0-.23s-.37-.8.08-1.33c.2-.23.26-.38.15-.38s-.14-.16-.06-.36a.28.28 0 0 0 .06-.23.86.86 0 0 0-.3.2l-.75.65a4.2 4.2 0 0 1-2 1.36.3.3 0 0 1-.18 0c-.1-.1-.1-.15 0-.15h.15a.56.56 0 0 0 .2 0 .1.1 0 0 0 .1-.1.52.52 0 0 1 .37-.27.48.48 0 0 0 .38-.45.85.85 0 0 1 .86-.65h.15s0-.06-.05-.18-.12-.32.24-.65a.75.75 0 0 0 .34-.63.12.12 0 0 1 .12-.2c.18 0 .18-.07 0-.22a.2.2 0 0 0-.15-.06 1.3 1.3 0 0 0-.67.42 4.56 4.56 0 0 1-2.26 1.05.3.3 0 0 1-.23-.05 1.9 1.9 0 0 1 1.05-1.14 3.15 3.15 0 0 0 1.04-1.13c.08-.14.1-.18 0-.18a2 2 0 0 0-.54.2 6.5 6.5 0 0 1-1.48.48 4.3 4.3 0 0 1-.53.06c-.22 0-.22-.1-.16-.33a.4.4 0 0 1 .15-.3.2.2 0 0 1 .14.1 1 1 0 0 0 .65.2c.35 0 .38-.08.3-.65s0-.63.4-.63 1-.44.6-.63c-.17-.16-.15-.16.06-.16s.2 0 .15-.1h-.05a1.73 1.73 0 0 0-.6.2 2.86 2.86 0 0 1-.7.3c-.26 0 0-.67.27-.67a.2.2 0 0 0 .24-.23.35.35 0 0 1 .47-.24.54.54 0 0 0 .38-.5c0-.17 0-.24-.07-.24a1.57 1.57 0 0 0-.5.36 2.36 2.36 0 0 1-.82.48 2.62 2.62 0 0 0-.77.3 1.42 1.42 0 0 1-.57.18c-.15 0-.15-.14.15-.36a1.23 1.23 0 0 0 .4-.68 1.3 1.3 0 0 1 .45-1 .34.34 0 0 0 .2-.26.86.86 0 0 1 .52-.45c.23-.06.33-.18.27-.33a.2.2 0 0 0-.15-.1.53.53 0 0 0-.3.14 7.53 7.53 0 0 1-1.12.7 3.68 3.68 0 0 1-.7.3c-.08 0-.08-.1-.08-.3a.32.32 0 0 1 .2-.4c.13 0 .16-.14.13-.3s0-.2 0-.2h.06a1.25 1.25 0 0 0 .82-.9.08.08 0 0 0-.06 0 1 1 0 0 0-.5.23 1.57 1.57 0 0 1-.7.4.26.26 0 0 0-.2.28c0 .18-.06.27-.15.27a.6.6 0 0 1-.37-.2.3.3 0 0 0-.15-.13c-.06 0-.06.05-.06.17a.54.54 0 0 0 .4.45c.2.08.3.2.23.3a.2.2 0 0 1-.15.1h-.08a.34.34 0 0 0-.24.26.45.45 0 0 1-.42.47h-.08c-.42 0-.4.7.06 1.2.23.24.3.33.23.33h-.15a.45.45 0 0 0-.15-.06.15.15 0 0 0-.12.18c0 .17-.15.26-.45.26h-.1c-.3 0-.5-.12-.46-.24a.55.55 0 0 0-.3-.42.72.72 0 0 0-.26-.12.8.8 0 0 0 .12.5 1.8 1.8 0 0 0 .45.8.33.33 0 0 1 .12.4c-.06.15.15.32.45.45a1.43 1.43 0 0 1 .57.36 1.05 1.05 0 0 0 .3.44c.2.2.22.26 0 .26h-.34a1 1 0 0 1-.6-.15 1.75 1.75 0 0 0-.68-.5 2.37 2.37 0 0 0-.6-.27c-.06 0 0 .1 0 .24a.45.45 0 0 0 .36.33.4.4 0 0 1 .27.42c0 .18 0 .3.16.3h.2c.1 0 0 .1-.1.4a.83.83 0 0 0-.15.64c0 .1-.13.12-.38.12h-.18a.68.68 0 0 1-.57-.15.48.48 0 0 0-.3-.3.63.63 0 0 0-.24-.1c-.06 0-.06.08 0 .32a.9.9 0 0 1-.9 1c-.68.1-.6.2.08.2h.6a2.44 2.44 0 0 1 .82.1.1.1 0 0 0 .1 0 .54.54 0 0 0 .3-.13.48.48 0 0 1 .16-.1v.14c-.1.27-.44.45-2.14 1.12-.23.08-.38.26-.3.38a.2.2 0 0 0 .15.1.42.42 0 0 0 .23-.12.42.42 0 0 1 .2-.12c.06 0 .06 0 .06.1s.07.1.2.1a1.23 1.23 0 0 0 .34-.07.58.58 0 0 0 .45-.3c0-.22.17-.3.4-.3a1 1 0 0 1 .66.25c.1.2.1.35 0 .35-.35 0-.2.33.2.42a.5.5 0 0 1 .36.6v.2l-.75-.12a3.92 3.92 0 0 0-1.66-.45c-.23 0-.38 0-.38.15v.45a.17.17 0 0 0 .08.18.1.1 0 0 1 .08 0 .93.93 0 0 1 .42.18 1.63 1.63 0 0 0 .75.27c.18 0 .33.06.33.18s.12.15.27.15h.24a.8.8 0 0 1 .38.08h.08a.06.06 0 0 0 .06 0 .82.82 0 0 0 0 .15c0 .1 0 .15-.06.15l-.15-.06a.26.26 0 0 0-.1 0 .15.15 0 0 0-.16.15c0 .1-.1.15-.3.15h-.3A7.3 7.3 0 0 1 107 18c-.1 0-.1-.1 0-.2a.62.62 0 0 0-.5-.4 8 8 0 0 1-1.47-1 3.5 3.5 0 0 0-.6-.5v.07a.53.53 0 0 1 .15.53.1.1 0 0 0 .1.18c.15 0 .18.18.1.48s0 .45.15.45a1.2 1.2 0 0 0 .53-.17.68.68 0 0 1 .24-.1c.06 0 0 .07 0 .2a.6.6 0 0 0 .08.52c.2.27 0 .45-.4.45a1.8 1.8 0 0 1-.46-.08h-.26c-.18 0-.2.1-.15.4a.37.37 0 0 0 .3.38h.1a.77.77 0 0 1 .45.56.65.65 0 0 0 .26.45 1 1 0 0 0 .4-.23 1.55 1.55 0 0 1 .3-.24.55.55 0 0 1-.13.3.68.68 0 0 0-.18.57.92.92 0 0 0 .2-.24.62.62 0 0 1 .24-.24v.23a.32.32 0 0 0 .2.33c.1 0 .16.1.1.2a.3.3 0 0 1-.26.13.4.4 0 0 1-.15 0h-.12a1.13 1.13 0 0 0-.56.2.78.78 0 0 1-.42.2 1.34 1.34 0 0 1-.6-.3 1.55 1.55 0 0 0-.72-.28h-.08a.24.24 0 0 0-.17.3.3.3 0 0 0 .3.14c.15 0 .23.1.15.2s0 .13 0 .13a.75.75 0 0 0 .23 0 .7.7 0 0 1 .2 0 .15.15 0 0 1 .2.1.3.3 0 0 1-.22.26c-.13 0-.08.2.13.38s.3.36.1.6-.18.3 0 .3a.78.78 0 0 0 .5-.23.3.3 0 0 1 .15-.1c.1 0 .06.2-.12.48a.24.24 0 0 1-.2.15 2.67 2.67 0 0 1-.9-.45 2.73 2.73 0 0 0-1-.42.1.1 0 0 0-.12 0 .87.87 0 0 0 .45 1.1c.28 0 .28 0 0 .2s-.25.2 0 .22h.23L104 24c.08 0 .06.1 0 .2a.6.6 0 0 1-.6.2h-.24a2.2 2.2 0 0 0-1.1.25 1 1 0 0 1-.46.2.12.12 0 0 1-.1 0 .08.08 0 0 0-.05 0 .17.17 0 0 0-.1.2.45.45 0 0 0 .24.4c.1.05.08.1-.2.1a.36.36 0 0 0-.4.3.2.2 0 0 0 .23.24h.27l.3-.07q.1 0 0 0c-.15.1-.06.27.35.7s.75 1.04.45 1.04a6.8 6.8 0 0 1-.9-.57 2.83 2.83 0 0 0-1.1-.57.1.1 0 0 0-.1.12 1 1 0 0 0 .34.4c.15.12.2.2.18.2H101a.3.3 0 0 0-.15.3v.25a.3.3 0 0 0 .15-.1.4.4 0 0 1 .26-.12c.18 0 .2.18 0 .4s-.14.23.1.23a.25.25 0 0 1 .3.2.26.26 0 0 0 .26.2.25.25 0 0 1 .3.2.24.24 0 0 1-.27.15.45.45 0 0 0-.4.3.55.55 0 0 1-.52.27.48.48 0 0 1-.42-.18.33.33 0 0 0-.22-.18c-.1 0-.17.2-.1.48s.14.42.3.42h.26a.33.33 0 0 1 .33.3.88.88 0 0 0 .6.75.3.3 0 0 0 .23-.2.38.38 0 0 1 .15-.12v.23s-.1.3 0 .3h.27a1 1 0 0 1 .6.37 1.63 1.63 0 0 0 .87.45.35.35 0 0 1 .38.18 1.6 1.6 0 0 1-1.32.4 1.37 1.37 0 0 1-.65-.1.48.48 0 0 0-.25-.16l-.4-.15a5.36 5.36 0 0 0-1.37-.28h-.15a2.07 2.07 0 0 0 .53.56l.52.32-.56.12-.54.15.6.24c.6.27.6.64 0 .64a.33.33 0 0 0-.38.2.18.18 0 0 0 .2.15 1.3 1.3 0 0 0 .58-.22.75.75 0 0 1 .35-.1.3.3 0 0 1 .2.07c.12.15 0 .24-.5.3-.77.15-.92.36-.62.9a1.17 1.17 0 0 1 .22.6s0 .1.15.1H101.2c.12 0 .2 0 .2.08a.15.15 0 0 0 .16.12h.13a.15.15 0 0 1 .1.2.18.18 0 0 0 .15.2c.32 0 .2.32-.2.55a.86.86 0 0 1-.42.1 2.12 2.12 0 0 1-1.46-.8 1.2 1.2 0 0 0-.68-.44c-.2 0-.27.23-.16.6a1.63 1.63 0 0 0 .4.83c.28.2.25.26-.1.5s-.4.35.6.38a.75.75 0 0 1 .62.45.74.74 0 0 0 .45.4.33.33 0 0 1 .28.22.2.2 0 0 0 .23.12h.16c.3-.08.3-.2.15-.38s-.13-.24.07-.24h.13c.3 0 .35.1.15.57s-.2.5-.48.5H101.02a.5.5 0 0 0-.36.1 1.5 1.5 0 0 0 1.13.34.56.56 0 0 0 .26 0 .15.15 0 0 1 .08 0 .18.18 0 0 1 .15.15.15.15 0 0 0 .14.15.78.78 0 0 0 .33-.15 1.26 1.26 0 0 1 .6-.1 1.28 1.28 0 0 1 .33 0 7 7 0 0 0 1.4.14c1 0 1.05.23.15.4a1.75 1.75 0 0 0-.75.4.87.87 0 0 1-.57.27.3.3 0 0 0-.35.18c0 .12.1.16.26.16L104 42h.23c.15 0 .24 0 .24.1a.15.15 0 0 0 .18.1.37.37 0 0 0 .18-.38v-.4l.3.45a.7.7 0 0 0 .5.33h.06a.36.36 0 0 1 .14 0c.2 0 .15.23-.1.38-.1.06-.1.06 0 .06H106.16c.15 0 .17.08.12.23s0 .18 0 .18a.27.27 0 0 0 .14-.08 1 1 0 0 1 .45-.15.2.2 0 0 1 .18.23.23.23 0 0 0 .23.22.48.48 0 0 0 .43-.36.5.5 0 0 1 .57-.3h.24c.26 0 .4 0 .4-.08a.67.67 0 0 1 .55-.12 3.5 3.5 0 0 0 .9-.12.72.72 0 0 1 .2 0c.18 0 .23.24.33 1.14a18.74 18.74 0 0 1 0 2.53l-.12 1.25h.76c.68 0 .7 0 .6-.5a27.6 27.6 0 0 1-.48-3.92c0-.54 0-.75.38-.75a3.9 3.9 0 0 1 .75.15q.27 0 .3-.45c0-.35.12-.5.2-.5a.84.84 0 0 1 .37.53 1.1 1.1 0 0 0 .38.53 1.26 1.26 0 0 1 .4.1.63.63 0 0 0 .28 0 .83.83 0 0 0 .4-.1c.3-.16.27-.2-.26-.3s-.87-.46-.42-.46a.12.12 0 0 0 .08-.2c-.1-.12-.1-.18 0-.18a1.43 1.43 0 0 1 .66.45 1 1 0 0 0 .62.36.6.6 0 0 0 .34-.12zm5.33-12.63a1.05 1.05 0 0 0 .44-.3.1.1 0 0 1 .12 0 .9.9 0 0 1 .6.7.76.76 0 0 1-.65.17h-.1c-.76-.05-1-.33-.4-.56zm-1.7 5.58a8.68 8.68 0 0 1 1.05-.1c.23 0 .3 0 .2.14a1.93 1.93 0 0 1-1.05.3c-.18 0-.33 0-.33-.12a.24.24 0 0 1 .13-.22zm-1.37 1.73a.3.3 0 0 1 .2.2c.1.08 0 .17-.07.17a.2.2 0 0 1-.2-.2c-.02-.1.03-.16.07-.16zm-12.27-17.36h-.2c-.22 0-.2-.15 0-.45a.3.3 0 0 1 .26-.16.3.3 0 0 1 .3.3.52.52 0 0 1-.36.3zm-1.28 4.8c.36 0 .38.06.15.2a.9.9 0 0 1-.42.16.15.15 0 0 1-.1-.15.36.36 0 0 1 .38-.2zm-1.32 7.68a.2.2 0 0 1-.2-.18q0-.18.08-.18a.3.3 0 0 1 .2.2c.07.07.02.16-.08.16zm.33-1.13a.7.7 0 0 1-.4.14 3.48 3.48 0 0 1-1.04-.3c-1-.4-1.16-.56-.56-.7h.24a1.28 1.28 0 0 1 .7.22 1.28 1.28 0 0 0 .62.18h.27a.27.27 0 0 1 .16.45zm-.78 6.5c0 .06 0 .06-.15.06a.65.65 0 0 1-.45-.15c0-.05 0-.1.1-.1h.16a.67.67 0 0 1 .36.15zm1.5.92a9 9 0 0 1-1.43-.1.45.45 0 0 0 .32-.26h.26a2.13 2.13 0 0 1 1.05.23.88.88 0 0 0 .2.14 2.28 2.28 0 0 1-.42-.03zm1.25-11.53c-.32 0-.32 0-.1.2.2.08.18.14 0 .14a9.83 9.83 0 0 1-1.54-.26c-1.66-.36-2.6-1.6-1.2-1.63h.1a.27.27 0 0 1 .2.33q0 .27.27.27h.2a.3.3 0 0 1 .33.15.1.1 0 0 0 .1.1h.07a.2.2 0 0 1 .1 0 .2.2 0 0 1 .2.1.24.24 0 0 0 .22.1.93.93 0 0 0 .68-.36.2.2 0 0 1 .12-.1v.14a.45.45 0 0 1-.3.35.23.23 0 0 0-.15.3.15.15 0 0 0 .15.08.3.3 0 0 0 .2-.07.38.38 0 0 1 .26-.1.45.45 0 0 1 .24.07c.16.15.17.18-.14.18zM107 19a.24.24 0 0 1 .23.18.18.18 0 0 1-.2.2c-.17 0-.3-.05-.26-.14A.3.3 0 0 1 107 19zm-.33 2.24a.3.3 0 0 1 .2-.1.35.35 0 0 1 .3.5.45.45 0 0 1-.3.22.36.36 0 0 1-.18-.6zm1.05 20.48a5.22 5.22 0 0 1-.66 0 4.27 4.27 0 0 1-.72 0 .57.57 0 0 0 .15-.15.8.8 0 0 0 .47.12 2.14 2.14 0 0 0 .75-.16.6.6 0 0 0 .02.2zm-.2-3.54c-.15 0-.2-.1-.15-.2a.36.36 0 0 1 .27-.18h.07a.15.15 0 0 1 .12.18.28.28 0 0 1-.27.22zm.53-16.7a.2.2 0 0 1-.2-.18c0-.12 0-.18.07-.18a.3.3 0 0 1 .18.18.1.1 0 0 1 0 .18zm1.6-8.84h.3c.22 0 .3.06.3.15 0 .14 0 .22-.14.22a3 3 0 0 1-.6-.15c-.42-.12-.42-.12.2-.2zm.88 25a.4.4 0 0 1-.27.2c-.27 0-.2-.12.1-.27h.13c.1-.05.12 0 .06.06zm1.9-21.85a.24.24 0 0 1-.2-.1c-.08-.1 0-.2.17-.2a.36.36 0 0 1 .3.08.24.24 0 0 1-.24.2zm2.57 1.83a2.32 2.32 0 0 1-.9.3c-.2 0-.2-.06.1-.12s.4-.14.34-.23.15-.2.45-.24h.4c.23-.05.1.06-.4.3zm.5 2.37a.2.2 0 0 1 .2.2c0 .1 0 .15-.08.15a.3.3 0 0 1-.2-.15c-.06-.1-.03-.2.1-.2z"/><path class="cls-1" d="M109 6.08c0 .06.08.1.23.1a1.12 1.12 0 0 0 .26 0 .52.52 0 0 0 .44-.3.12.12 0 0 0-.15-.07h-.16a2 2 0 0 1-.48.16.15.15 0 0 0-.16.12zM106.12 11.16c-.18 0-.17.15.08.57a.42.42 0 0 0 .3.3.1.1 0 0 0 .08 0 .85.85 0 0 0-.46-.87zM111.76 4.2a3.1 3.1 0 0 0-.68-.08h-.27c-.35 0-.3.06-.05.24.2.15.3.2.24.2l-.27-.07a1 1 0 0 0-.24-.07c-.07 0 0 .08.1.26a2.33 2.33 0 0 0 .3.3 4.55 4.55 0 0 0 .86-.8zM111.45 3.82c.4 0 .4 0 .1-.1-.5-.14-.7-.44-.46-.74s.14-.24 0-.24a.2.2 0 0 0-.24.18.12.12 0 0 1-.15.08h-.14a.57.57 0 0 0-.18-.06c-.1 0 0 .12.2.45a1 1 0 0 0 .8.47zM103.2 42a.45.45 0 0 0-.18 0 .27.27 0 0 0-.18.06c-.06.06.06.1.24.1.22-.03.27-.1.12-.16zM110.86.1a.66.66 0 0 0-.08.54.36.36 0 0 0 .18.24.67.67 0 0 0 .04-.53.37.37 0 0 0 0-.35.18.18 0 0 0-.14.1zM111 2.3a.12.12 0 0 0 .08 0c.24-.15 0-.66-.3-.66-.35 0-.35.2 0 .5a.4.4 0 0 0 .22.15z"/><g><path class="cls-1" d="M3 39.73H100.65a1.54 1.54 0 0 1-.4-.45.3.3 0 0 0-.26-.15c-.8 0-1.14-.06-1.3-.45a.63.63 0 0 1 .42-.7 2.44 2.44 0 0 1-.5-.98 1.26 1.26 0 0 1 .15-1 .6.6 0 0 1 .48-.23 1.5 1.5 0 0 1 1 .6 1.64 1.64 0 0 0 1.13.63h.12a.63.63 0 0 1-.08-.15.6.6 0 0 1-.3-.2 1.1 1.1 0 0 1-.26 0 .6.6 0 0 1-.5-.2.5.5 0 0 1-.1-.4 1.15 1.15 0 0 0-.13-.3 1.2 1.2 0 0 1-.12-1 .6.6 0 0 1 .2-.94l-.3-.1a.45.45 0 0 1 .05-.87l.23-.06a1 1 0 0 1-.53-.75.5.5 0 0 1 .6-.5 5.78 5.78 0 0 1 1.5.3 1.36 1.36 0 0 0 .34.1.93.93 0 0 1 .44.27 1.2 1.2 0 0 0 .33 0 2.2 2.2 0 0 1-.3-.27.83.83 0 0 0-.27-.2.84.84 0 0 1-.3.07.5.5 0 0 1-.48-.33 1.45 1.45 0 0 1-.86-1h-.15a.76.76 0 0 1-.74-.8 1.33 1.33 0 0 1 0-.3h-2.34v-6l5.72-14.45h-5.42L95 18.42l-2.76-9.34h-5.5l5.68 14.45v6h-5.1v-2.6h-6V9.1H76.2v20.4h-3.93l-5-10.1L73 9.1h-5.65l-4.64 9.4h-.1V9.1h-5.1V29.5h-3.63v-2.4H47.5V22.2H53V18h-5.5v-4.4h6V9.1H42.6v20.4H39v-2.4h-6.4V22.2h5.54V18H32.6v-4.4h6V9.1H27.76v20.4H21l3.84-20.42h-4.92l-2.3 15.75h-.08L15 9.1h-4.9L7.6 24.82h-.15L5.2 9.08H0L3.82 29.5H3v10.23zm85.6-8.55h2.94a4.72 4.72 0 0 1 1 .1 2.6 2.6 0 0 1 .9.4 2 2 0 0 1 .63.7 2.62 2.62 0 0 1 0 2.18 2.06 2.06 0 0 1-.63.75 2.6 2.6 0 0 1-.9.4 4.3 4.3 0 0 1-1 .12h-.7V38h-2.3v-6.82zm-6.25 0h2.32V36h2.26v2H82.3v-6.82zm-8.52 0h2.3v3.88a1.14 1.14 0 0 0 .23.78 1 1 0 0 0 1.34 0 1.14 1.14 0 0 0 .23-.75v-3.92h2.26v4.14a3.06 3.06 0 0 1-.22 1.14 2.5 2.5 0 0 1-.6.9 2.86 2.86 0 0 1-1 .6 4.07 4.07 0 0 1-1.4.2 4 4 0 0 1-1.43-.16 2.78 2.78 0 0 1-1-.6 2.4 2.4 0 0 1-.57-.9 3.25 3.25 0 0 1-.2-1.14v-4.18zm-4.52 0a4.72 4.72 0 0 1 1 .1 2.6 2.6 0 0 1 .9.4 2 2 0 0 1 .64.7 2.62 2.62 0 0 1 0 2.18 2.06 2.06 0 0 1-.63.75 2.6 2.6 0 0 1-.9.4 4.3 4.3 0 0 1-1 .12h-.72V38h-2.3v-6.82h3zm-6.68-10h.1l3.82 8.33h-3.97v-8.36zm-8.88 14.25a1.88 1.88 0 0 1 .26-.53 2.1 2.1 0 0 1 .4-.4 2.56 2.56 0 0 1 .54-.3 2.26 2.26 0 0 1-.48-.6 1.63 1.63 0 0 1-.18-.8 1.5 1.5 0 0 1 .25-.8 1.8 1.8 0 0 1 .57-.56 2.6 2.6 0 0 1 .8-.3 3.9 3.9 0 0 1 .86-.14 3.58 3.58 0 0 1 .84.1 2.4 2.4 0 0 1 .75.3 1.78 1.78 0 0 1 .54.6 1.63 1.63 0 0 1 .22.85 1.5 1.5 0 0 1-.1.57 1.66 1.66 0 0 1-.3.48 2.47 2.47 0 0 1-.42.38 4.67 4.67 0 0 1-.5.3l.45.42.54-.75h2.4l-1.66 2L61.4 38h-2.7l-.5-.5a2.53 2.53 0 0 1-.77.45 3.27 3.27 0 0 1-1.14.18 4.15 4.15 0 0 1-1-.12 2.7 2.7 0 0 1-.87-.35 2 2 0 0 1-.6-.65 1.87 1.87 0 0 1-.26-1 1.73 1.73 0 0 1 .17-.57zm-11.1-4.25h3a5 5 0 0 1 1 .1 2.5 2.5 0 0 1 .9.34 2 2 0 0 1 .6.7 2.17 2.17 0 0 1 .26 1.04 1.93 1.93 0 0 1-1.2 1.84l1.72 2.8h-2.65L45 35.56h-.1V38h-2.26v-6.82zm-6.75 0h4.66v1.93H38.1v.6h2.37v1.77H38.1v.63h2.7V38h-4.9v-6.82zm-7.66 0H31a6.7 6.7 0 0 1 .9.06 2.9 2.9 0 0 1 .84.26 1.7 1.7 0 0 1 .65.54 1.6 1.6 0 0 1 .25.95 1.45 1.45 0 0 1-.27.9 1.63 1.63 0 0 1-.72.52 1.84 1.84 0 0 1 .45.2 1.7 1.7 0 0 1 .43.3A1.4 1.4 0 0 1 34 36a1.8 1.8 0 0 1-.26.95 1.84 1.84 0 0 1-.6.6 2.56 2.56 0 0 1-.86.35 4.7 4.7 0 0 1-1 .1h-3.03v-6.83zm-10.66 0h3l1.2 3.67h.06l1.08-3.67H26V38h-2.23l.08-3.84L22.52 38h-1.6l-1.26-3.85.06 3.85H17.6v-6.8zm-2.23 0V38H13v-6.82h2.33zm-3-14.68h.08l2.37 12.95H10zM5.72 31.17h5.65v2H9.7V38H7.4v-4.88H5.72v-2z"/><path class="cls-1" d="M31.4 33.7a.4.4 0 0 0 .16-.34.3.3 0 0 0-.15-.3.86.86 0 0 0-.4-.06h-.6v.83h.6a.66.66 0 0 0 .4-.12zM91.83 33.94a.45.45 0 0 0 .17-.42.53.53 0 0 0 0-.28.42.42 0 0 0-.15-.18.72.72 0 0 0-.25-.06h-.73v1.08h.48a.9.9 0 0 0 .48-.14zM69.56 34a.45.45 0 0 0 .2-.45.53.53 0 0 0 0-.26.42.42 0 0 0-.14-.2.72.72 0 0 0-.28-.1h-.74v1.1h.48a.9.9 0 0 0 .48-.1zM45.6 34.06a.78.78 0 0 0 .25-.06.6.6 0 0 0 .15-.2.48.48 0 0 0 .1-.3.54.54 0 0 0-.1-.3.45.45 0 0 0-.12-.2.68.68 0 0 0-.2 0h-.8v1.08h.44zM31.7 35.76a.33.33 0 0 0-.07-.23.54.54 0 0 0-.18-.15.78.78 0 0 0-.23-.06h-.82v.9h.7a.75.75 0 0 0 .46-.12.4.4 0 0 0 .15-.34zM56 36.32a.63.63 0 0 0 .23.1h.23a1 1 0 0 0 .33-.05.57.57 0 0 0 .2-.13l-.84-.86a.68.68 0 0 0-.26.2.5.5 0 0 0-.15.36.45.45 0 0 0 .08.24.53.53 0 0 0 .17.14zM56.72 33.5a1 1 0 0 0 .36-.24.5.5 0 0 0 0-.66.4.4 0 0 0-.33-.12.4.4 0 0 0-.3.15.45.45 0 0 0-.12.3.54.54 0 0 0 .1.3 1.13 1.13 0 0 0 .3.26z"/></g></svg>