<svg id="Layer_1" data-name="Layer 1" xmlns="http://www.w3.org/2000/svg" viewBox="0 0 183.69 127.18" width="183.69" height="127.18"><defs><style>.cls-1 { fill: #23852b; } .cls-2 { fill: #fff; } @media screen and (min-width: 300px){ #logo .cls-2{ fill: #197f21; } }</style></defs><title>sprite</title><path class="cls-1" d="M60 70.1h-.08a.4.4 0 0 0-.4-.25 1 1 0 0 0-.27.07l-.75.18h-.26l.06-.08a.54.54 0 0 0 .06-.26l.2-.13a.77.77 0 0 0 .6-.6.2.2 0 0 0 .06-.03 1.6 1.6 0 0 0 .44-.95 2 2 0 0 0 0-.24.42.42 0 0 0-.43-.4.56.56 0 0 0-.45.34l-.06.05v-.04a.66.66 0 0 0-.2-.43 1.46 1.46 0 0 1 .27-.53 1.35 1.35 0 0 0 .43-1.08l.1-.7a.4.4 0 0 0-.1-.3l.06-.07a.77.77 0 0 0-.1-1.1.72.72 0 0 1-.13-.5.4.4 0 0 1 .08-.25.66.66 0 0 0 .2-.8.5.5 0 0 0-.44-.26 1.86 1.86 0 0 0-1 .53.54.54 0 0 0 0-.33.43.43 0 0 0 .1-.63.88.88 0 0 0 .18-1 .5.5 0 0 0-.44-.2 1.35 1.35 0 0 0-.77.32 3.1 3.1 0 0 1-.5.37 2.27 2.27 0 0 0-.64.33 2.56 2.56 0 0 1-.4.22 1 1 0 0 0 .14-.3h.13a.75.75 0 0 0 .77-.55h.06a.68.68 0 0 0 .47-.38.48.48 0 0 0 0-.1.47.47 0 0 0 .13-.12.5.5 0 0 0 .05-.22.87.87 0 0 0 .3-.46 1.2 1.2 0 0 0 0-.45.52.52 0 0 0 .4-.5.56.56 0 0 0-.58-.55 1.4 1.4 0 0 0-1 .46 13.64 13.64 0 0 1-1.52.92 1.2 1.2 0 0 0 .26-.47.2.2 0 0 1 0-.1.64.64 0 0 0 .58-.3.47.47 0 0 0 0-.43.18.18 0 0 1 .05-.08.5.5 0 0 0 .5-.3.4.4 0 0 0 0-.33 1.18 1.18 0 0 0 .3-.4.73.73 0 0 0 .07-.9.38.38 0 0 0-.3-.14 3.4 3.4 0 0 0-1.34.8 4.77 4.77 0 0 1-1.7.62.68.68 0 0 0-.2-.3.67.67 0 0 0 0-.12 1.05 1.05 0 0 0 .36-.22.67.67 0 0 0 .2-.63v-.08a.6.6 0 0 0 .2 0 2.08 2.08 0 0 0 1.24-.46.4.4 0 0 0 .1-.45.55.55 0 0 0-.57-.28h-.13v-.1a.6.6 0 0 0 0-.4.9.9 0 0 0 .23-.67.5.5 0 0 0 .37-.42.45.45 0 0 0 0-.1l.05-.1a.73.73 0 0 0-.13-.68.9.9 0 0 0-.68-.5.65.65 0 0 0-.6.62.16.16 0 0 1 0 .05 1.63 1.63 0 0 0-.83.53l-.08.07h-.13a1.08 1.08 0 0 0-.4.07 1.2 1.2 0 0 0 .22-.23l.1-.13a1.38 1.38 0 0 0 .4-.16.56.56 0 0 0 .4-.62.43.43 0 0 0-.4-.32 1 1 0 0 1 .26-.53.75.75 0 0 0 .18-.7v-.1a.5.5 0 0 0 0-.46.4.4 0 0 0-.36-.22h-.12a.84.84 0 0 0 .1-.26.42.42 0 0 0 .17-.2.5.5 0 0 0-.15-.6.56.56 0 0 0-.4-.15 1.5 1.5 0 0 0-.83.48 3.73 3.73 0 0 1-1 .66.72.72 0 0 1 .13-.13A2.74 2.74 0 0 0 52 48a.46.46 0 0 0 .08-.53.4.4 0 0 0-.4-.22 1.6 1.6 0 0 0-.64.22l-.2.1a.52.52 0 0 0 0-.2v-.08a1 1 0 0 0 1-.63.6.6 0 0 0 0-.26.44.44 0 0 0 .05-.1.43.43 0 0 0-.1-.47.45.45 0 0 0-.34-.13.87.87 0 0 0 .3-.7c0-.53-.27-.62-.44-.62a1.28 1.28 0 0 0-.68.4 2.37 2.37 0 0 1-.52.36 1.18 1.18 0 0 0-.26.05v-.12a1.93 1.93 0 0 1 .14-.5.68.68 0 0 0 .52-.5.4.4 0 0 1 .18-.08.7.7 0 0 0 .5-.4.54.54 0 0 0 0-.47.54.54 0 0 0-.46-.26.77.77 0 0 0-.5.22 2.93 2.93 0 0 1-.34.23 2.1 2.1 0 0 0 .28-.32.7.7 0 0 0 .15-.62v-.16a.44.44 0 0 0-.5-.22h-.17a.36.36 0 0 0 0-.1.55.55 0 0 0-.46-.58l-.2-.1a.56.56 0 0 0 .1-.56.45.45 0 0 0-.07-.13.64.64 0 0 0 .1-.53.88.88 0 0 0-.4-.53.42.42 0 0 0 .17-.1 1 1 0 0 0 .15-.7c0-.2 0-.7-.45-.7a.5.5 0 0 0-.4.28 1 1 0 0 0-.1.82 1 1 0 0 0 .2.33.54.54 0 0 0-.44.32.78.78 0 0 0 .26.8.4.4 0 0 0-.4.2.75.75 0 0 0 .27.8l.07.13a.4.4 0 0 0-.17.2.43.43 0 0 0 0 .17v.05a.58.58 0 0 0 .13.57.43.43 0 0 0-.32.4h-.1a.82.82 0 0 0-.25 0l-.28.07a.52.52 0 0 0-.52.54.5.5 0 0 0 .58.47h.26a.65.65 0 0 0-.27.27 1.26 1.26 0 0 0 .17 1.1.53.53 0 0 0-.1.17h-.14a1 1 0 0 0-.4-.5.77.77 0 0 0-.42-.16.4.4 0 0 0-.35.17.88.88 0 0 0 .05.8 2.17 2.17 0 0 0 .5.82.5.5 0 0 0 0 .26v.08a1 1 0 0 0-.45.02.42.42 0 0 0-.35.17.6.6 0 0 0 0 .52.78.78 0 0 0 .52.57.67.67 0 0 0 .22.52 1.74 1.74 0 0 0-.1.32h-.08L46 49.2a1.08 1.08 0 0 0-.35-.33.82.82 0 0 0-.4-.16 1 1 0 0 0 0-.12 1.1 1.1 0 0 0-.76-.8.47.47 0 0 0-.44.23.9.9 0 0 0 .13.87.76.76 0 0 0 .6.46v.13a.27.27 0 0 1 0 .2.64.64 0 0 1-.4.22c-.27 0-.76.1-.73.53s.52.44.86.44h.23l-.62.26a.82.82 0 0 0-.52.47.5.5 0 0 0 .06.45.55.55 0 0 0 .4.26.5.5 0 0 0-.07.22v.17l-.3-.26a1.34 1.34 0 0 0-.7-.5.4.4 0 0 0-.4.24.43.43 0 0 0 .1.46.54.54 0 0 1 0 .1.5.5 0 0 0 0 .4.47.47 0 0 0 .16.2.78.78 0 0 0 .14.7l.1.1a.5.5 0 0 0-.33.17.74.74 0 0 0-.1.62.68.68 0 0 0 .65.65.84.84 0 0 1 .1.22.82.82 0 0 0 .52.66l-.06.05-.13.08a1.35 1.35 0 0 1-.34-.17 1.63 1.63 0 0 0-.8-.3.6.6 0 0 0-.6.58.6.6 0 0 0 0 .08.52.52 0 0 0 .38.5.44.44 0 0 0 0 .08.43.43 0 0 0 .3.22.8.8 0 0 0 .22.4 1.73 1.73 0 0 0-.9-.3.46.46 0 0 0-.4.22 1.18 1.18 0 0 0 .05 1.12 1.1 1.1 0 0 0 .15.2.38.38 0 0 0 0 .14 2.1 2.1 0 0 0-1 .26l-.15.1a.42.42 0 0 0-.17 0 .5.5 0 0 0-.45.56.84.84 0 0 0 0 .16.66.66 0 0 0-.32.57.64.64 0 0 0 .1.3.48.48 0 0 0-.5.48.64.64 0 0 0 .26.5.94.94 0 0 0 0 .2.67.67 0 0 0 .1.53.4.4 0 0 0 .2.14.45.45 0 0 0 0 .13.48.48 0 0 0 .45.26l.1.1a.8.8 0 0 0-.15.25H40a.6.6 0 0 0-.52-.3.46.46 0 0 0-.35.18.83.83 0 0 0-.1.7.66.66 0 0 0 .65.7h.13a1.26 1.26 0 0 0 .75.9.44.44 0 0 0 .4.28.7.7 0 0 0 .27-.07.7.7 0 0 1 .23.18 1.9 1.9 0 0 0 .26.22 1 1 0 0 1-.27 0 .8.8 0 0 0-.43-.24 1.15 1.15 0 0 1-.28-.1 4.87 4.87 0 0 0-1.3-.25.44.44 0 0 0-.5.43.9.9 0 0 0 .44.67l-.2.05a.4.4 0 0 0-.04.75l.26.1a.53.53 0 0 0-.28.47.53.53 0 0 0 .13.37 1.06 1.06 0 0 0 .1.85 1 1 0 0 1 .1.26.44.44 0 0 0 .1.34.5.5 0 0 0 .42.18h.22a.52.52 0 0 0 .26.17.56.56 0 0 0 .06.12h-.1a1.4 1.4 0 0 1-1-.55 1.28 1.28 0 0 0-.87-.53.5.5 0 0 0-.4.2 1.12 1.12 0 0 0-.14.82 2.15 2.15 0 0 0 .38.82.56.56 0 0 0-.35.62c.13.34.43.36 1.1.4a.26.26 0 0 1 .23.13 1.34 1.34 0 0 0 .32.4.52.52 0 0 0-.28.22.44.44 0 0 0 0 .45 1.92 1.92 0 0 0 1.3.46h.2a.5.5 0 0 0 .4.17 1 1 0 0 0 .47-.16.8.8 0 0 1 .52 0 3.8 3.8 0 0 0 .56.1l-.06.07a.38.38 0 0 1-.2.1.74.74 0 0 0-.58.2h-.2a.6.6 0 0 0-.42.14.43.43 0 0 0-.1.47.58.58 0 0 0 .57.3.72.72 0 0 0 .35-.08.8.8 0 0 0 .26 0H42.78a.55.55 0 0 0 .45.22.47.47 0 0 0 .4-.2l.08.06a.4.4 0 0 0 .33.45h.17a.44.44 0 0 0 .05.14.42.42 0 0 0 .35.17.56.56 0 0 0 .3-.1h.07a.57.57 0 0 0 .54.37.8.8 0 0 0 .73-.58h.35a.85.85 0 0 0 .62-.18h.18a3.55 3.55 0 0 0 .8-.1c0 .12 0 .36.06.56a16.25 16.25 0 0 1 0 2.15l-.1 1.08a.4.4 0 0 0 .37.43h.66a1 1 0 0 0 .84-.25.8.8 0 0 0 .1-.7 25.07 25.07 0 0 1-.42-3.36v-.24a2.82 2.82 0 0 1 .5.1h.12a.57.57 0 0 0 .52-.3.63.63 0 0 0 .52.42h.06l.2.07a.9.9 0 0 0 .38.07 1.07 1.07 0 0 0 .52-.13.78.78 0 0 0 .3-.25h.1a.9.9 0 0 0 .33-.07.77.77 0 0 0 .5-.38l.5.07a.4.4 0 0 0 .45-.34.4.4 0 0 0-.34-.45h.08a.63.63 0 0 0 .26.05.52.52 0 0 0 .52-.5h.94a.77.77 0 0 0 .9-.36.43.43 0 0 0 0-.33 1.4 1.4 0 0 0 .5-.4 1.38 1.38 0 0 1 .2-.2.55.55 0 0 0 .44-.64.44.44 0 0 1 .28-.26h.17a1.36 1.36 0 0 0 .96-.64.9.9 0 0 0 .4-.9zm-18.16 5.17c-.15 0-.26 0-.2-.08a.23.23 0 0 1 .14-.06.38.38 0 0 1 .15 0c.14.08.07.13-.1.13zm6.6-33.05c-.2-.16-.26-.2.05-.2h.22a2.6 2.6 0 0 1 .58.06 3.94 3.94 0 0 1-.7.7 2 2 0 0 1-.27-.27c-.13-.15-.15-.2-.1-.2l.2.04.23.07s-.04-.05-.22-.18zm.06-3.72a.16.16 0 0 1 .1-.1.33.33 0 0 1 .05.3.6.6 0 0 1-.08.47.32.32 0 0 1-.13-.17.6.6 0 0 1 .06-.5zm-.1 1.33c.27 0 .47.45.27.57h-.06a.33.33 0 0 1-.22-.13c-.27-.27-.27-.44.03-.44zm-.27 1.1l.13.07h.13a.1.1 0 0 0 .12 0 .18.18 0 0 1 .2-.16c.12 0 .12.07 0 .2s0 .54.38.67c.26.06.26.08-.08.1a.8.8 0 0 1-.68-.43c-.23-.37-.3-.43-.2-.43zm-.8 2.88h-.23c-.13 0-.2 0-.2-.08a.13.13 0 0 1 .1-.12 1.73 1.73 0 0 0 .4-.13h.14a.1.1 0 0 1 .13.07.44.44 0 0 1-.36.27zm.38.26zm-2.86 4.85a.08.08 0 0 1-.06 0 .36.36 0 0 1-.26-.25c-.2-.37-.22-.5-.06-.5a.75.75 0 0 1 .38.76zm1.07 3.3l-.43-.14a.7.7 0 0 0 .35-.4h.06a.48.48 0 0 0-.05.17.54.54 0 0 0 .08.36zM57.5 62.53l-.07.07v-.06zm-.67.66l-.04.05z"/><path class="cls-2" d="M17 0H2a2.15 2.15 0 0 0-2 2v15a2.15 2.15 0 0 0 2 2h15a2.15 2.15 0 0 0 2-2V2a2.15 2.15 0 0 0-2-2zm-4.5 6h-1.7l-.3.3v1.5h2V10h-2v5H8v-5H6.5V7.7h1.7v-1a2.8 2.8 0 0 1 .8-2 2.34 2.34 0 0 1 1.8-.8h1.7V6zM36 19H21a2.15 2.15 0 0 0-2 2v15a2.15 2.15 0 0 0 2 2h15a2.15 2.15 0 0 0 2-2V21a2.15 2.15 0 0 0-2-2zm-3.8 14.6a1.28 1.28 0 0 1-1 .4h-2.7a4.8 4.8 0 0 1-3-1.2 4.36 4.36 0 0 1-1-3v-5.3a1.2 1.2 0 0 1 .3-1 1.28 1.28 0 0 1 1-.4 1 1 0 0 1 1 .4 1.7 1.7 0 0 1 .3 1v2h4a1 1 0 0 1 1 .4 1.5 1.5 0 0 1 .3 1 .87.87 0 0 1-.4.8 1.78 1.78 0 0 1-1 .4h-4v1a1.4 1.4 0 0 0 .5 1 1.28 1.28 0 0 0 1 .4h2.7a1 1 0 0 1 1 .4 1.28 1.28 0 0 1 .4 1 .87.87 0 0 1-.4.8v-.1zM48.52 38.5a.6.6 0 0 0-.06.46.32.32 0 0 0 .15.2.6.6 0 0 0 .1-.45.33.33 0 0 0-.07-.3.16.16 0 0 0-.1.1zM46.9 43.73c0 .05.06.1.2.1h.2a.44.44 0 0 0 .4-.27.1.1 0 0 0-.13-.07h-.13a1.73 1.73 0 0 1-.4.12.13.13 0 0 0-.14.1z"/><path class="cls-2" d="M53.06 75c.32-.13.3-.13 0-.13a.38.38 0 0 1-.35-.18.4.4 0 0 1 .4-.12h.4l.76.08-.62-.2c-.6-.18-.8-.45-.36-.45h.22a1.4 1.4 0 0 0 .5 0 .84.84 0 0 1 .32-.05.56.56 0 0 1 .18 0 .3.3 0 0 0 .13 0q.13 0 .13-.22c0-.22.13-.3.77-.3h.57c.52 0 .62 0 .46-.13s-.17-.53 0-.53a.22.22 0 0 1 .1 0h.06a.75.75 0 0 0 .43-.3.9.9 0 0 1 .4-.33.25.25 0 0 0 .1-.26.77.77 0 0 1 .68-.66h.13a1.16 1.16 0 0 0 .65-.5v.18c.27-.4.37-.53.27-.53l-.2.05-.78.17-.7.15h.03a.5.5 0 0 1-.4-.18.32.32 0 0 0-.25-.13 1.32 1.32 0 0 0-.45.13 1.52 1.52 0 0 1-.58.13.7.7 0 0 1-.26-.05c-.28-.1-.26-.17.04-.17h.3a1 1 0 0 0 .63-.32.5.5 0 0 1 .34-.22.26.26 0 0 1 .18.08.48.48 0 0 0 .3.1c.22 0 .4-.12.32-.27a.7.7 0 0 1 .44-.42.65.65 0 0 0 .4-.26c-.1 0 0-.17.2-.36a1.28 1.28 0 0 0 .32-.7c0-.16 0-.24-.05-.24a.46.46 0 0 0-.12.17 1.32 1.32 0 0 1-1.08.5 1.85 1.85 0 0 1-.54-.08.87.87 0 0 1-.58-.4c0-.14.05-.2.15-.2a.42.42 0 0 1 .26.12.53.53 0 0 0 .3.08.83.83 0 0 0 .73-.24.36.36 0 0 0-.15-.2 1.16 1.16 0 0 1 .45-1.1 2.15 2.15 0 0 0 .22-.8L59 65l-.67.66a4.75 4.75 0 0 1-1.25.9 1.65 1.65 0 0 1-.52.17c-.1 0-.13 0-.18-.17s0-.2.05-.2h.23a.23.23 0 0 0 .1-.43c-.1-.07-.1-.1 0-.1h.26l.2.17c.15 0 .2-.08.2-.26s.05-.45.22-.45a.74.74 0 0 1 .3.1 1.1 1.1 0 0 0 .26.1l-.1-.14c-.23-.25-.26-.46-.1-.46h.26a.1.1 0 0 0 .1-.1.1.1 0 0 1 .1-.1h.16a.5.5 0 0 0 .38-.22.42.42 0 0 0 0-.63 1.05 1.05 0 0 1 0-1.32.37.37 0 0 0 .15-.35.13.13 0 0 0-.15-.07 3.8 3.8 0 0 0-1.64 1.22 2.6 2.6 0 0 1-1 .83q-.15 0-.15-.26c0-.13 0-.2.1-.2h.11a.2.2 0 0 0 .16-.16.27.27 0 0 0 0-.2.44.44 0 0 0-.1-.1.24.24 0 0 0 0-.04.35.35 0 0 1-.33-.2.13.13 0 0 1 .13-.1h.23c.3 0 .85-.48.6-.64s-.2-.33-.07-.33a.5.5 0 0 1 .26.08.8.8 0 0 0 .25.12c.05 0 0-.05 0-.16a.27.27 0 0 1 .1-.33c.1-.05.07-.1-.06-.1a.26.26 0 0 1-.27-.25.17.17 0 0 1 .13-.2h.11a.26.26 0 0 0 .22-.18c.1-.26.05-.4-.1-.4a1 1 0 0 0-.57.26 2.48 2.48 0 0 1-.65.4 2.26 2.26 0 0 0-.52.3 2.48 2.48 0 0 1-1 .44c-.06 0-.1 0-.06-.1s0-.16-.2-.16-.27 0 .05-.26a.93.93 0 0 0 .36-.5.53.53 0 0 1 .45-.25.4.4 0 0 0 .45-.26.4.4 0 0 1 .4-.3c.18 0 .3-.14.25-.2s0-.14.1-.14a.1.1 0 0 0 .1 0 .1.1 0 0 0 0-.13c-.05-.1 0-.17.05-.17.27 0 .4-.7.17-.83s-.13-.16.13-.16a.35.35 0 0 0 .36-.16.18.18 0 0 0-.22-.17 1 1 0 0 0-.67.37 13.6 13.6 0 0 1-2.67 1.4.46.46 0 0 1-.17-.2.52.52 0 0 1 .4-.54 1 1 0 0 0 .55-.66.45.45 0 0 1 .43-.4c.2 0 .3-.07.27-.16a.47.47 0 0 1 .36-.65c.22 0 .22-.05-.06-.26s-.28-.23-.2-.23h.28a.6.6 0 0 0 .42-.36.55.55 0 0 0 .07-.4 3.23 3.23 0 0 0-1 .66 4.77 4.77 0 0 1-2.2.8c-.14 0-.2 0-.14-.14s-.06-.2-.2-.26-.16-.16-.12-.22a.33.33 0 0 0-.1-.33c-.1-.15-.1-.2.1-.2a.8.8 0 0 0 .5-.2c.24-.22 0-.54-.5-.67-.24-.07-.2-.1.1-.1h.2a1.32 1.32 0 0 0 .3 0 3.88 3.88 0 0 1 .47-.08 1.9 1.9 0 0 0 1.08-.32s0-.07-.2-.07a3.08 3.08 0 0 0-.46 0h-.46c-.18 0-.3 0-.3-.1a.2.2 0 0 1 .23-.17c.3 0 .65-.44.44-.58s-.1-.18.06-.34a.48.48 0 0 0 .17-.47.3.3 0 0 1 .2-.33c.22-.1.24-.16 0-.26s-.2-.12.04-.12.26-.07.08-.33a.5.5 0 0 0-.34-.32.34.34 0 0 0-.23.32.45.45 0 0 1-.32.34 1.1 1.1 0 0 0-.62.4 1.15 1.15 0 0 1-.38.25c0-.05 0-.05-.13-.05a.84.84 0 0 0-.27.07 1.1 1.1 0 0 1-.4.08 1 1 0 0 1-.42-.1c-.5-.25-.55-.47 0-.47a.85.85 0 0 0 .66-.36 1 1 0 0 1 .3-.3.94.94 0 0 0 .3-.12c.3-.16.3-.2 0-.2s-.3-.7.1-1.16c.16-.2.2-.33.12-.33s-.12-.12-.05-.3a.25.25 0 0 0 .05-.2.73.73 0 0 0-.26.17l-.65.58a3.58 3.58 0 0 1-1.68 1.2.26.26 0 0 1-.23-.14c-.08-.08-.08-.12 0-.12h.13a.47.47 0 0 0 .17 0 .08.08 0 0 0 .07-.08.45.45 0 0 1 .32-.24.42.42 0 0 0 .32-.4.73.73 0 0 1 .82-.46h.13s0-.05-.05-.16-.1-.28.2-.57a.66.66 0 0 0 .3-.55.1.1 0 0 1 0-.14.1.1 0 0 1 .15 0c.15 0 .15-.05 0-.18a.18.18 0 0 0-.13-.05 1.1 1.1 0 0 0-.58.37 3.87 3.87 0 0 1-1.94.92.25.25 0 0 1-.2-.05 1.64 1.64 0 0 1 .9-1 2.74 2.74 0 0 0 .9-1c.07-.13.1-.17 0-.17a1.73 1.73 0 0 0-.45.18 5.5 5.5 0 0 1-1.27.43l-.45.05c-.17 0-.17-.08-.12-.3a.34.34 0 0 1 .13-.25.18.18 0 0 1 .14.07.87.87 0 0 0 .56.18c.3 0 .34-.07.26-.57s0-.54.35-.54.84-.38.53-.55c-.14-.12-.13-.12.05-.12s.18 0 .13-.1h-.04a1.46 1.46 0 0 0-.52.18 2.43 2.43 0 0 1-.6.26c-.22 0 0-.58.23-.58a.17.17 0 0 0 .2-.2.3.3 0 0 1 .3-.3.47.47 0 0 0 .3-.44c0-.14 0-.2-.05-.2a1.34 1.34 0 0 0-.44.3 2 2 0 0 1-.7.43 2.22 2.22 0 0 0-.67.26 1.2 1.2 0 0 1-.48.15c-.13 0-.13-.12.13-.32a1.1 1.1 0 0 0 .33-.63 1.14 1.14 0 0 1 .4-.88.3.3 0 0 0 .17-.22.74.74 0 0 1 .44-.4c.18-.05.27-.16.22-.3a.17.17 0 0 0-.13-.08.45.45 0 0 0-.27.13 6.43 6.43 0 0 1-1 .6 3.12 3.12 0 0 1-.6.27c-.07 0-.07-.07-.07-.26a.28.28 0 0 1 .34-.3c.1 0 .13-.13.1-.26s0-.18 0-.18h.05a1.08 1.08 0 0 0 .7-.8.06.06 0 0 0-.04 0 .86.86 0 0 0-.42.2 1.34 1.34 0 0 1-.6.37.22.22 0 0 0-.17.23c0 .16-.04.24-.12.24a.5.5 0 0 1-.32-.18.26.26 0 0 0-.16-.1c-.05 0-.05.04-.05.15a.47.47 0 0 0 .34.4c.16.07.26.18.2.26a.17.17 0 0 1-.13.1h-.06a.3.3 0 0 0-.2.23.4.4 0 0 1-.36.4h-.08c-.36 0-.34.63.05 1.06.2.2.27.28.2.28h-.13l-.13-.05a.13.13 0 0 0-.1.16c0 .13-.13.2-.4.2H47c-.26 0-.4-.1-.4-.2a.48.48 0 0 0-.25-.37.6.6 0 0 0-.22-.1.7.7 0 0 0 .1.42 1.58 1.58 0 0 0 .4.7.3.3 0 0 1 .1.35c-.06.13.12.28.38.4a1.22 1.22 0 0 1 .5.32.92.92 0 0 0 .26.4c.17.17.2.22 0 .22h-.28a.8.8 0 0 1-.52-.13 1.5 1.5 0 0 0-.58-.42 2 2 0 0 0-.48-.33c-.05 0 0 .08 0 .2a.4.4 0 0 0 .3.3.36.36 0 0 1 .24.37c0 .16 0 .26.13.26h.18c.08 0 0 .1-.1.36a.74.74 0 0 0-.12.55c0 .06-.12.08-.34.08h-.17a.57.57 0 0 1-.5-.13.42.42 0 0 0-.25-.26.54.54 0 0 0-.2-.1c-.06 0-.06.08 0 .3a.8.8 0 0 1-.78.86c-.58.1-.52.18.06.18H45a2.05 2.05 0 0 1 .7.08.1.1 0 0 0 .1 0 .46.46 0 0 0 .2-.12.4.4 0 0 1 .13-.1v.14s-.37.38-1.83 1c-.2.07-.32.22-.26.33a.17.17 0 0 0 .13.08.36.36 0 0 0 .2-.1.36.36 0 0 1 .18-.1c.05 0 .05 0 .05.08s.06.1.17.1a1 1 0 0 0 .3-.06.5.5 0 0 0 .4-.26c0-.17.14-.25.35-.25a.82.82 0 0 1 .56.22c.1.17.1.3 0 .3-.3 0-.17.3.17.37a.45.45 0 0 1 .3.53v.17l-.64-.1a3.3 3.3 0 0 0-1.4-.4c-.22 0-.35 0-.35.12v.4a.15.15 0 0 0 .06.16.08.08 0 0 1 .07 0 .8.8 0 0 1 .36.16 1.38 1.38 0 0 0 .65.22.24.24 0 0 1 .28.16c0 .1.1.13.23.13h.2a.68.68 0 0 1 .34.06h.06a.05.05 0 0 0 .05 0 .73.73 0 0 0 0 .13c0 .08 0 .12-.05.12l-.1-.12a.22.22 0 0 0-.1 0 .13.13 0 0 0-.13.13c0 .08-.1.13-.26.13h-.24a6.13 6.13 0 0 1-.65-.08c-.07 0-.07-.08 0-.17a.53.53 0 0 0-.43-.35 6.84 6.84 0 0 1-1.25-.9 3 3 0 0 0-.52-.44v.06a.47.47 0 0 1 .13.46.1.1 0 0 0 0 .1.1.1 0 0 0 .12 0c.12 0 .14.17.08.43s0 .4.13.4a1 1 0 0 0 .45-.16.58.58 0 0 1 .1-.05c.05 0 0 .07 0 .17a.54.54 0 0 0 .06.46c.17.24 0 .4-.35.4a1.52 1.52 0 0 1-.38-.07h-.22c-.15 0-.17.1-.13.35a.32.32 0 0 0 .26.34h.08a.67.67 0 0 1 .4.48.57.57 0 0 0 .3.32.85.85 0 0 0 .32-.2 1.33 1.33 0 0 1 .26-.22.5.5 0 0 1-.1.26.6.6 0 0 0-.15.5.8.8 0 0 0 .18-.2.54.54 0 0 1 .18-.14v.2a.28.28 0 0 0 .18.3c.08 0 .13.07.08.17a.26.26 0 0 1-.22.1h-.23a1 1 0 0 0-.5.17.67.67 0 0 1-.36.17 1.14 1.14 0 0 1-.52-.25 1.3 1.3 0 0 0-.62-.24h-.03a.2.2 0 0 0-.15.27.25.25 0 0 0 .26.13c.13 0 .2.1.13.18s0 .1 0 .1a.63.63 0 0 0 .2 0h.18a.13.13 0 0 1 .15.1.26.26 0 0 1-.18.22c-.12 0-.08.17.1.33s.25.32.08.53-.14.26 0 .26a.67.67 0 0 0 .44-.2.26.26 0 0 1 .13-.1c.08 0 .05.2-.1.43a.2.2 0 0 1-.18.13 2.27 2.27 0 0 1-.77-.4 2.32 2.32 0 0 0-.75-.5.1.1 0 0 0-.1 0 .77.77 0 0 0 .4 1c.25 0 .25 0 0 .16s-.2.17 0 .2h.36c.06 0 .05.08 0 .18a.5.5 0 0 1-.52.17H42a1.87 1.87 0 0 0-1 .2.83.83 0 0 1-.4.17.1.1 0 0 1-.07 0 .06.06 0 0 0-.05 0 .15.15 0 0 0-.08.17.4.4 0 0 0 .2.34c.1.05.07.1-.16.1a.3.3 0 0 0-.36.27.17.17 0 0 0 0 .07.17.17 0 0 0 .2.12h.23l.27-.05q.1 0 0 0c-.13.07-.05.23.3.6s.65.92.4.92a5.82 5.82 0 0 1-.78-.5 2.4 2.4 0 0 0-.95-.5.1.1 0 0 0-.08.1.83.83 0 0 0 .28.37.25.25 0 0 1 .15.15H40a.27.27 0 0 0-.13.26.24.24 0 0 0 0 .23.26.26 0 0 0 .13-.2.35.35 0 0 1 .22-.1c.15 0 .18.16 0 .34s-.12.2.08.2a.2.2 0 0 1 .26.18.22.22 0 0 0 .23.16.22.22 0 0 1 .25.2.2.2 0 0 1-.23.12.4.4 0 0 0-.34.26.47.47 0 0 1-.45.24.4.4 0 0 1-.36-.16.3.3 0 0 0-.2-.16c-.08 0-.13.18-.08.42s.12.37.25.37h.23a.28.28 0 0 1 .28.25.76.76 0 0 0 .52.66.26.26 0 0 0 .18-.08.32.32 0 0 1 .13-.1v.2s-.1.25 0 .25h.22a.86.86 0 0 1 .52.32 1.4 1.4 0 0 0 .75.4.3.3 0 0 1 .33.15 1.35 1.35 0 0 1-1.14.36 1.15 1.15 0 0 1-.57-.1.4.4 0 0 0-.13-.2l-.35-.14a4.5 4.5 0 0 0-1.16-.24h-.14a1.8 1.8 0 0 0 .45.5l.46.4-.48.1-.46.13.52.2c.52.23.52.56 0 .56a.28.28 0 0 0-.32.18.16.16 0 0 0 .18.13 1.1 1.1 0 0 0 .5-.17.64.64 0 0 1 .3-.08.25.25 0 0 1 .17.05c.1.13 0 .2-.43.26-.67.13-.8.32-.54.8a1 1 0 0 1 .18.52s0 .08.13.08H40.3c.1 0 .17 0 .17.08a.13.13 0 0 0 .13.1h.1a.13.13 0 0 1 .1.18.16.16 0 0 0 .13.17c.27 0 .18.28-.17.48a.72.72 0 0 1-.36.1 1.8 1.8 0 0 1-1.25-.7 1 1 0 0 0-.58-.4c-.15 0-.22.2-.13.52a1.44 1.44 0 0 0 .35.72c.22.18.2.24-.1.45s-.35.3.5.33a.65.65 0 0 1 .55.4.64.64 0 0 0 .4.36.28.28 0 0 1 .22.18.17.17 0 0 0 .2.1h.12c.25-.06.25-.17.12-.32s-.12-.2.05-.2h.08c.26 0 .3.08.13.5s-.18.43-.4.43H40.1a.42.42 0 0 0-.3.08 1.26 1.26 0 0 0 1 .3.47.47 0 0 0 .23 0h.06a.16.16 0 0 1 .12.13.13.13 0 0 0 .13.13.67.67 0 0 0 .28-.14 2.3 2.3 0 0 1 .8-.1 5.9 5.9 0 0 0 1.2.14c.83 0 .9.2.13.36a1.5 1.5 0 0 0-.65.34.74.74 0 0 1-.48.24.27.27 0 0 0-.3.16c0 .1.1.13.22.13h.38c.12 0 .2 0 .2.08a.13.13 0 0 0 .15.1.33.33 0 0 0 .08-.5v-.4l.26.4a.6.6 0 0 0 .44.3H44.2c.17 0 .13.2-.1.32-.05.05-.05.05 0 .05h.38c.13 0 .14.07.1.2s0 .16 0 .16a.23.23 0 0 0 .13-.07.8.8 0 0 1 .4-.13.18.18 0 0 1 .16.2.2.2 0 0 0 .2.2.42.42 0 0 0 .35-.32.43.43 0 0 1 .5-.25h.2c.22 0 .35 0 .35-.08a.57.57 0 0 1 .46-.1 3 3 0 0 0 .77-.12h.18c.16 0 .2.2.3 1a16.72 16.72 0 0 1 0 2.2l-.1 1.1h.64c.58 0 .6 0 .52-.45a24.62 24.62 0 0 1-.4-3.43c0-.47 0-.66.3-.66a3.3 3.3 0 0 1 .66.14q.22 0 .26-.4c0-.3.1-.43.17-.43a.73.73 0 0 1 .3.47 1 1 0 0 0 .33.46 1.07 1.07 0 0 1 .35.1.53.53 0 0 0 .23 0 .7.7 0 0 0 .35-.1c.27-.13.23-.17-.22-.26s-.75-.4-.36-.4a.1.1 0 0 0 .06-.17c-.08-.1-.08-.16 0-.16a1.22 1.22 0 0 1 .57.4.84.84 0 0 0 .54.3.5.5 0 0 0 .26-.04zm4.57-11a.9.9 0 0 0 .37-.3.1.1 0 0 1 .1 0 .78.78 0 0 1 .52.6.64.64 0 0 1-.56.15H58c-.67-.04-.9-.3-.37-.45zm-1.45 4.87a7.3 7.3 0 0 1 .9-.1c.2 0 .25 0 .17.14a1.63 1.63 0 0 1-.9.27c-.15 0-.28 0-.28-.1a.2.2 0 0 1 .1-.23zM55 70.37a.26.26 0 0 1 .18.15c.06.08 0 .16-.06.16a.18.18 0 0 1-.18-.17c0-.1.06-.14.06-.14zM44.5 55.14h-.2c-.17 0-.16-.13 0-.4a.26.26 0 0 1 .24-.13.26.26 0 0 1 .26.26.45.45 0 0 1-.3.27zm-1.1 4.2c.3 0 .3.05.12.18a.76.76 0 0 1-.36.13.13.13 0 0 1-.1-.13.3.3 0 0 1 .33-.17zm-1.15 6.72a.18.18 0 0 1-.18-.16q0-.15.08-.15a.26.26 0 0 1 .17.17c.06.08.02.15-.07.15zm.28-1a.6.6 0 0 1-.32.13 2.94 2.94 0 0 1-.9-.26c-.85-.36-1-.5-.47-.62H41a1.08 1.08 0 0 1 .6.2 1.08 1.08 0 0 0 .53.16h.23a.23.23 0 0 1 .2.1.24.24 0 0 1-.02.3zm-.66 5.7c0 .04 0 .04-.13.04a.55.55 0 0 1-.4-.12c0-.05 0-.1.1-.1h.13a.56.56 0 0 1 .3.14zm1.28.8a7.56 7.56 0 0 1-1.2-.1.4.4 0 0 0 .27-.23h.22a1.8 1.8 0 0 1 .9.2.75.75 0 0 0 .18.13 1.9 1.9 0 0 1-.36 0zm1.08-10.1c-.27 0-.27 0-.08.17.15.08.14.13 0 .13a8.26 8.26 0 0 1-1.33-.22c-1.42-.32-2.22-1.4-1-1.42h.1a.24.24 0 0 1 .16.3q0 .23.23.23h.1a.25.25 0 0 1 .28.13.1.1 0 0 0 .08.08h.16a.18.18 0 0 1 .14.08.2.2 0 0 0 .2.08.8.8 0 0 0 .57-.3.17.17 0 0 1 .1-.1v.14a.4.4 0 0 1-.26.3.2.2 0 0 0-.13.26.13.13 0 0 0 .13.07.26.26 0 0 0 .17-.06.32.32 0 0 1 .22-.1.38.38 0 0 1 .2.08c.24.14.25.17-.02.17zm1-6.44a.2.2 0 0 1 .2.16.16.16 0 0 1-.18.13c-.14 0-.25-.05-.22-.13a.26.26 0 0 1 .2-.2zm-.28 2a.26.26 0 0 1 .18-.08h.12a.3.3 0 0 1 .14.4.4.4 0 0 1-.27.18.3.3 0 0 1-.2-.53zm.9 17.92a4.4 4.4 0 0 1-.57 0 3.6 3.6 0 0 1-.62 0 .5.5 0 0 0 .13-.13.7.7 0 0 0 .4.1 1.8 1.8 0 0 0 .65-.12.54.54 0 0 0 0 .13zm-.17-3.1c-.13 0-.18-.08-.13-.17a.3.3 0 0 1 .23-.16h.06a.13.13 0 0 1 .1.16.24.24 0 0 1-.26.15zm.45-14.6a.18.18 0 0 1-.18-.17c0-.1 0-.16.06-.16a.26.26 0 0 1 .16.16.1.1 0 0 1 0 .16zm1.38-7.74h.27c.18 0 .26.06.26.14 0 .13 0 .2-.13.2a2.57 2.57 0 0 1-.52-.13c-.38-.13-.38-.13.13-.2zm.76 21.85a.35.35 0 0 1-.23.17c-.23 0-.17-.1.1-.24h.1c.05-.04.08 0 .03.05zm1.63-19.12a.2.2 0 0 1-.2-.08c-.05-.08 0-.17.16-.17a.3.3 0 0 1 .25.06.2.2 0 0 1-.22.18zm2.17 1.62a2 2 0 0 1-.77.26c-.18 0-.18-.04.08-.1s.36-.13.3-.2.13-.2.4-.22h.35c.18-.05.06.04-.36.26zm.44 2.08a.17.17 0 0 1 .18.17c0 .1 0 .13-.08.13a.26.26 0 0 1-.17-.13c-.05-.1-.03-.18.07-.18zM49 41.75c.34 0 .34 0 .08-.08-.4-.13-.58-.4-.4-.66s.14-.2 0-.2a.18.18 0 0 0-.18.16.1.1 0 0 1-.13.07h-.1L48.1 41c-.08 0 0 .1.18.4a.8.8 0 0 0 .68.42z"/><path class="cls-2" d="M41.94 75.16a.38.38 0 0 0-.15 0 .23.23 0 0 0-.16.05c-.05.06.05.1.2.1.16-.03.23-.08.1-.14zM48.6 40.4h.07c.2-.1 0-.56-.26-.56-.3 0-.3.18 0 .45a.33.33 0 0 0 .2.1zM49.3 42.08a2.6 2.6 0 0 0-.6-.08h-.22c-.3 0-.26.05-.05.2.18.14.25.2.2.2l-.2-.08-.22-.05c-.04 0 0 .07.1.22a2 2 0 0 0 .27.25 3.94 3.94 0 0 0 .72-.67zM44.45 48.17c-.15 0-.14.13.06.5a.36.36 0 0 0 .27.26.08.08 0 0 0 .06 0 .75.75 0 0 0-.38-.76z"/><g id="logo"><path class="cls-2" d="M176.16 121.93c.38-.15.35-.15 0-.15a.44.44 0 0 1-.4-.2.47.47 0 0 1 .44-.13h.45l.9.1-.72-.24c-.7-.2-.92-.5-.42-.5h.3a1.66 1.66 0 0 0 .6-.1 1 1 0 0 1 .4-.07.66.66 0 0 1 .2 0 .35.35 0 0 0 .15 0q.15 0 .15-.26c0-.26.15-.35.9-.35h.66c.6 0 .72 0 .54-.15s-.2-.6 0-.6a.26.26 0 0 1 .12 0h.08a.87.87 0 0 0 .5-.35 1 1 0 0 1 .48-.38.3.3 0 0 0 .12-.3.9.9 0 0 1 .78-.75.4.4 0 0 1 .15 0 1.35 1.35 0 0 0 .75-.58v.1c.3-.44.42-.6.3-.6a1 1 0 0 0-.24.07l-.9.2-.8.17h-.1a.6.6 0 0 1-.44-.2.38.38 0 0 0-.3-.16 1.57 1.57 0 0 0-.53.16 1.8 1.8 0 0 1-.68.15.8.8 0 0 1-.3-.05c-.33-.12-.3-.2.05-.2h.36a1.13 1.13 0 0 0 .73-.36.57.57 0 0 1 .4-.27.3.3 0 0 1 .2.1.57.57 0 0 0 .34.1c.26 0 .48-.12.38-.3a.8.8 0 0 1 .5-.48.76.76 0 0 0 .46-.3c-.08 0 0-.2.25-.4a1.45 1.45 0 0 0 .38-.82c0-.18 0-.27-.06-.27a.53.53 0 0 0-.15.2 1.55 1.55 0 0 1-1.26.57 2.2 2.2 0 0 1-.63-.1 1 1 0 0 1-.68-.44c0-.18.06-.25.18-.25a.5.5 0 0 1 .3.15.63.63 0 0 0 .38.1 1 1 0 0 0 .85-.28.4.4 0 0 0-.18-.26 1.32 1.32 0 0 1 .53-1.25 2.42 2.42 0 0 0 .26-.9l.15-.8-.77.75a5.54 5.54 0 0 1-1.46 1 2 2 0 0 1-.6.2c-.12 0-.15 0-.2-.2s0-.23.05-.23h.27a.26.26 0 0 0 .1-.5c-.1-.08-.1-.1 0-.1a1.55 1.55 0 0 1 .3 0 1.58 1.58 0 0 0 .3.05c.18 0 .22-.1.22-.3 0-.36.08-.5.27-.5a.87.87 0 0 1 .34.1 1.3 1.3 0 0 0 .3.12l-.12-.16c-.27-.3-.3-.53-.12-.53h.15a.4.4 0 0 0 .15 0 .12.12 0 0 0 .13-.1.12.12 0 0 1 .12-.12h.18a.57.57 0 0 0 .42-.3.47.47 0 0 0 0-.72 1.18 1.18 0 0 1 0-1.5.42.42 0 0 0 .18-.4.15.15 0 0 0-.14-.08 4.45 4.45 0 0 0-1.92 1.4 3 3 0 0 1-1.2.94q-.18 0-.18-.3c0-.14 0-.2.1-.2a.12.12 0 0 1 .07 0h.03a.24.24 0 0 0 .18-.2.3.3 0 0 0 0-.23.5.5 0 0 0-.1-.13.27.27 0 0 0-.05-.06.4.4 0 0 1-.27-.3.15.15 0 0 1 .15-.1h.28c.38 0 1-.55.72-.73s-.24-.38-.1-.38a.6.6 0 0 1 .3.08 1 1 0 0 0 .3.12c.07 0 0-.06 0-.18a.3.3 0 0 1 .12-.38c.14-.06.1-.1-.06-.1a.3.3 0 0 1-.3-.3.2.2 0 0 1 .15-.24H181.46a.3.3 0 0 0 .26-.2c.13-.3.1-.46-.1-.46a1.2 1.2 0 0 0-.66.3 2.9 2.9 0 0 1-.75.45 2.65 2.65 0 0 0-.6.32 2.92 2.92 0 0 1-1.18.5c-.08 0-.12 0-.08-.1s0-.2-.24-.2-.3 0 .08-.3a1.06 1.06 0 0 0 .42-.56.62.62 0 0 1 .5-.3.45.45 0 0 0 .54-.3.48.48 0 0 1 .45-.35c.22 0 .37-.16.3-.23s0-.15.1-.15a.1.1 0 0 0 .1-.18c-.05-.12 0-.2.07-.2.32 0 .47-.8.2-.95s-.15-.2.15-.2a.4.4 0 0 0 .42-.17.2.2 0 0 0-.26-.2 1.2 1.2 0 0 0-.78.4 16 16 0 0 1-3.16 1.67.53.53 0 0 1-.2-.26c-.06-.2.1-.4.45-.6a1.18 1.18 0 0 0 .64-.75.52.52 0 0 1 .5-.46c.23 0 .35-.08.3-.18a.54.54 0 0 1 .42-.75c.26 0 .26-.05-.08-.3s-.33-.25-.24-.25h.33a.7.7 0 0 0 .5-.4.62.62 0 0 0 .16-.54 3.78 3.78 0 0 0-1.2.76 5.64 5.64 0 0 1-2.56.9c-.18 0-.26 0-.18-.15s-.1-.22-.24-.3-.2-.17-.15-.25a.38.38 0 0 0-.1-.38c-.14-.18-.12-.24.12-.24a.93.93 0 0 0 .56-.24c.3-.25 0-.6-.56-.76-.3-.08-.24-.1.1-.1h.18a1.56 1.56 0 0 0 .35 0 4.63 4.63 0 0 1 .56-.12 2.25 2.25 0 0 0 1.27-.36s0-.08-.24-.08a3.67 3.67 0 0 0-.53 0 4.75 4.75 0 0 1-.54 0c-.23 0-.35 0-.35-.1a.24.24 0 0 1 .27-.22c.36 0 .75-.5.5-.65s-.1-.2.1-.38a.54.54 0 0 0 .2-.54.35.35 0 0 1 .22-.4c.26-.1.28-.17 0-.3s-.24-.14.05-.14.3-.08.1-.38a.6.6 0 0 0-.4-.36.4.4 0 0 0-.27.36.52.52 0 0 1-.38.4 1.27 1.27 0 0 0-.72.44 1.34 1.34 0 0 1-.45.3c0-.06 0-.06-.15-.06a1 1 0 0 0-.3.08 1.3 1.3 0 0 1-.45.1 1.16 1.16 0 0 1-.5-.13c-.6-.28-.65-.54 0-.54a1 1 0 0 0 .67.24 1.13 1.13 0 0 1 .35-.33 1.12 1.12 0 0 0 .36-.15c.36-.18.36-.23 0-.23s-.35-.8.1-1.33c.2-.23.26-.38.15-.38s-.14-.16-.06-.36a.28.28 0 0 0 .05-.23.86.86 0 0 0-.3.2l-.75.65a4.2 4.2 0 0 1-2 1.36.3.3 0 0 1-.26-.14c-.1-.1-.1-.15 0-.15l.36.1a.56.56 0 0 0 .2 0 .1.1 0 0 0 .1-.1.52.52 0 0 1 .37-.27.48.48 0 0 0 .38-.45.85.85 0 0 1 .86-.65h.16s0-.06-.06-.18-.12-.32.24-.65a.75.75 0 0 0 .35-.63.12.12 0 0 1 .1-.2c.2 0 .2-.07 0-.22a.2.2 0 0 0-.14-.06 1.3 1.3 0 0 0-.68.4 4.56 4.56 0 0 1-2.26 1.06.3.3 0 0 1-.23-.06 1.9 1.9 0 0 1 1.04-1.14 3.15 3.15 0 0 0 1.05-1.14c.07-.14.08-.18 0-.18a2 2 0 0 0-.55.2 6.5 6.5 0 0 1-1.48.5 4.3 4.3 0 0 1-.53.05c-.2 0-.2-.1-.15-.34a.4.4 0 0 1 .14-.3.2.2 0 0 1 .15.08 1 1 0 0 0 .64.2c.36 0 .4-.07.3-.64s0-.63.4-.63 1-.44.6-.63C174 89 174 89 174.2 89s.2 0 .15-.1h-.06a1.73 1.73 0 0 0-.6.2 2.86 2.86 0 0 1-.7.3c-.27 0 0-.67.26-.67a.2.2 0 0 0 .24-.23.35.35 0 0 1 .33-.33.54.54 0 0 0 .38-.5c0-.17 0-.24-.07-.24a1.57 1.57 0 0 0-.5.36 2.36 2.36 0 0 1-.82.47 2.62 2.62 0 0 0-.77.3 1.42 1.42 0 0 1-.57.18c-.15 0-.15-.14.15-.36a1.23 1.23 0 0 0 .4-.7 1.3 1.3 0 0 1 .45-1 .34.34 0 0 0 .2-.26.86.86 0 0 1 .52-.45c.23-.07.33-.2.27-.34a.2.2 0 0 0-.15-.1.53.53 0 0 0-.3.14 7.53 7.53 0 0 1-1.12.7 3.68 3.68 0 0 1-.7.3c-.08 0-.08-.1-.08-.3a.32.32 0 0 1 .2-.4c.13 0 .16-.14.13-.3s0-.2 0-.2h.06a1.25 1.25 0 0 0 .82-.9.08.08 0 0 0-.06 0 1 1 0 0 0-.5.23 1.57 1.57 0 0 1-.7.4.26.26 0 0 0-.2.28c0 .2-.06.28-.15.28a.6.6 0 0 1-.37-.2.3.3 0 0 0-.15-.13c-.06 0-.06.06-.06.18a.54.54 0 0 0 .4.45c.2.08.3.2.23.3a.2.2 0 0 1-.15.1h-.08a.34.34 0 0 0-.24.26.45.45 0 0 1-.42.47h-.08c-.42 0-.4.72.06 1.2.23.25.3.34.23.34h-.15a.45.45 0 0 0-.15-.06.15.15 0 0 0-.12.18c0 .17-.15.26-.45.26h-.1c-.3 0-.5-.12-.46-.24a.55.55 0 0 0-.3-.42.72.72 0 0 0-.26-.12.8.8 0 0 0 .12.5 1.8 1.8 0 0 0 .45.8.33.33 0 0 1 .12.4c-.06.15.15.32.45.45a1.43 1.43 0 0 1 .57.35 1.05 1.05 0 0 0 .3.45c.2.2.22.26 0 .26h-.34a1 1 0 0 1-.6-.15 1.75 1.75 0 0 0-.68-.5 2.37 2.37 0 0 0-.6-.26c-.06 0 0 .1 0 .24a.45.45 0 0 0 .36.33.4.4 0 0 1 .27.43c0 .18 0 .3.16.3h.2c.1 0 0 .1-.1.4a.83.83 0 0 0-.15.64c0 .08-.13.1-.38.1h-.18a.68.68 0 0 1-.57-.14.48.48 0 0 0-.3-.3.63.63 0 0 0-.24-.1c-.06 0-.06.08 0 .32a.9.9 0 0 1-.9 1c-.68.1-.6.2.08.2h.6a2.44 2.44 0 0 1 .82.1.1.1 0 0 0 .1 0 .54.54 0 0 0 .3-.12.48.48 0 0 1 .16-.1v.14c-.1.26-.44.44-2.14 1.1-.23.1-.38.27-.3.4a.2.2 0 0 0 .15.08.42.42 0 0 0 .23-.1.42.42 0 0 1 .2-.13c.06 0 .06 0 .06.1s.07.1.2.1a1.23 1.23 0 0 0 .34-.07.58.58 0 0 0 .45-.3c0-.2.17-.3.4-.3a1 1 0 0 1 .66.26c.1.2.1.36 0 .36-.35 0-.2.33.2.42a.5.5 0 0 1 .36.6v.2l-.75-.12a3.92 3.92 0 0 0-1.66-.45c-.23 0-.38 0-.38.16v.45a.17.17 0 0 0 .08.2.1.1 0 0 1 .08 0 .93.93 0 0 1 .42.17 1.63 1.63 0 0 0 .75.26c.18 0 .33.06.33.18s.12.16.27.16h.24a.8.8 0 0 1 .38.08h.08a.06.06 0 0 0 .06 0 .82.82 0 0 0 0 .15c0 .1 0 .14-.06.14l-.15-.06a.26.26 0 0 0-.1 0 .15.15 0 0 0-.16.15c0 .1-.1.15-.3.15h-.3a7.3 7.3 0 0 1-.75-.1c-.1 0-.1-.08 0-.2a.62.62 0 0 0-.52-.4 8 8 0 0 1-1.46-1 3.5 3.5 0 0 0-.6-.48V96a.53.53 0 0 1 .15.53.1.1 0 0 0 .1.18c.15 0 .18.2.1.5s0 .44.15.44a1.2 1.2 0 0 0 .53-.18.68.68 0 0 1 .24-.1c.05 0 0 .07 0 .2a.6.6 0 0 0 .07.52c.2.27 0 .45-.4.45a1.8 1.8 0 0 1-.46-.08h-.25c-.18 0-.2.1-.15.4a.37.37 0 0 0 .3.38h.1a.77.77 0 0 1 .44.56.65.65 0 0 0 .26.44 1 1 0 0 0 .38-.24 1.55 1.55 0 0 1 .3-.24.55.55 0 0 1-.12.3.68.68 0 0 0-.18.57.92.92 0 0 0 .2-.24.62.62 0 0 1 .25-.25v.23a.32.32 0 0 0 .2.33c.1 0 .16.1.1.22a.3.3 0 0 1-.26.12.4.4 0 0 1-.15 0h-.12a1.13 1.13 0 0 0-.57.18.78.78 0 0 1-.42.2 1.34 1.34 0 0 1-.6-.3 1.55 1.55 0 0 0-.7-.27h-.1a.24.24 0 0 0-.16.3.3.3 0 0 0 .3.14c.15 0 .23.1.15.2s0 .12 0 .12a.75.75 0 0 0 .22 0 .7.7 0 0 1 .2 0 .15.15 0 0 1 .2.1.3.3 0 0 1-.22.27c-.14 0-.1.2.12.37s.3.36.1.6-.18.3 0 .3a.78.78 0 0 0 .5-.23.3.3 0 0 1 .15-.1c.1 0 .06.2-.12.47a.24.24 0 0 1-.2.16 2.67 2.67 0 0 1-.9-.45 2.73 2.73 0 0 0-1-.4.1.1 0 0 0-.12 0 .87.87 0 0 0 .45 1.1c.3 0 .3 0 0 .18s-.24.2 0 .23h.42c.08 0 .06.1 0 .22a.6.6 0 0 1-.6.2h-.24a2.2 2.2 0 0 0-1.1.24 1 1 0 0 1-.46.2.12.12 0 0 1-.1 0 .08.08 0 0 0-.05 0 .17.17 0 0 0-.1.2.45.45 0 0 0 .24.4c.1.05.08.1-.2.1a.36.36 0 0 0-.4.3.2.2 0 0 0 .23.24h.27l.3-.06q.1 0 0 0c-.15.1-.06.27.35.7s.75 1.04.45 1.04a6.8 6.8 0 0 1-.9-.57 2.83 2.83 0 0 0-1.1-.56.1.1 0 0 0-.1.12 1 1 0 0 0 .34.4c.15.12.2.2.18.2h.08a.3.3 0 0 0-.15.3v.25a.3.3 0 0 0 .15-.1.4.4 0 0 1 .26-.1c.18 0 .2.17 0 .38s-.14.24.1.24a.25.25 0 0 1 .3.2.26.26 0 0 0 .26.18.25.25 0 0 1 .3.2.24.24 0 0 1-.27.16.45.45 0 0 0-.4.3.55.55 0 0 1-.52.27.48.48 0 0 1-.42-.18.33.33 0 0 0-.22-.18c-.1 0-.17.2-.1.48s.14.42.3.42h.26a.33.33 0 0 1 .33.3.88.88 0 0 0 .6.75.3.3 0 0 0 .23-.42.38.38 0 0 1 .15-.12v.23s-.1.3 0 .3h.27a1 1 0 0 1 .6.37 1.63 1.63 0 0 0 .87.45.35.35 0 0 1 .38.18 1.6 1.6 0 0 1-1.32.4 1.37 1.37 0 0 1-.65-.1.48.48 0 0 0-.25-.16l-.4-.15a5.36 5.36 0 0 0-1.37-.28h-.15a2.07 2.07 0 0 0 .53.56l.53.45-.57.12-.54.15.6.24c.6.26.6.63 0 .63a.33.33 0 0 0-.4.2.18.18 0 0 0 .22.15 1.3 1.3 0 0 0 .57-.2.75.75 0 0 1 .34-.1.3.3 0 0 1 .2.06c.12.15 0 .24-.5.3-.77.15-.92.36-.62.9a1.17 1.17 0 0 1 .2.6s0 .1.16.1H161.2c.13 0 .22 0 .22.08a.15.15 0 0 0 .15.12h.13a.15.15 0 0 1 .1.2.18.18 0 0 0 .16.2c.32 0 .2.32-.2.55a.86.86 0 0 1-.42.1 2.12 2.12 0 0 1-1.46-.8 1.2 1.2 0 0 0-.68-.44c-.18 0-.26.22-.15.6a1.63 1.63 0 0 0 .4.82c.28.2.25.27-.1.5s-.4.36.6.4a.75.75 0 0 1 .62.44.74.74 0 0 0 .45.4.33.33 0 0 1 .27.22.2.2 0 0 0 .22.12h.15c.3-.08.3-.2.15-.38s-.14-.23.06-.23h.12c.3 0 .35.08.15.56s-.2.5-.48.5H161.02a.5.5 0 0 0-.36.1 1.5 1.5 0 0 0 1.13.34.56.56 0 0 0 .26 0 .15.15 0 0 1 .08 0 .18.18 0 0 1 .15.15.15.15 0 0 0 .14.15.78.78 0 0 0 .33-.15 1.26 1.26 0 0 1 .6-.1 1.28 1.28 0 0 1 .33 0 7 7 0 0 0 1.4.14c1 0 1.05.22.15.4a1.75 1.75 0 0 0-.75.4.87.87 0 0 1-.57.26.3.3 0 0 0-.35.18c0 .1.1.15.26.15h.44c.15 0 .24 0 .24.08a.15.15 0 0 0 .18.12.37.37 0 0 0 .18-.4v-.44l.3.45a.7.7 0 0 0 .5.34h.06a.36.36 0 0 1 .15 0c.2 0 .14.23-.12.38-.08.06-.08.06 0 .06h.44c.15 0 .17.08.12.23s0 .2 0 .2a.27.27 0 0 0 .15-.1 1 1 0 0 1 .44-.14.2.2 0 0 1 .2.23.23.23 0 0 0 .22.2.48.48 0 0 0 .42-.35.5.5 0 0 1 .57-.3h.24c.25 0 .4 0 .4-.1a.67.67 0 0 1 .54-.1 3.5 3.5 0 0 0 .9-.13.72.72 0 0 1 .2 0c.2 0 .24.24.34 1.14a18.74 18.74 0 0 1 0 2.53l-.12 1.24h.75c.7 0 .72 0 .6-.5a27.6 27.6 0 0 1-.47-3.92c0-.54 0-.75.38-.75a3.9 3.9 0 0 1 .76.15q.26 0 .3-.45c0-.35.1-.5.2-.5a.84.84 0 0 1 .36.53 1.1 1.1 0 0 0 .38.53 1.26 1.26 0 0 1 .4.12.63.63 0 0 0 .28 0 .83.83 0 0 0 .4-.12c.3-.15.27-.2-.26-.3s-.87-.45-.42-.45a.12.12 0 0 0 .08-.2c-.1-.12-.1-.18 0-.18a1.43 1.43 0 0 1 .66.45 1 1 0 0 0 .63.35.6.6 0 0 0 .3-.27zm5.33-12.63a1.05 1.05 0 0 0 .44-.3.1.1 0 0 1 .12 0 .9.9 0 0 1 .6.68.76.76 0 0 1-.65.18h-.1c-.76-.05-1-.34-.4-.57zm-1.7 5.57a8.68 8.68 0 0 1 1.05-.1c.23 0 .3 0 .2.14a1.93 1.93 0 0 1-1.05.3c-.18 0-.33 0-.33-.1a.24.24 0 0 1 .13-.23zm-1.37 1.73a.3.3 0 0 1 .2.18c.1.1 0 .18-.07.18a.2.2 0 0 1-.2-.2c-.02-.1.03-.16.07-.16zm-12.27-17.38h-.2c-.22 0-.2-.15 0-.45a.3.3 0 0 1 .26-.15.3.3 0 0 1 .3.3.52.52 0 0 1-.36.3zm-1.28 4.8c.36 0 .38.06.15.2a.9.9 0 0 1-.42.16.15.15 0 0 1-.1-.15.36.36 0 0 1 .38-.23zm-1.32 7.68a.2.2 0 0 1-.2-.18q0-.18.08-.18a.3.3 0 0 1 .2.2c.07.07.02.16-.08.16zm.33-1.13a.7.7 0 0 1-.4.15 3.48 3.48 0 0 1-1.04-.3c-1-.4-1.16-.56-.56-.7h.24a1.28 1.28 0 0 1 .7.22 1.28 1.28 0 0 0 .62.18h.27a.27.27 0 0 1 .16.45zm-.78 6.5c0 .06 0 .06-.15.06a.65.65 0 0 1-.45-.15c0-.06 0-.1.1-.1h.16a.67.67 0 0 1 .36.14zm1.5.92a9 9 0 0 1-1.43-.1.45.45 0 0 0 .32-.27h.26a2.13 2.13 0 0 1 1.05.23.88.88 0 0 0 .2.15 2.28 2.28 0 0 1-.42 0zm1.25-11.54c-.32 0-.32 0-.1.2.2.1.18.15 0 .15a9.83 9.83 0 0 1-1.54-.25c-1.66-.36-2.6-1.6-1.2-1.63h.1a.27.27 0 0 1 .2.33q0 .27.27.27h.2a.3.3 0 0 1 .33.15.1.1 0 0 0 .1.1h.07a.2.2 0 0 1 .1 0 .2.2 0 0 1 .2.1.24.24 0 0 0 .22.1.93.93 0 0 0 .68-.36.2.2 0 0 1 .12-.1v.15a.45.45 0 0 1-.3.35.23.23 0 0 0-.15.3.15.15 0 0 0 .15.08.3.3 0 0 0 .2-.08.38.38 0 0 1 .26-.1.45.45 0 0 1 .24.07c.16.16.17.2-.14.2zM167 99.1a.24.24 0 0 1 .23.18.18.18 0 0 1-.2.2c-.17 0-.3-.05-.26-.14a.3.3 0 0 1 .23-.24zm-.33 2.24a.3.3 0 0 1 .2-.1.35.35 0 0 1 .3.5.45.45 0 0 1-.3.22.36.36 0 0 1-.18-.62zm1.05 20.48a5.22 5.22 0 0 1-.66 0 4.27 4.27 0 0 1-.72 0 .57.57 0 0 0 .15-.15.8.8 0 0 0 .47.12 2.14 2.14 0 0 0 .75-.16.6.6 0 0 0 .02.18zm-.2-3.54c-.15 0-.2-.1-.15-.2a.36.36 0 0 1 .27-.18h.07a.15.15 0 0 1 .12.18.28.28 0 0 1-.27.2zm.53-16.7a.2.2 0 0 1-.2-.18c0-.12 0-.18.07-.18a.3.3 0 0 1 .18.18.1.1 0 0 1 0 .18zm1.6-8.84h.3c.22 0 .3.06.3.15 0 .14 0 .22-.14.22a3 3 0 0 1-.6-.15c-.42-.13-.42-.13.2-.22zm.88 25a.4.4 0 0 1-.27.2c-.27 0-.2-.12.1-.27h.13c.1-.06.12-.02.06.04zm1.9-21.85a.24.24 0 0 1-.2-.1c-.08-.1 0-.2.17-.2a.36.36 0 0 1 .3.08.24.24 0 0 1-.24.18zM175 97.7a2.32 2.32 0 0 1-.9.3c-.2 0-.2-.06.1-.12s.4-.15.34-.24.15-.2.45-.24h.4c.23-.05.1.05-.4.3zm.5 2.38a.2.2 0 0 1 .2.2c0 .1 0 .15-.08.15a.3.3 0 0 1-.2-.15c-.06-.13-.03-.2.1-.2z"/><path class="cls-2" d="M169 86.17c0 .06.08.1.23.1a1.12 1.12 0 0 0 .26 0 .52.52 0 0 0 .44-.3.12.12 0 0 0-.15-.07h-.16a2 2 0 0 1-.48.15.15.15 0 0 0-.16.12zM166.12 91.24c-.18 0-.17.15.08.57a.42.42 0 0 0 .3.3.1.1 0 0 0 .08 0 .85.85 0 0 0-.46-.86zM171.76 84.3a3.1 3.1 0 0 0-.68-.1h-.27c-.35 0-.3.07-.05.25.2.15.3.2.24.2l-.27-.07a1 1 0 0 0-.24-.06c-.07 0 0 .08.1.26a2.33 2.33 0 0 0 .3.3 4.55 4.55 0 0 0 .86-.8zM171.45 83.9c.4 0 .4 0 .1-.08-.5-.15-.7-.45-.46-.75s.14-.24 0-.24a.2.2 0 0 0-.24.18.12.12 0 0 1-.15.1h-.14a.57.57 0 0 0-.18-.07c-.1 0 0 .12.2.45a1 1 0 0 0 .8.48zM163.2 122.1a.45.45 0 0 0-.18 0 .27.27 0 0 0-.18.05c-.06.06.06.1.24.1.22-.04.27-.1.12-.16zM170.86 80.2a.66.66 0 0 0-.08.52.36.36 0 0 0 .22.28.67.67 0 0 0 .1-.53.37.37 0 0 0-.1-.35.18.18 0 0 0-.14.07zM171 82.37a.12.12 0 0 0 .08 0c.24-.14 0-.65-.3-.65-.35 0-.35.2 0 .5a.4.4 0 0 0 .22.15z"/><g><path class="cls-2" d="M63 119.82H160.65a1.54 1.54 0 0 1-.4-.45.3.3 0 0 0-.26-.15c-.8 0-1.14-.06-1.3-.45a.63.63 0 0 1 .42-.7 2.44 2.44 0 0 1-.45-.94 1.26 1.26 0 0 1 .15-.93.6.6 0 0 1 .48-.23 1.5 1.5 0 0 1 1 .6 1.64 1.64 0 0 0 1.13.63h.12a.63.63 0 0 1-.08-.15.6.6 0 0 1-.3-.2 1.1 1.1 0 0 1-.26 0 .6.6 0 0 1-.5-.2.5.5 0 0 1-.1-.4 1.15 1.15 0 0 0-.12-.3 1.2 1.2 0 0 1-.12-1 .6.6 0 0 1 .18-.94l-.3-.1a.45.45 0 0 1 .06-.9l.23-.06a1 1 0 0 1-.53-.75.5.5 0 0 1 .6-.5 5.78 5.78 0 0 1 1.5.3 1.36 1.36 0 0 0 .34.1.93.93 0 0 1 .45.26 1.2 1.2 0 0 0 .32 0 2.2 2.2 0 0 1-.3-.26.83.83 0 0 0-.27-.2.84.84 0 0 1-.3.07.5.5 0 0 1-.48-.33 1.45 1.45 0 0 1-.86-1h-.14a.76.76 0 0 1-.75-.8 1.33 1.33 0 0 1 0-.3h-2.37v-6l5.72-14.45h-5.42L155 98.5l-2.77-9.34h-5.5l5.68 14.45v6h-5.08V107h-6V89.18h-5.12v20.4h-3.9l-5-10.1 5.7-10.3h-5.68l-4.64 9.4h-.08v-9.42h-5.12v20.42h-3.6v-2.4h-6.4v-4.87H113v-4.2h-5.5v-4.42h6v-4.5h-10.9v20.4H99v-2.4h-6.4v-4.87h5.54v-4.2H92.6v-4.42h6v-4.5H87.76v20.4H81l3.84-20.42h-4.92l-2.3 15.75h-.08L75 89.2h-4.9L67.6 104.9h-.15L65.2 89.17H60l3.82 20.42H63v10.24zm85.6-8.55h2.94a4.72 4.72 0 0 1 1 .1 2.6 2.6 0 0 1 .9.4 2 2 0 0 1 .63.7 2.62 2.62 0 0 1 0 2.18 2.06 2.06 0 0 1-.63.75 2.6 2.6 0 0 1-.9.4 4.3 4.3 0 0 1-1 .1h-.65v2.2h-2.3v-6.8zm-6.25 0h2.32v4.85h2.26v2h-4.63v-6.82zm-8.52 0h2.3v3.88a1.14 1.14 0 0 0 .23.78 1 1 0 0 0 1.34 0 1.14 1.14 0 0 0 .23-.75v-3.9h2.26v4.13a3.06 3.06 0 0 1-.22 1.15 2.5 2.5 0 0 1-.6.9 2.86 2.86 0 0 1-1 .6 4.07 4.07 0 0 1-1.4.2 4 4 0 0 1-1.4-.2 2.78 2.78 0 0 1-1-.6 2.4 2.4 0 0 1-.56-.9 3.25 3.25 0 0 1-.2-1.14v-4.13zm-4.52 0a4.72 4.72 0 0 1 1 .1 2.6 2.6 0 0 1 .9.4 2 2 0 0 1 .64.7 2.62 2.62 0 0 1 0 2.18 2.06 2.06 0 0 1-.63.75 2.6 2.6 0 0 1-.9.4 4.3 4.3 0 0 1-1 .1h-.64v2.2h-2.3v-6.8h3zm-6.68-10h.1l3.82 8.33h-3.9v-8.33zm-8.84 14.3a1.88 1.88 0 0 1 .22-.57 2.1 2.1 0 0 1 .4-.4 2.56 2.56 0 0 1 .54-.3 2.26 2.26 0 0 1-.48-.6 1.63 1.63 0 0 1-.18-.8 1.5 1.5 0 0 1 .23-.83 1.8 1.8 0 0 1 .58-.56 2.6 2.6 0 0 1 .8-.3 3.9 3.9 0 0 1 .85-.1 3.58 3.58 0 0 1 .84.1 2.4 2.4 0 0 1 .75.3 1.78 1.78 0 0 1 .54.6 1.63 1.63 0 0 1 .23.85 1.5 1.5 0 0 1-.12.57 1.66 1.66 0 0 1-.3.48 2.47 2.47 0 0 1-.4.38 4.67 4.67 0 0 1-.52.3l.45.45.55-.75h2.4l-1.65 2 1.85 1.75h-2.7l-.5-.5a2.53 2.53 0 0 1-.77.45 3.27 3.27 0 0 1-1.14.18 4.15 4.15 0 0 1-1-.12 2.7 2.7 0 0 1-.86-.36 2 2 0 0 1-.6-.65 1.87 1.87 0 0 1-.26-1 1.73 1.73 0 0 1 .22-.62zm-11.1-4.26h3a5 5 0 0 1 1 .1 2.5 2.5 0 0 1 .9.35 2 2 0 0 1 .6.7 2.17 2.17 0 0 1 .26 1.04 1.93 1.93 0 0 1-1.2 1.83l1.75 2.77h-2.66l-1.34-2.45h-.1v2.44h-2.26v-6.83zm-6.75 0h4.67v1.94h-2.5v.6h2.37v1.76H98.1v.63h2.7v1.9h-4.9v-6.82zm-7.65 0H91a6.7 6.7 0 0 1 .9.07 2.9 2.9 0 0 1 .84.26 1.7 1.7 0 0 1 .65.54 1.6 1.6 0 0 1 .25.95 1.45 1.45 0 0 1-.27.9 1.63 1.63 0 0 1-.72.53 1.84 1.84 0 0 1 .45.2 1.7 1.7 0 0 1 .43.3 1.4 1.4 0 0 1 .4 1.05 1.8 1.8 0 0 1-.25.95 1.84 1.84 0 0 1-.6.6 2.56 2.56 0 0 1-.86.35 4.7 4.7 0 0 1-1 .1h-2.97v-6.83zm-10.66 0h3l1.18 3.7h.06l1.08-3.67H86v6.82h-2.23l.08-3.84-1.28 3.86h-1.6l-1.26-3.85.12 3.86H77.6v-6.82zm-2.23 0v6.83H73v-6.82h2.33zm-3-14.67h.07l2.38 12.95H70zm-6.63 14.66h5.65v2h-1.7v4.87h-2.34v-4.88h-1.66v-2z"/><path class="cls-2" d="M91.4 113.8a.4.4 0 0 0 .16-.35.3.3 0 0 0-.15-.3.86.86 0 0 0-.44-.08h-.55v.83h.6a.66.66 0 0 0 .4-.1zM151.83 114a.45.45 0 0 0 .2-.42.53.53 0 0 0-.05-.27.42.42 0 0 0-.15-.17.72.72 0 0 0-.23-.08h-.74v1.08h.48a.9.9 0 0 0 .5-.13zM129.56 114.08a.45.45 0 0 0 .2-.45.53.53 0 0 0 0-.26.42.42 0 0 0-.14-.18.72.72 0 0 0-.23-.1h-.8v1.12h.48a.9.9 0 0 0 .48-.14zM105.6 114.14a.78.78 0 0 0 .25-.08.6.6 0 0 0 .2-.18.48.48 0 0 0 .1-.3.54.54 0 0 0-.1-.3.45.45 0 0 0-.17-.15.68.68 0 0 0-.23-.08h-.8v1.08h.44zM91.7 115.84a.33.33 0 0 0-.07-.23.54.54 0 0 0-.18-.14.78.78 0 0 0-.23-.06h-.82v.9h.7a.75.75 0 0 0 .46-.12.4.4 0 0 0 .15-.34zM116 116.4a.63.63 0 0 0 .23.1h.23a1 1 0 0 0 .33-.05.57.57 0 0 0 .23-.15l-.84-.86a.68.68 0 0 0-.27.2.5.5 0 0 0-.15.36.45.45 0 0 0 .08.24.53.53 0 0 0 .14.16zM116.72 113.57a1 1 0 0 0 .36-.23.5.5 0 0 0 0-.66.4.4 0 0 0-.33-.12.4.4 0 0 0-.3.15.45.45 0 0 0-.12.3.54.54 0 0 0 .1.3 1.13 1.13 0 0 0 .3.27z"/></g></g></svg>