<svg id="Layer_1" data-name="Layer 1" xmlns="http://www.w3.org/2000/svg" viewBox="0 0 183.69 127.18" width="183.69" height="127.18">
  <defs>
    <style>
      .cls-1 {
        fill: #23852b;
      }

      .cls-2 {
        fill: #fff;
      }

      @media screen and (min-width: 300px){
        #logo .cls-2{
          fill: #197f21;
        }
      }
    </style>
  </defs>
  <title>sprite</title>
  <path class="cls-1" d="M60,70.11l-0.08,0a0.41,0.41,0,0,0-.39-0.26,1,1,0,0,0-.28.07l-0.75.18-0.26,0,0.06-.08a0.54,0.54,0,0,0,.06-0.26l0.19-.13a0.77,0.77,0,0,0,.62-0.61A0.21,0.21,0,0,0,59.22,69a1.61,1.61,0,0,0,.44-0.95,2,2,0,0,0,0-.24,0.42,0.42,0,0,0-.43-0.4,0.56,0.56,0,0,0-.45.33l-0.06.05V67.76a0.66,0.66,0,0,0-.19-0.43,1.46,1.46,0,0,1,.26-0.53,1.35,1.35,0,0,0,.44-1.08l0.09-.7a0.4,0.4,0,0,0-.08-0.3l0.05-.07a0.77,0.77,0,0,0-.09-1.09,0.72,0.72,0,0,1-.13-0.5,0.4,0.4,0,0,1,.08-0.26A0.66,0.66,0,0,0,59.36,62a0.51,0.51,0,0,0-.45-0.26,1.86,1.86,0,0,0-1,.53,0.54,0.54,0,0,0,0-.33A0.43,0.43,0,0,0,58,61.31a0.88,0.88,0,0,0,.18-1,0.51,0.51,0,0,0-.44-0.22,1.35,1.35,0,0,0-.77.33h0a3.1,3.1,0,0,1-.49.37,2.27,2.27,0,0,0-.65.34,2.56,2.56,0,0,1-.41.22,1,1,0,0,0,.15-0.3l0.13,0a0.75,0.75,0,0,0,.77-0.55l0.06,0A0.68,0.68,0,0,0,57,60.12a0.48,0.48,0,0,0,0-.09,0.47,0.47,0,0,0,.13-0.13,0.5,0.5,0,0,0,.05-0.22,0.87,0.87,0,0,0,.3-0.46,1.21,1.21,0,0,0,0-.45,0.52,0.52,0,0,0,.39-0.5,0.56,0.56,0,0,0-.57-0.55h0a1.41,1.41,0,0,0-1,.46,13.64,13.64,0,0,1-1.52.92,1.19,1.19,0,0,0,.26-0.47,0.21,0.21,0,0,1,0-.11,0.64,0.64,0,0,0,.58-0.29,0.47,0.47,0,0,0,0-.43,0.18,0.18,0,0,1,.05-0.08,0.49,0.49,0,0,0,.49-0.3,0.4,0.4,0,0,0,0-.33,1.18,1.18,0,0,0,.3-0.4,0.73,0.73,0,0,0,.08-0.9,0.38,0.38,0,0,0-.31-0.13,3.4,3.4,0,0,0-1.33.79,4.77,4.77,0,0,1-1.7.63A0.68,0.68,0,0,0,53,56.79a0.67,0.67,0,0,0,0-.13,1.05,1.05,0,0,0,.36-0.22,0.67,0.67,0,0,0,.19-0.63l0-.09a0.59,0.59,0,0,0,.21,0A2.08,2.08,0,0,0,55,55.26a0.4,0.4,0,0,0,.09-0.45,0.55,0.55,0,0,0-.56-0.29H54.4l0-.09a0.59,0.59,0,0,0,0-.42,0.91,0.91,0,0,0,.23-0.66A0.5,0.5,0,0,0,55,52.93a0.45,0.45,0,0,0,0-.11l0.05-.08a0.73,0.73,0,0,0-.13-0.69,0.91,0.91,0,0,0-.68-0.49,0.65,0.65,0,0,0-.59.61,0.16,0.16,0,0,1,0,.05,1.63,1.63,0,0,0-.84.53l-0.09.07-0.13,0a1.08,1.08,0,0,0-.39.07,1.2,1.2,0,0,0,.22-0.22l0.09-.13a1.38,1.38,0,0,0,.41-0.16,0.56,0.56,0,0,0,.41-0.62,0.43,0.43,0,0,0-.41-0.32,1,1,0,0,1,.26-0.53,0.75,0.75,0,0,0,.18-0.72l0-.08a0.51,0.51,0,0,0,0-.47A0.39,0.39,0,0,0,53,49.42H52.88a0.84,0.84,0,0,0,.1-0.26,0.42,0.42,0,0,0,.17-0.21A0.49,0.49,0,0,0,53,48.37a0.56,0.56,0,0,0-.39-0.16,1.49,1.49,0,0,0-.84.47,3.73,3.73,0,0,1-1,.66,0.72,0.72,0,0,1,.13-0.13A2.74,2.74,0,0,0,52,48a0.46,0.46,0,0,0,.08-0.53,0.41,0.41,0,0,0-.39-0.22,1.61,1.61,0,0,0-.65.22l-0.21.09a0.52,0.52,0,0,0,0-.2V47.29a1,1,0,0,0,1-.62,0.61,0.61,0,0,0,0-.26,0.44,0.44,0,0,0,.06-0.11,0.43,0.43,0,0,0-.09-0.47,0.45,0.45,0,0,0-.34-0.13h0A0.87,0.87,0,0,0,51.77,45c0-.53-0.28-0.62-0.45-0.62a1.28,1.28,0,0,0-.68.4,2.37,2.37,0,0,1-.52.36,1.18,1.18,0,0,0-.26.05l0-.11A1.93,1.93,0,0,1,50,44.59a0.68,0.68,0,0,0,.52-0.5A0.39,0.39,0,0,1,50.7,44a0.69,0.69,0,0,0,.49-0.4,0.54,0.54,0,0,0,0-.47l0,0a0.54,0.54,0,0,0-.45-0.26,0.77,0.77,0,0,0-.49.22,2.93,2.93,0,0,1-.35.24,2.1,2.1,0,0,0,.28-0.32,0.69,0.69,0,0,0,.15-0.63V42.22A0.44,0.44,0,0,0,49.84,42l-0.18,0a0.36,0.36,0,0,0,0-.09,0.55,0.55,0,0,0-.46-0.59L49,41.23a0.56,0.56,0,0,0,.09-0.57,0.45,0.45,0,0,0-.06-0.13A0.64,0.64,0,0,0,49.12,40a0.88,0.88,0,0,0-.39-0.53,0.42,0.42,0,0,0,.17-0.09,1,1,0,0,0,.15-0.72c0-.18,0-0.7-0.45-0.7a0.49,0.49,0,0,0-.41.29,1,1,0,0,0-.09.82,1,1,0,0,0,.21.33,0.54,0.54,0,0,0-.45.32,0.78,0.78,0,0,0,.26.79l0,0a0.41,0.41,0,0,0-.39.22,0.75,0.75,0,0,0,.26.79l0.08,0.13a0.39,0.39,0,0,0-.17.2,0.43,0.43,0,0,0,0,.17l0,0.05a0.58,0.58,0,0,0,.13.57,0.43,0.43,0,0,0-.32.4H47.61a0.82,0.82,0,0,0-.26,0l-0.28.07a0.52,0.52,0,0,0-.52.53v0a0.51,0.51,0,0,0,.58.47h0.26a0.65,0.65,0,0,0-.26.26,1.26,1.26,0,0,0,.17,1.09,0.53,0.53,0,0,0-.1.18H47.06a1,1,0,0,0-.39-0.49,0.77,0.77,0,0,0-.43-0.17,0.41,0.41,0,0,0-.35.17,0.88,0.88,0,0,0,.06.79,2.17,2.17,0,0,0,.49.83,0.51,0.51,0,0,0,0,.26l0,0.08A1,1,0,0,0,46,47.12a0.42,0.42,0,0,0-.35.17,0.59,0.59,0,0,0,0,.53,0.78,0.78,0,0,0,.52.57,0.67,0.67,0,0,0,.22.53,1.74,1.74,0,0,0-.09.32H46.22L46,49.2a1.08,1.08,0,0,0-.35-0.33,0.82,0.82,0,0,0-.39-0.16,1,1,0,0,0,0-.13,1.1,1.1,0,0,0-.77-0.79,0.47,0.47,0,0,0-.43.22,0.89,0.89,0,0,0,.13.86,0.76,0.76,0,0,0,.61.46h0v0.13a0.27,0.27,0,0,1,0,.2,0.64,0.64,0,0,1-.39.22c-0.28,0-.77.11-0.74,0.53s0.52,0.43.86,0.43h0.23l-0.62.26a0.82,0.82,0,0,0-.52.47,0.51,0.51,0,0,0,.06.45h0a0.55,0.55,0,0,0,.39.26,0.51,0.51,0,0,0-.06.22v0.17l-0.31-.26A1.34,1.34,0,0,0,43,51.9a0.39,0.39,0,0,0-.39.24,0.43,0.43,0,0,0,.08.46,0.54,0.54,0,0,1,0,.11,0.5,0.5,0,0,0,0,.4,0.47,0.47,0,0,0,.17.2v0A0.78,0.78,0,0,0,43,54l0.09,0.11a0.49,0.49,0,0,0-.32.16,0.74,0.74,0,0,0-.1.62,0.68,0.68,0,0,0,.65.66,0.84,0.84,0,0,1,.1.22,0.82,0.82,0,0,0,.52.66,0.39,0.39,0,0,0,0,0l-0.06.05-0.13.08a1.35,1.35,0,0,1-.34-0.17,1.63,1.63,0,0,0-.8-0.29,0.6,0.6,0,0,0-.62.58,0.61,0.61,0,0,0,0,.08,0.52,0.52,0,0,0,.39.49,0.44,0.44,0,0,0,0,.09,0.43,0.43,0,0,0,.31.22,0.8,0.8,0,0,0,.21.4A1.73,1.73,0,0,0,42,57.66a0.46,0.46,0,0,0-.39.22h0A1.18,1.18,0,0,0,41.65,59a1.09,1.09,0,0,0,.15.21,0.38,0.38,0,0,0,0,.13,2.11,2.11,0,0,0-1,.26l-0.15.09a0.42,0.42,0,0,0-.17,0,0.49,0.49,0,0,0-.45.57,0.84,0.84,0,0,0,0,.16,0.66,0.66,0,0,0-.32.57,0.64,0.64,0,0,0,.08.32h0a0.48,0.48,0,0,0-.49.47s0,0,0,0a0.64,0.64,0,0,0,.26.49,0.94,0.94,0,0,0,0,.21,0.67,0.67,0,0,0,.1.53,0.41,0.41,0,0,0,.21.13,0.45,0.45,0,0,0,0,.13,0.48,0.48,0,0,0,.44.26l0.09,0.11a0.79,0.79,0,0,0-.15.24H40a0.61,0.61,0,0,0-.52-0.3,0.46,0.46,0,0,0-.35.18,0.83,0.83,0,0,0-.1.71,0.66,0.66,0,0,0,.65.7h0.13a1.26,1.26,0,0,0,.74.88,0.44,0.44,0,0,0,.41.29,0.71,0.71,0,0,0,.26-0.07,0.71,0.71,0,0,1,.23.18,1.89,1.89,0,0,0,.26.22h0a1,1,0,0,1-.28,0A0.8,0.8,0,0,0,41,66.43a1.15,1.15,0,0,1-.28-0.09,4.87,4.87,0,0,0-1.29-.26,0.44,0.44,0,0,0-.52.43,0.91,0.91,0,0,0,.45.66l-0.19.05a0.4,0.4,0,0,0-.05.75l0.26,0.11a0.53,0.53,0,0,0-.28.46,0.53,0.53,0,0,0,.13.37,1.06,1.06,0,0,0,.1.84,1,1,0,0,1,.1.26,0.44,0.44,0,0,0,.09.33,0.51,0.51,0,0,0,.43.18l0.22,0a0.52,0.52,0,0,0,.26.17,0.56,0.56,0,0,0,.06.13l-0.1,0a1.39,1.39,0,0,1-1-.55,1.28,1.28,0,0,0-.86-0.53,0.51,0.51,0,0,0-.41.2,1.12,1.12,0,0,0-.13.82,2.15,2.15,0,0,0,.39.82,0.56,0.56,0,0,0-.35.62c0.13,0.34.43,0.36,1.1,0.4a0.26,0.26,0,0,1,.23.13v0a1.34,1.34,0,0,0,.32.4,0.52,0.52,0,0,0-.28.22,0.44,0.44,0,0,0,0,.45,1.92,1.92,0,0,0,1.29.46H40.9a0.51,0.51,0,0,0,.39.17,1,1,0,0,0,.48-0.16,0.81,0.81,0,0,1,.52,0,3.79,3.79,0,0,0,.57.09l-0.06.08a0.38,0.38,0,0,1-.21.09,0.74,0.74,0,0,0-.57.22H41.83a0.6,0.6,0,0,0-.43.13,0.43,0.43,0,0,0-.1.47,0.58,0.58,0,0,0,.57.29,0.72,0.72,0,0,0,.35-0.07,0.8,0.8,0,0,0,.26,0l0.23,0h0.06a0.55,0.55,0,0,0,.45.22,0.47,0.47,0,0,0,.39-0.2l0.09,0.07a0.39,0.39,0,0,0,.33.45H44.2a0.44,0.44,0,0,0,.05.13,0.42,0.42,0,0,0,.35.17,0.56,0.56,0,0,0,.31-0.11l0.06,0a0.57,0.57,0,0,0,.54.37,0.8,0.8,0,0,0,.72-0.58h0.35a0.85,0.85,0,0,0,.62-0.17h0.18a3.55,3.55,0,0,0,.8-0.11c0,0.13,0,.37.06,0.57a16.25,16.25,0,0,1,0,2.15l-0.09,1.08a0.39,0.39,0,0,0,.36.42h0.65A1,1,0,0,0,50,79.78a0.8,0.8,0,0,0,.09-0.7,25.07,25.07,0,0,1-.41-3.36V75.48a2.82,2.82,0,0,1,.49.09h0.13a0.57,0.57,0,0,0,.52-0.3,0.63,0.63,0,0,0,.52.43h0.06l0.19,0.07a0.91,0.91,0,0,0,.39.07,1.07,1.07,0,0,0,.52-0.13,0.78,0.78,0,0,0,.3-0.26h0.09a0.89,0.89,0,0,0,.34-0.07A0.77,0.77,0,0,0,53.72,75l0.52,0.07h0a0.39,0.39,0,0,0,.44-0.34,0.4,0.4,0,0,0-.34-0.45h0.08a0.63,0.63,0,0,0,.26.05,0.52,0.52,0,0,0,.52-0.5h0.94a0.77,0.77,0,0,0,.9-0.36,0.43,0.43,0,0,0,0-.33,1.39,1.39,0,0,0,.49-0.4,1.38,1.38,0,0,1,.21-0.21,0.55,0.55,0,0,0,.44-0.63,0.44,0.44,0,0,1,.28-0.26l0.17,0A1.36,1.36,0,0,0,59.59,71,0.89,0.89,0,0,0,60,70.11ZM41.84,75.27h0c-0.15,0-.26,0-0.21-0.08a0.23,0.23,0,0,1,.15-0.05,0.38,0.38,0,0,1,.15,0C42.07,75.22,42,75.27,41.84,75.27Zm6.6-33.05h0c-0.21-.16-0.26-0.21.05-0.21h0.23a2.61,2.61,0,0,1,.58.07,3.94,3.94,0,0,1-.71.69,2,2,0,0,1-.26-0.26c-0.13-.16-0.15-0.22-0.1-0.22l0.21,0.05,0.22,0.07S48.62,42.35,48.44,42.22ZM48.5,38.5h0a0.16,0.16,0,0,1,.09-0.09,0.33,0.33,0,0,1,.06.3,0.59,0.59,0,0,1-.08.46A0.32,0.32,0,0,1,48.44,39,0.59,0.59,0,0,1,48.5,38.5Zm-0.09,1.33h0c0.26,0,.46.45,0.26,0.57l-0.06,0a0.33,0.33,0,0,1-.23-0.13C48.11,40,48.11,39.83,48.41,39.83Zm-0.28,1.11,0,0L48.26,41h0.13A0.1,0.1,0,0,0,48.52,41a0.18,0.18,0,0,1,.19-0.16c0.13,0,.13.07,0,0.21s0,0.53.39,0.66c0.26,0.05.26,0.07-.08,0.08h0a0.81,0.81,0,0,1-.68-0.42C48.11,41,48.05,40.94,48.13,40.94Zm-0.81,2.87h0l-0.22,0c-0.13,0-.19,0-0.19-0.09A0.13,0.13,0,0,1,47,43.6a1.73,1.73,0,0,0,.41-0.13h0.13a0.1,0.1,0,0,1,.13.07h0A0.44,0.44,0,0,1,47.31,43.81Zm0.39,0.25v0h0Zm-2.87,4.85a0.08,0.08,0,0,1-.06,0,0.36,0.36,0,0,1-.26-0.26c-0.21-.37-0.22-0.5-0.06-0.5A0.75,0.75,0,0,1,44.84,48.91Zm1.07,3.28h0l-0.44-.13a0.71,0.71,0,0,0,.35-0.4h0.06a0.48,0.48,0,0,0-.05.17A0.54,0.54,0,0,0,45.91,52.19ZM57.48,62.54l-0.07.07,0-.07h0Zm-0.67.66-0.05.05v0Z"/>
  <path class="cls-2" d="M17,0H2A2.15,2.15,0,0,0,0,2V17a2.15,2.15,0,0,0,2,2H17a2.15,2.15,0,0,0,2-2V2A2.15,2.15,0,0,0,17,0ZM12.5,6H10.8l-0.3.3V7.8h2V10h-2v5H8V10H6.5V7.7H8.2v-1a2.79,2.79,0,0,1,.8-2,2.34,2.34,0,0,1,1.8-.8h1.7V6Z"/>
  <path class="cls-2" d="M36,19H21a2.15,2.15,0,0,0-2,2V36a2.15,2.15,0,0,0,2,2H36a2.15,2.15,0,0,0,2-2V21A2.15,2.15,0,0,0,36,19ZM32.2,33.6a1.28,1.28,0,0,1-1,.4H28.5a4.8,4.8,0,0,1-3-1.2,4.36,4.36,0,0,1-1-3V24.5a1.21,1.21,0,0,1,.3-1,1.28,1.28,0,0,1,1-.4,1,1,0,0,1,1,.4,1.69,1.69,0,0,1,.3,1v2h4a1,1,0,0,1,1,.4,1.49,1.49,0,0,1,.3,1,0.87,0.87,0,0,1-.4.8,1.78,1.78,0,0,1-1,.4H27v1a1.39,1.39,0,0,0,.5,1,1.28,1.28,0,0,0,1,.4h2.7a1,1,0,0,1,1,.4,1.28,1.28,0,0,1,.4,1,0.87,0.87,0,0,1-.4.8V33.6Z"/>
  <g>
    <path class="cls-2" d="M48.52,38.5h0a0.59,0.59,0,0,0-.06.46,0.32,0.32,0,0,0,.15.21,0.59,0.59,0,0,0,.08-0.46,0.33,0.33,0,0,0-.06-0.3A0.16,0.16,0,0,0,48.52,38.5Z"/>
    <path class="cls-2" d="M46.9,43.73c0,0.05.06,0.09,0.19,0.09l0.22,0h0a0.44,0.44,0,0,0,.39-0.26h0a0.1,0.1,0,0,0-.13-0.07H47.44a1.73,1.73,0,0,1-.41.13A0.13,0.13,0,0,0,46.9,43.73Z"/>
    <path class="cls-2" d="M53.06,75c0.32-.13.3-0.13,0-0.13a0.38,0.38,0,0,1-.35-0.18,0.4,0.4,0,0,1,.39-0.11l0.39,0,0.77,0.08-0.62-.2c-0.59-.18-0.79-0.45-0.36-0.45H53.5A1.39,1.39,0,0,0,54,74a0.84,0.84,0,0,1,.32-0.05,0.56,0.56,0,0,1,.18,0,0.29,0.29,0,0,0,.13,0q0.13,0,.13-0.22c0-.22.13-0.3,0.77-0.3h0.57c0.52,0,.62,0,0.46-0.13s-0.17-.53,0-0.53a0.22,0.22,0,0,1,.1,0h0.06a0.75,0.75,0,0,0,.43-0.3,0.9,0.9,0,0,1,.41-0.33h0a0.25,0.25,0,0,0,.1-0.26,0.77,0.77,0,0,1,.67-0.66l0.13,0h0a1.16,1.16,0,0,0,.65-0.5V70.9c0.26-.4.36-0.53,0.26-0.53l-0.21.05-0.77.17-0.7.16H57.73a0.51,0.51,0,0,1-.39-0.18,0.32,0.32,0,0,0-.26-0.13,1.32,1.32,0,0,0-.45.13,1.52,1.52,0,0,1-.58.13,0.69,0.69,0,0,1-.26-0.05c-0.27-.11-0.25-0.17.05-0.17h0.31a1,1,0,0,0,.62-0.32,0.49,0.49,0,0,1,.34-0.22,0.26,0.26,0,0,1,.17.08,0.48,0.48,0,0,0,.3.09c0.22,0,.41-0.11.32-0.26a0.7,0.7,0,0,1,.44-0.42,0.65,0.65,0,0,0,.39-0.26c-0.08,0,0-.17.21-0.36a1.28,1.28,0,0,0,.32-0.71c0-.16,0-0.24-0.05-0.24a0.46,0.46,0,0,0-.13.17,1.32,1.32,0,0,1-1.08.5,1.85,1.85,0,0,1-.54-0.08,0.87,0.87,0,0,1-.58-0.4c0-.14.05-0.21,0.15-0.21a0.42,0.42,0,0,1,.26.13,0.53,0.53,0,0,0,.32.08,0.83,0.83,0,0,0,.72-0.24,0.36,0.36,0,0,0-.15-0.22,1.16,1.16,0,0,1,.45-1.09,2.15,2.15,0,0,0,.22-0.79L59,65l-0.67.66a4.75,4.75,0,0,1-1.25.9,1.65,1.65,0,0,1-.52.17c-0.1,0-.13,0-0.18-0.17s0-.2.05-0.2l0.1,0,0.13,0a0.23,0.23,0,0,0,.1-0.43c-0.09-.07-0.1-0.09,0-0.09l0.26,0L57.23,66c0.14,0,.18-0.08.18-0.26s0.06-.45.23-0.45a0.74,0.74,0,0,1,.3.11,1.11,1.11,0,0,0,.26.09s0,0-.1-0.13c-0.23-.25-0.26-0.46-0.1-0.46l0.13,0,0.13,0h0a0.1,0.1,0,0,0,.11-0.1,0.1,0.1,0,0,1,.1-0.11l0.1,0h0.05A0.49,0.49,0,0,0,59,64.48a0.42,0.42,0,0,0,0-.63,1.05,1.05,0,0,1,0-1.32,0.37,0.37,0,0,0,.15-0.35h0A0.13,0.13,0,0,0,59,62.11a3.81,3.81,0,0,0-1.64,1.21,2.59,2.59,0,0,1-1,.83q-0.15,0-.15-0.26c0-.12,0-0.18.09-0.18l0.05,0h0.06a0.21,0.21,0,0,0,.15-0.17,0.27,0.27,0,0,0,0-.19,0.44,0.44,0,0,0-.09-0.1,0.24,0.24,0,0,0,0-.05A0.35,0.35,0,0,1,56.13,63a0.13,0.13,0,0,1,.13-0.11l0.13,0h0.1c0.32,0,.86-0.47.62-0.63s-0.21-.33-0.08-0.33a0.51,0.51,0,0,1,.26.08,0.8,0.8,0,0,0,.26.11c0.05,0,0-.05,0-0.16a0.27,0.27,0,0,1,.09-0.33c0.12-.05.08-0.09-0.05-0.09a0.26,0.26,0,0,1-.26-0.26,0.17,0.17,0,0,1,.13-0.2l0.06,0h0.05a0.26,0.26,0,0,0,.22-0.18c0.1-.26.06-0.4-0.1-0.4a1,1,0,0,0-.56.26,2.48,2.48,0,0,1-.65.4,2.26,2.26,0,0,0-.52.29,2.48,2.48,0,0,1-1,.45c-0.06,0-.1,0-0.06-0.09s0-.17-0.21-0.17-0.26,0,.06-0.26a0.93,0.93,0,0,0,.36-0.49,0.53,0.53,0,0,1,.44-0.26A0.39,0.39,0,0,0,56,60.37a0.41,0.41,0,0,1,.39-0.3c0.19,0,.32-0.14.26-0.21s0-.13.09-0.13a0.09,0.09,0,0,0,.11,0,0.09,0.09,0,0,0,0-.13c-0.05-.11,0-0.17.05-0.17,0.27,0,.4-0.7.17-0.83s-0.13-.16.13-0.16a0.35,0.35,0,0,0,.36-0.16,0.18,0.18,0,0,0-.22-0.17,1,1,0,0,0-.67.36A13.59,13.59,0,0,1,54,59.88a0.46,0.46,0,0,1-.17-0.22,0.52,0.52,0,0,1,.39-0.53,1,1,0,0,0,.56-0.66,0.45,0.45,0,0,1,.43-0.4c0.19,0,.3-0.07.26-0.16a0.47,0.47,0,0,1,.36-0.66c0.22,0,.22-0.05-0.06-0.26s-0.28-.22-0.21-0.22l0.19,0,0.09,0a0.61,0.61,0,0,0,.43-0.36A0.55,0.55,0,0,0,56.34,56a3.23,3.23,0,0,0-1,.66,4.77,4.77,0,0,1-2.19.79c-0.15,0-.22,0-0.15-0.13s-0.06-.2-0.19-0.26-0.17-.16-0.13-0.22a0.33,0.33,0,0,0-.09-0.33c-0.12-.16-0.1-0.21.1-0.21a0.79,0.79,0,0,0,.48-0.21c0.25-.21,0-0.53-0.48-0.66-0.25-.07-0.21-0.09.09-0.09h0.19a1.32,1.32,0,0,0,.3,0,3.88,3.88,0,0,1,.48-0.09,1.9,1.9,0,0,0,1.08-.32s0-.07-0.21-0.07a3.08,3.08,0,0,0-.45,0l-0.46,0c-0.19,0-.3,0-0.3-0.09a0.21,0.21,0,0,1,.22-0.18c0.31,0,.65-0.43.44-0.57s-0.1-.18.06-0.34a0.48,0.48,0,0,0,.17-0.47,0.3,0.3,0,0,1,.19-0.34c0.23-.09.25-0.16,0-0.26s-0.19-.13.05-0.13,0.26-.07.08-0.33a0.51,0.51,0,0,0-.34-0.32,0.34,0.34,0,0,0-.23.32,0.45,0.45,0,0,1-.32.34,1.09,1.09,0,0,0-.62.4,1.15,1.15,0,0,1-.39.26,0,0,0,0,1,0,0c0-.05,0-0.05-0.13-0.05a0.84,0.84,0,0,0-.26.07,1.09,1.09,0,0,1-.39.08,1,1,0,0,1-.43-0.11c-0.52-.24-0.56-0.46,0-0.46a0.85,0.85,0,0,0,.65-0.36,1,1,0,0,1,.3-0.29h0a0.94,0.94,0,0,0,.31-0.13c0.3-.16.3-0.2,0-0.2s-0.31-.69.08-1.16c0.17-.2.22-0.33,0.13-0.33s-0.12-.13-0.05-0.3a0.25,0.25,0,0,0,.05-0.2,0.73,0.73,0,0,0-.26.16l-0.65.58a3.58,3.58,0,0,1-1.68,1.19,0.26,0.26,0,0,1-.22-0.13c-0.08-.09-0.08-0.13,0-0.13l0.13,0a0.47,0.47,0,0,0,.17,0h0a0.08,0.08,0,0,0,.07-0.08,0.45,0.45,0,0,1,.32-0.24,0.42,0.42,0,0,0,.32-0.4A0.73,0.73,0,0,1,52,50.2l0.13,0h0s0-.05-0.05-0.16-0.1-.28.21-0.57a0.66,0.66,0,0,0,.3-0.55,0.11,0.11,0,0,1,0-.14,0.1,0.1,0,0,1,.14,0c0.15,0,.15-0.05,0-0.18a0.18,0.18,0,0,0-.13-0.05,1.11,1.11,0,0,0-.58.37,3.87,3.87,0,0,1-1.94.92,0.25,0.25,0,0,1-.19-0.05,1.64,1.64,0,0,1,.9-1,2.74,2.74,0,0,0,.9-1c0.06-.12.08-0.16,0-0.16a1.73,1.73,0,0,0-.46.18,5.5,5.5,0,0,1-1.27.42l-0.45.05c-0.18,0-.18-0.08-0.13-0.29a0.34,0.34,0,0,1,.13-0.26,0.18,0.18,0,0,1,.13.07,0.87,0.87,0,0,0,.56.18c0.31,0,.34-0.07.26-0.57s0-.55.35-0.55,0.83-.38.52-0.55c-0.14-.13-0.13-0.13.05-0.13s0.18,0,.13-0.09l-0.05,0a1.46,1.46,0,0,0-.52.17,2.43,2.43,0,0,1-.59.26c-0.23,0,0-.58.22-0.58a0.17,0.17,0,0,0,.21-0.2,0.3,0.3,0,0,1,.28-0.29A0.47,0.47,0,0,0,51.38,45c0-.14,0-0.21-0.06-0.21a1.34,1.34,0,0,0-.44.32,2,2,0,0,1-.7.42,2.22,2.22,0,0,0-.67.26,1.2,1.2,0,0,1-.49.16c-0.13,0-.13-0.12.13-0.32A1.09,1.09,0,0,0,49.48,45a1.14,1.14,0,0,1,.39-0.88l0,0h0a0.3,0.3,0,0,0,.18-0.22,0.74,0.74,0,0,1,.44-0.4c0.19-.05.28-0.16,0.23-0.29a0.17,0.17,0,0,0-.13-0.09,0.45,0.45,0,0,0-.26.13,6.43,6.43,0,0,1-1,.61,3.12,3.12,0,0,1-.59.26c-0.08,0-.08-0.07-0.08-0.26A0.28,0.28,0,0,1,49,43.56c0.1,0,.13-0.13.1-0.26s0-.18,0-0.18l0,0,0.05,0a1.08,1.08,0,0,0,.71-0.79,0.06,0.06,0,0,0-.05,0,0.86,0.86,0,0,0-.43.2,1.34,1.34,0,0,1-.59.36,0.22,0.22,0,0,0-.18.24c0,0.16-.05.24-0.13,0.24a0.51,0.51,0,0,1-.32-0.18A0.26,0.26,0,0,0,48,43.09c-0.05,0-.05.05-0.05,0.16a0.47,0.47,0,0,0,.34.4c0.17,0.07.27,0.18,0.21,0.26a0.17,0.17,0,0,1-.13.08l-0.06,0h0a0.3,0.3,0,0,0-.21.24,0.39,0.39,0,0,1-.36.41H47.66c-0.36,0-.34.62,0.05,1.05,0.19,0.21.26,0.29,0.19,0.29l-0.13,0-0.13-.05h0a0.13,0.13,0,0,0-.1.16c0,0.14-.13.22-0.39,0.22H47c-0.26,0-.41-0.11-0.39-0.21a0.48,0.48,0,0,0-.26-0.37,0.61,0.61,0,0,0-.22-0.11,0.71,0.71,0,0,0,.1.43,1.58,1.58,0,0,0,.39.71,0.29,0.29,0,0,1,.1.34c-0.05.13,0.13,0.28,0.39,0.4a1.22,1.22,0,0,1,.49.32,0.92,0.92,0,0,0,.26.4c0.17,0.17.19,0.22,0,.22l-0.28,0a0.81,0.81,0,0,1-.52-0.13,1.51,1.51,0,0,0-.58-0.43A2,2,0,0,0,46,47.55c-0.05,0,0,.08,0,0.21a0.39,0.39,0,0,0,.31.29,0.36,0.36,0,0,1,.23.37c0,0.16,0,.26.13,0.26l0.08,0h0.1c0.08,0,0,.09-0.09.36a0.74,0.74,0,0,0-.13.55c0,0.07-.12.09-0.34,0.09H46.13a0.57,0.57,0,0,1-.49-0.13,0.42,0.42,0,0,0-.26-0.26,0.54,0.54,0,0,0-.21-0.09c-0.05,0-.05.08,0,0.29a0.79,0.79,0,0,1-.77.87c-0.58.09-.52,0.18,0.06,0.18H45a2.05,2.05,0,0,1,.7.08,0.09,0.09,0,0,0,.09,0A0.46,0.46,0,0,0,46,50.5a0.41,0.41,0,0,1,.13-0.09s0,0,0,.13-0.37.38-1.83,1c-0.19.07-.32,0.22-0.26,0.33a0.17,0.17,0,0,0,.13.08,0.36,0.36,0,0,0,.21-0.09,0.36,0.36,0,0,1,.17-0.11c0.05,0,.05,0,0.05.08s0.06,0.11.17,0.11a1,1,0,0,0,.3-0.07,0.5,0.5,0,0,0,.39-0.26c0-.18.15-0.26,0.36-0.26a0.82,0.82,0,0,1,.56.22c0.09,0.17.09,0.3,0,.3-0.3,0-.17.29,0.17,0.37a0.45,0.45,0,0,1,.31.53v0.17l-0.65-.11a3.3,3.3,0,0,0-1.42-.4c-0.21,0-.34,0-0.34.13v0.4a0.15,0.15,0,0,0,.06.16h0a0.08,0.08,0,0,1,.06,0,0.79,0.79,0,0,1,.36.16,1.38,1.38,0,0,0,.65.22,0.24,0.24,0,0,1,.28.16c0,0.11.1,0.13,0.23,0.13h0.21a0.68,0.68,0,0,1,.34.07l0.06,0a0.05,0.05,0,0,0,.05,0,0.73,0.73,0,0,0,0,.13c0,0.09,0,.13-0.05.13L46.6,54a0.22,0.22,0,0,0-.1,0,0.13,0.13,0,0,0-.13.13c0,0.08-.09.13-0.26,0.13H45.86a6.13,6.13,0,0,1-.65-0.08c-0.08,0-.08-0.08,0-0.17a0.53,0.53,0,0,0-.44-0.36,6.84,6.84,0,0,1-1.25-.9A3,3,0,0,0,43,52.31v0.05a0.47,0.47,0,0,1,.13.46,0.09,0.09,0,0,0,0,.11,0.09,0.09,0,0,0,.12,0c0.12,0,.14.16,0.08,0.42s0,0.4.13,0.4a1,1,0,0,0,.45-0.16A0.58,0.58,0,0,1,44,53.55c0.05,0,0,.07,0,0.17a0.54,0.54,0,0,0,.06.46c0.17,0.24,0,.4-0.35.4a1.52,1.52,0,0,1-.39-0.07l-0.22,0c-0.15,0-.17.08-0.13,0.34a0.32,0.32,0,0,0,.26.34h0.08a0.67,0.67,0,0,1,.39.49A0.57,0.57,0,0,0,44,56a0.85,0.85,0,0,0,.32-0.21,1.33,1.33,0,0,1,.26-0.21,0.49,0.49,0,0,1-.1.26,0.61,0.61,0,0,0-.15.5,0.8,0.8,0,0,0,.18-0.21A0.54,0.54,0,0,1,44.68,56s0,0.07,0,.2a0.28,0.28,0,0,0,.18.29c0.08,0,.13.08,0.08,0.18a0.26,0.26,0,0,1-.22.11l-0.13,0h-0.1a1,1,0,0,0-.49.16,0.67,0.67,0,0,1-.36.17,1.14,1.14,0,0,1-.52-0.26,1.31,1.31,0,0,0-.62-0.24H42.47a0.21,0.21,0,0,0-.15.26,0.25,0.25,0,0,0,.26.13c0.13,0,.19.09,0.13,0.18s0,0.11,0,.11a0.63,0.63,0,0,0,.19,0l0.18,0a0.13,0.13,0,0,1,.15.09,0.26,0.26,0,0,1-.18.22c-0.12,0-.08.17,0.1,0.33s0.25,0.32.08,0.53-0.14.26,0,.26a0.67,0.67,0,0,0,.44-0.2,0.26,0.26,0,0,1,.13-0.09c0.08,0,.05.18-0.1,0.42a0.21,0.21,0,0,1-.18.13,2.27,2.27,0,0,1-.77-0.4A2.32,2.32,0,0,0,42,58.08a0.09,0.09,0,0,0-.09,0,0.77,0.77,0,0,0,.39,1c0.25,0,.25,0,0,0.16s-0.21.17,0,.2h0.21l0.15,0h0c0.06,0,.05.08,0,0.18a0.51,0.51,0,0,1-.52.17H42a1.87,1.87,0,0,0-1,.21,0.83,0.83,0,0,1-.39.17,0.1,0.1,0,0,1-.08,0,0.06,0.06,0,0,0-.05,0,0.15,0.15,0,0,0-.08.17,0.4,0.4,0,0,0,.19.34c0.1,0.05.08,0.11-.15,0.11a0.31,0.31,0,0,0-.36.26,0.17,0.17,0,0,0,0,.07,0.17,0.17,0,0,0,.2.12l0.23,0,0.26-.05q0.1,0,0,0c-0.13.08-.05,0.24,0.3,0.61s0.65,0.92.39,0.92a5.82,5.82,0,0,1-.77-0.5,2.41,2.41,0,0,0-.94-0.5h0a0.09,0.09,0,0,0-.08.11,0.83,0.83,0,0,0,.28.36,0.25,0.25,0,0,1,.15.16l0,0H40a0.27,0.27,0,0,0-.13.26,0.24,0.24,0,0,0,0,.22A0.26,0.26,0,0,0,40,62.62a0.35,0.35,0,0,1,.22-0.09c0.15,0,.18.16,0,0.34s-0.12.21,0.08,0.21a0.21,0.21,0,0,1,.26.17,0.22,0.22,0,0,0,.23.16,0.22,0.22,0,0,1,.26.18,0.21,0.21,0,0,1-.23.13,0.39,0.39,0,0,0-.34.26,0.47,0.47,0,0,1-.45.24,0.41,0.41,0,0,1-.36-0.16,0.29,0.29,0,0,0-.19-0.16c-0.09,0-.14.18-0.09,0.42s0.13,0.37.26,0.37l0.13,0h0.1a0.28,0.28,0,0,1,.28.26,0.76,0.76,0,0,0,.52.66,0.26,0.26,0,0,0,.18-0.09,0.32,0.32,0,0,1,.13-0.11s0,0.07,0,.2-0.09.26,0,.26l0.13,0,0.1,0a0.86,0.86,0,0,1,.52.32,1.39,1.39,0,0,0,.75.4,0.3,0.3,0,0,1,.34.16,1.35,1.35,0,0,1-1.14.36,1.15,1.15,0,0,1-.56-0.11A0.41,0.41,0,0,0,41,66.79l-0.35-.13a4.51,4.51,0,0,0-1.16-.24c-0.08,0-.13,0-0.13,0a1.8,1.8,0,0,0,.45.49l0.45,0.4-0.48.11-0.46.13,0.52,0.21c0.52,0.22.52,0.55,0,.55a0.28,0.28,0,0,0-.32.17,0.17,0.17,0,0,0,0,0,0.16,0.16,0,0,0,.18.13,1.11,1.11,0,0,0,.49-0.18,0.64,0.64,0,0,1,.3-0.08,0.25,0.25,0,0,1,.18.05c0.09,0.13,0,.21-0.43.26-0.67.13-.8,0.32-0.54,0.79a1,1,0,0,1,.18.53s0,0.08.13,0.08l0.13,0h0.15c0.1,0,.18,0,0.18.08a0.13,0.13,0,0,0,.13.11h0.11a0.13,0.13,0,0,1,.08.17v0a0.16,0.16,0,0,0,.14.17c0.27,0,.18.29-0.17,0.49a0.72,0.72,0,0,1-.36.09,1.8,1.8,0,0,1-1.25-.7,1,1,0,0,0-.58-0.4c-0.15,0-.22.2-0.13,0.53a1.44,1.44,0,0,0,.35.72c0.23,0.18.21,0.24-.1,0.45s-0.34.3,0.52,0.33a0.65,0.65,0,0,1,.54.4,0.64,0.64,0,0,0,.39.36,0.28,0.28,0,0,1,.23.18,0.17,0.17,0,0,0,.19.11l0.13,0c0.26-.07.26-0.18,0.13-0.33s-0.12-.2.05-0.2h0.08c0.26,0,.3.08,0.13,0.5s-0.18.43-.41,0.43l-0.26,0-0.3,0a0.42,0.42,0,0,0-.31.08,1.26,1.26,0,0,0,1,.3,0.47,0.47,0,0,0,.23,0l0.06,0a0.16,0.16,0,0,1,.13.13,0.13,0.13,0,0,0,.13.13,0.67,0.67,0,0,0,.28-0.13,2.29,2.29,0,0,1,.8-0.09,5.91,5.91,0,0,0,1.2.13c0.83,0,.9.2,0.13,0.36a1.49,1.49,0,0,0-.65.34,0.74,0.74,0,0,1-.49.24,0.27,0.27,0,0,0-.3.16c0,0.09.09,0.13,0.22,0.13l0.18,0h0.19c0.13,0,.21,0,0.21.08a0.14,0.14,0,0,0,0,0,0.13,0.13,0,0,0,.15.1A0.33,0.33,0,0,0,43.35,75v-0.4L43.61,75a0.6,0.6,0,0,0,.43.29h0.05l0.13,0c0.17,0,.13.2-0.09,0.33-0.06.05-.06,0.05,0,0.05l0.18,0,0.19,0c0.13,0,.14.07,0.1,0.2s0,0.16,0,.16a0.23,0.23,0,0,0,.13-0.07,0.81,0.81,0,0,1,.39-0.13h0a0.18,0.18,0,0,1,.17.2,0.21,0.21,0,0,0,0,0,0.2,0.2,0,0,0,.2.2,0.42,0.42,0,0,0,.36-0.32,0.43,0.43,0,0,1,.49-0.26h0.21c0.22,0,.35,0,0.35-0.08a0.57,0.57,0,0,1,.46-0.11,3,3,0,0,0,.77-0.11l0.18,0c0.15,0,.19.21,0.28,1a16.72,16.72,0,0,1,0,2.21l-0.1,1.09h0.65c0.58,0,.61,0,0.52-0.45a24.62,24.62,0,0,1-.41-3.43c0-.47,0-0.66.32-0.66a3.3,3.3,0,0,1,.65.13h0q0.22,0,.26-0.4c0-.3.09-0.43,0.17-0.43a0.73,0.73,0,0,1,.31.46,1,1,0,0,0,.32.46h0a1.07,1.07,0,0,1,.35.11,0.53,0.53,0,0,0,.23,0,0.7,0.7,0,0,0,.35-0.11c0.26-.13.22-0.17-0.23-0.26s-0.75-.4-0.36-0.4a0.11,0.11,0,0,0,.06-0.17c-0.08-.11-0.08-0.16,0-0.16a1.22,1.22,0,0,1,.57.4,0.84,0.84,0,0,0,.54.3A0.51,0.51,0,0,0,53.06,75ZM57.63,64A0.9,0.9,0,0,0,58,63.7a0.09,0.09,0,0,1,.1,0,0.78,0.78,0,0,1,.52.59,0.64,0.64,0,0,1-.56.16H58C57.33,64.41,57.11,64.16,57.63,64Zm-1.45,4.87a7.31,7.31,0,0,1,.9-0.09c0.19,0,.25,0,0.17.13a1.63,1.63,0,0,1-.9.26h0c-0.15,0-.28,0-0.28-0.11A0.21,0.21,0,0,1,56.18,68.84ZM55,70.36h0a0.26,0.26,0,0,1,.18.16c0.06,0.08,0,.16-0.06.16a0.18,0.18,0,0,1-.18-0.17C54.93,70.41,55,70.36,55,70.36ZM44.49,55.15l-0.18,0c-0.18,0-.17-0.13,0-0.4a0.26,0.26,0,0,1,.23-0.13h0a0.26,0.26,0,0,1,.26.26A0.45,0.45,0,0,1,44.49,55.15Zm-1.1,4.2c0.31,0,.32.05,0.13,0.18a0.76,0.76,0,0,1-.36.13h0a0.13,0.13,0,0,1-.1-0.13A0.3,0.3,0,0,1,43.39,59.36Zm-1.14,6.72a0.18,0.18,0,0,1-.18-0.16q0-.16.08-0.16v0a0.26,0.26,0,0,1,.17.17C42.38,66,42.34,66.07,42.25,66.07Zm0.28-1a0.59,0.59,0,0,1-.32.13,2.94,2.94,0,0,1-.9-0.26c-0.86-.36-1-0.49-0.48-0.62H41a1.08,1.08,0,0,1,.59.2,1.08,1.08,0,0,0,.54.16h0.1l0.13,0h0a0.23,0.23,0,0,1,.19.11A0.24,0.24,0,0,1,42.54,65.09Zm-0.66,5.69c0,0.05,0,.05-0.13.05a0.55,0.55,0,0,1-.39-0.13c0-.05,0-0.09.09-0.09l0.13,0a0.56,0.56,0,0,1,.31.13h0Zm1.28,0.8a7.56,7.56,0,0,1-1.21-.08h0a0.39,0.39,0,0,0,.28-0.24l0.22,0a1.8,1.8,0,0,1,.9.2,0.75,0.75,0,0,0,.18.13A1.91,1.91,0,0,1,43.16,71.58Zm1.08-10.09c-0.27,0-.27,0-0.08.17l0,0c0.15,0.08.14,0.13,0,.13a8.26,8.26,0,0,1-1.33-.22c-1.42-.32-2.22-1.4-1-1.42h0.09a0.24,0.24,0,0,1,.17.29q0,0.24.23,0.24H42.4a0.25,0.25,0,0,1,.28.13,0.09,0.09,0,0,0,.08.09h0.06l0.09,0a0.18,0.18,0,0,1,.15.08,0.2,0.2,0,0,0,.19.08,0.8,0.8,0,0,0,.58-0.3,0.17,0.17,0,0,1,.1-0.09s0,0,0,.13a0.39,0.39,0,0,1-.26.3,0.2,0.2,0,0,0-.13.26,0.13,0.13,0,0,0,.13.07,0.26,0.26,0,0,0,.17-0.07,0.32,0.32,0,0,1,.22-0.09,0.38,0.38,0,0,1,.21.07C44.5,61.46,44.51,61.49,44.24,61.49Zm1-6.44a0.21,0.21,0,0,1,.19.16,0.16,0.16,0,0,1,0,0,0.16,0.16,0,0,1-.17.14h0c-0.14,0-.25-0.05-0.22-0.13A0.26,0.26,0,0,1,45.22,55Zm-0.28,2a0.26,0.26,0,0,1,.18-0.08l0.12,0a0.31,0.31,0,0,1,.14.4,0.39,0.39,0,0,1-.26.18h0A0.31,0.31,0,0,1,44.94,57Zm0.9,17.92a4.39,4.39,0,0,1-.57,0,3.59,3.59,0,0,1-.62,0h0a0.5,0.5,0,0,0,.13-0.13,0.69,0.69,0,0,0,.41.11,1.8,1.8,0,0,0,.65-0.13A0.54,0.54,0,0,0,45.84,74.93Zm-0.17-3.1c-0.13,0-.18-0.08-0.13-0.17a0.31,0.31,0,0,1,.23-0.16h0.06a0.13,0.13,0,0,1,.1.16A0.24,0.24,0,0,1,45.68,71.83Zm0.45-14.61h0a0.18,0.18,0,0,1-.18-0.16c0-.11,0-0.16.06-0.16a0.26,0.26,0,0,1,.15.16,0.09,0.09,0,0,1,0,.16h0Zm1.38-7.73,0.26,0c0.18,0,.26.05,0.26,0.13h0c0,0.13,0,.2-0.13.2a2.57,2.57,0,0,1-.52-0.13C47,49.57,47,49.57,47.51,49.49Zm0.75,21.84a0.35,0.35,0,0,1-.23.17c-0.23,0-.17-0.11.09-0.24h0l0.1,0C48.28,71.24,48.31,71.28,48.26,71.33Zm1.63-19.12a0.2,0.2,0,0,1-.18-0.08c-0.06-.08,0-0.17.15-0.17h0a0.31,0.31,0,0,1,.25.06A0.21,0.21,0,0,1,49.88,52.22Zm2.18,1.62a2,2,0,0,1-.77.26c-0.18,0-.18-0.05.08-0.11s0.36-.13.3-0.21,0.13-.18.39-0.21l0.36,0h0C52.61,53.53,52.49,53.62,52.07,53.84Zm0.44,2.08h0a0.17,0.17,0,0,1,.17.17c0,0.09,0,.13-0.08.13h0a0.26,0.26,0,0,1-.17-0.13C52.38,56,52.4,55.92,52.5,55.92Z"/>
    <path class="cls-2" d="M49,41.75c0.34,0,.34,0,0.08-0.08-0.41-.13-0.58-0.4-0.39-0.66s0.13-.21,0-0.21a0.18,0.18,0,0,0-.19.16,0.1,0.1,0,0,1-.13.07H48.26L48.1,41l0,0c-0.08,0,0,.11.18,0.4a0.81,0.81,0,0,0,.68.42h0Z"/>
    <path class="cls-2" d="M41.94,75.16a0.38,0.38,0,0,0-.15,0,0.23,0.23,0,0,0-.15.05c-0.05.05,0.05,0.08,0.21,0.08h0C42,75.27,42.07,75.22,41.94,75.16Z"/>
    <path class="cls-2" d="M48.61,40.41l0.06,0c0.21-.12,0-0.57-0.26-0.57h0c-0.3,0-.3.18,0,0.45A0.33,0.33,0,0,0,48.61,40.41Z"/>
    <path class="cls-2" d="M49.29,42.08A2.61,2.61,0,0,0,48.71,42H48.48c-0.31,0-.26.05-0.05,0.21h0c0.18,0.13.25,0.18,0.21,0.18l-0.22-.07-0.21-.05c-0.05,0,0,.07.1,0.22a2,2,0,0,0,.26.26A3.94,3.94,0,0,0,49.29,42.08Z"/>
    <path class="cls-2" d="M44.45,48.17c-0.15,0-.14.13,0.06,0.5a0.36,0.36,0,0,0,.26.26,0.08,0.08,0,0,0,.06,0A0.75,0.75,0,0,0,44.45,48.17Z"/>
  </g>
  <g id="logo">
    <g>
      <path class="cls-2" d="M176.16,121.93c0.38-.15.35-0.15,0-0.15a0.44,0.44,0,0,1-.41-0.21,0.47,0.47,0,0,1,.45-0.12l0.45,0,0.9,0.09-0.72-.23c-0.69-.21-0.92-0.51-0.42-0.51h0.3a1.66,1.66,0,0,0,.6-0.11,1,1,0,0,1,.38-0.06,0.66,0.66,0,0,1,.21,0,0.35,0.35,0,0,0,.15,0q0.15,0,.15-0.26c0-.26.15-0.35,0.9-0.35h0.66c0.6,0,.72,0,0.54-0.15s-0.2-.6,0-0.6a0.26,0.26,0,0,1,.12,0h0.08a0.87,0.87,0,0,0,.5-0.35,1,1,0,0,1,.48-0.38h0a0.29,0.29,0,0,0,.12-0.3,0.89,0.89,0,0,1,.78-0.75,0.39,0.39,0,0,1,.15,0h0a1.35,1.35,0,0,0,.75-0.57l0,0.11c0.3-.45.42-0.6,0.3-0.6a1,1,0,0,0-.24.06l-0.9.2-0.81.18h-0.08a0.6,0.6,0,0,1-.45-0.21,0.38,0.38,0,0,0-.3-0.15,1.57,1.57,0,0,0-.53.15,1.81,1.81,0,0,1-.68.15,0.81,0.81,0,0,1-.3-0.06c-0.32-.12-0.29-0.2.06-0.2h0.36a1.13,1.13,0,0,0,.72-0.36,0.57,0.57,0,0,1,.39-0.26,0.3,0.3,0,0,1,.2.09,0.57,0.57,0,0,0,.35.11c0.26,0,.48-0.12.38-0.3a0.81,0.81,0,0,1,.51-0.48,0.76,0.76,0,0,0,.45-0.3c-0.09,0,0-.2.24-0.41a1.45,1.45,0,0,0,.38-0.81c0-.18,0-0.27-0.06-0.27a0.53,0.53,0,0,0-.15.2,1.55,1.55,0,0,1-1.26.57,2.2,2.2,0,0,1-.63-0.09,1,1,0,0,1-.68-0.45c0-.17.06-0.24,0.18-0.24a0.5,0.5,0,0,1,.3.15,0.63,0.63,0,0,0,.38.09,1,1,0,0,0,.84-0.27,0.41,0.41,0,0,0-.18-0.26,1.32,1.32,0,0,1,.53-1.25,2.42,2.42,0,0,0,.26-0.9l0.15-.81-0.78.75a5.54,5.54,0,0,1-1.46,1,2,2,0,0,1-.6.2c-0.12,0-.15,0-0.21-0.2s0-.23.06-0.23l0.12,0,0.15,0a0.26,0.26,0,0,0,.12-0.5c-0.11-.08-0.12-0.11,0-0.11a1.55,1.55,0,0,1,.3,0,1.58,1.58,0,0,0,.3.06c0.17,0,.21-0.09.21-0.3,0-.36.08-0.51,0.27-0.51a0.87,0.87,0,0,1,.35.12,1.31,1.31,0,0,0,.3.11s0,0-.12-0.15c-0.27-.29-0.3-0.53-0.12-0.53l0.15,0a0.39,0.39,0,0,0,.15,0h0a0.12,0.12,0,0,0,.13-0.11,0.12,0.12,0,0,1,.12-0.12l0.12,0h0.06a0.57,0.57,0,0,0,.42-0.3,0.47,0.47,0,0,0,0-.72,1.18,1.18,0,0,1,0-1.51,0.42,0.42,0,0,0,.18-0.4h0a0.15,0.15,0,0,0-.14-0.07,4.45,4.45,0,0,0-1.91,1.39,3,3,0,0,1-1.2.95q-0.18,0-.18-0.3c0-.14,0-0.21.11-0.21a0.12,0.12,0,0,1,.06,0H180a0.24,0.24,0,0,0,.18-0.2,0.3,0.3,0,0,0,0-.22,0.51,0.51,0,0,0-.1-0.12,0.27,0.27,0,0,0-.05-0.06,0.41,0.41,0,0,1-.27-0.3,0.15,0.15,0,0,1,.15-0.12l0.15,0h0.12c0.38,0,1-.54.72-0.72s-0.24-.38-0.09-0.38a0.6,0.6,0,0,1,.3.09,1,1,0,0,0,.3.12c0.06,0,0-.06,0-0.18a0.3,0.3,0,0,1,.11-0.38c0.14-.06.09-0.11-0.06-0.11a0.3,0.3,0,0,1-.3-0.3,0.2,0.2,0,0,1,.15-0.23l0.08,0h0.06a0.3,0.3,0,0,0,.26-0.21c0.12-.3.08-0.45-0.12-0.45a1.2,1.2,0,0,0-.65.3,2.91,2.91,0,0,1-.75.45,2.65,2.65,0,0,0-.6.33,2.92,2.92,0,0,1-1.17.51c-0.08,0-.12,0-0.08-0.11s0-.2-0.24-0.2-0.3,0,.08-0.3a1.06,1.06,0,0,0,.42-0.56,0.62,0.62,0,0,1,.51-0.3,0.45,0.45,0,0,0,.53-0.3,0.48,0.48,0,0,1,.45-0.35c0.23,0,.38-0.17.3-0.24s0-.15.11-0.15a0.11,0.11,0,0,0,.11-0.18c-0.06-.12,0-0.2.06-0.2,0.32,0,.47-0.8.2-0.95s-0.15-.18.15-0.18a0.41,0.41,0,0,0,.42-0.18,0.21,0.21,0,0,0-.26-0.2,1.2,1.2,0,0,0-.78.41,16,16,0,0,1-3.16,1.66,0.53,0.53,0,0,1-.2-0.26c-0.06-.21.09-0.39,0.45-0.6a1.18,1.18,0,0,0,.65-0.75,0.52,0.52,0,0,1,.5-0.45c0.23,0,.35-0.08.3-0.18a0.54,0.54,0,0,1,.42-0.75c0.26,0,.26-0.06-0.08-0.3s-0.33-.26-0.24-0.26l0.23,0,0.11,0a0.7,0.7,0,0,0,.5-0.41,0.62,0.62,0,0,0,.15-0.53,3.78,3.78,0,0,0-1.2.75,5.64,5.64,0,0,1-2.56.9c-0.18,0-.26,0-0.18-0.15s-0.08-.23-0.23-0.3-0.2-.18-0.15-0.26a0.38,0.38,0,0,0-.11-0.38c-0.14-.18-0.12-0.24.12-0.24a0.93,0.93,0,0,0,.56-0.24c0.29-.24,0-0.6-0.56-0.75-0.29-.08-0.24-0.11.11-0.11H176a1.56,1.56,0,0,0,.35,0,4.63,4.63,0,0,1,.56-0.11,2.25,2.25,0,0,0,1.26-.36s0-.08-0.24-0.08a3.67,3.67,0,0,0-.53,0,4.75,4.75,0,0,1-.54,0c-0.23,0-.35,0-0.35-0.11a0.24,0.24,0,0,1,.26-0.21c0.36,0,.75-0.5.51-0.65s-0.12-.21.08-0.39a0.54,0.54,0,0,0,.2-0.54,0.35,0.35,0,0,1,.23-0.39c0.27-.11.29-0.18,0-0.3s-0.23-.15.06-0.15,0.3-.08.09-0.38a0.6,0.6,0,0,0-.39-0.36,0.39,0.39,0,0,0-.27.36,0.52,0.52,0,0,1-.38.39,1.27,1.27,0,0,0-.72.45,1.34,1.34,0,0,1-.45.3,0,0,0,0,1,0,0c0-.06,0-0.06-0.15-0.06a1,1,0,0,0-.3.08,1.3,1.3,0,0,1-.45.09,1.16,1.16,0,0,1-.5-0.12c-0.6-.27-0.65-0.53,0-0.53A1,1,0,0,0,175,96a1.13,1.13,0,0,1,.35-0.33h0a1.12,1.12,0,0,0,.36-0.15c0.35-.18.35-0.23,0-0.23s-0.36-.78.09-1.32c0.2-.23.26-0.38,0.15-0.38s-0.14-.15-0.06-0.35a0.28,0.28,0,0,0,.06-0.23,0.86,0.86,0,0,0-.3.18l-0.75.66a4.19,4.19,0,0,1-2,1.36,0.3,0.3,0,0,1-.26-0.15c-0.09-.11-0.09-0.15,0-0.15L173,95a0.56,0.56,0,0,0,.2,0h0a0.09,0.09,0,0,0,.09-0.1,0.52,0.52,0,0,1,.38-0.27,0.48,0.48,0,0,0,.38-0.45,0.85,0.85,0,0,1,.86-0.65l0.15,0h0s0-.06-0.06-0.18-0.12-.32.24-0.65a0.75,0.75,0,0,0,.35-0.63,0.12,0.12,0,0,1,.12-0.21c0.18,0,.18-0.06,0-0.21a0.21,0.21,0,0,0-.15-0.06,1.3,1.3,0,0,0-.68.42,4.56,4.56,0,0,1-2.26,1.05,0.3,0.3,0,0,1-.23-0.06,1.89,1.89,0,0,1,1.05-1.14,3.15,3.15,0,0,0,1.05-1.14c0.08-.14.09-0.18,0-0.18a2,2,0,0,0-.54.21,6.5,6.5,0,0,1-1.48.48,4.3,4.3,0,0,1-.53.06c-0.21,0-.21-0.09-0.15-0.33a0.39,0.39,0,0,1,.15-0.3,0.21,0.21,0,0,1,.15.08,1,1,0,0,0,.65.21c0.36,0,.39-0.08.3-0.65s0-.63.41-0.63,1-.44.6-0.63C174,89,174,89,174.2,89s0.21,0,.15-0.11l-0.06,0a1.73,1.73,0,0,0-.6.2,2.86,2.86,0,0,1-.69.3c-0.27,0,0-.66.26-0.66a0.2,0.2,0,0,0,.24-0.23,0.35,0.35,0,0,1,.33-0.33,0.54,0.54,0,0,0,.38-0.5c0-.17,0-0.24-0.08-0.24a1.57,1.57,0,0,0-.51.36,2.36,2.36,0,0,1-.81.48,2.62,2.62,0,0,0-.78.3,1.42,1.42,0,0,1-.57.18c-0.15,0-.15-0.14.15-0.36a1.23,1.23,0,0,0,.39-0.69,1.3,1.3,0,0,1,.45-1l0,0h0a0.34,0.34,0,0,0,.21-0.26,0.86,0.86,0,0,1,.51-0.45c0.23-.06.33-0.18,0.27-0.33a0.2,0.2,0,0,0-.15-0.11,0.53,0.53,0,0,0-.3.15,7.53,7.53,0,0,1-1.11.69,3.68,3.68,0,0,1-.69.3c-0.09,0-.09-0.08-0.09-0.3a0.32,0.32,0,0,1,.21-0.38c0.12,0,.15-0.15.12-0.3s0-.21,0-0.21l0,0,0.06,0a1.25,1.25,0,0,0,.83-0.9,0.08,0.08,0,0,0-.06,0,1,1,0,0,0-.5.23,1.57,1.57,0,0,1-.69.41,0.26,0.26,0,0,0-.21.27c0,0.18-.06.27-0.15,0.27a0.6,0.6,0,0,1-.38-0.21,0.3,0.3,0,0,0-.15-0.12c-0.06,0-.06.06-0.06,0.18a0.54,0.54,0,0,0,.39.45c0.2,0.08.32,0.21,0.24,0.3a0.2,0.2,0,0,1-.15.09l-0.08,0h0a0.34,0.34,0,0,0-.24.27,0.45,0.45,0,0,1-.42.47h-0.08c-0.42,0-.39.71,0.06,1.2,0.23,0.24.3,0.33,0.23,0.33l-0.15,0a0.45,0.45,0,0,0-.15-0.06h0a0.15,0.15,0,0,0-.12.18c0,0.17-.15.26-0.45,0.26h-0.11c-0.3,0-.48-0.12-0.45-0.24a0.55,0.55,0,0,0-.3-0.42,0.72,0.72,0,0,0-.26-0.12,0.8,0.8,0,0,0,.12.5,1.8,1.8,0,0,0,.45.81,0.33,0.33,0,0,1,.12.39c-0.06.15,0.15,0.32,0.45,0.45a1.43,1.43,0,0,1,.57.36,1.05,1.05,0,0,0,.3.45c0.2,0.2.23,0.26,0,.26l-0.33,0a1,1,0,0,1-.6-0.15,1.75,1.75,0,0,0-.68-0.5,2.37,2.37,0,0,0-.6-0.27c-0.06,0,0,.09,0,0.24a0.45,0.45,0,0,0,.36.33,0.41,0.41,0,0,1,.27.42c0,0.18,0,.3.15,0.3l0.09,0h0.12c0.09,0,0,.11-0.11.41a0.83,0.83,0,0,0-.15.63c0,0.08-.14.11-0.39,0.11h-0.18a0.68,0.68,0,0,1-.57-0.15,0.48,0.48,0,0,0-.3-0.3,0.63,0.63,0,0,0-.24-0.11c-0.06,0-.06.09,0,0.33a0.91,0.91,0,0,1-.9,1c-0.68.11-.6,0.21,0.08,0.21h0.6a2.44,2.44,0,0,1,.81.09,0.11,0.11,0,0,0,.11,0,0.54,0.54,0,0,0,.3-0.12,0.48,0.48,0,0,1,.15-0.11s0,0,0,.15c-0.09.26-.44,0.44-2.14,1.11-0.23.08-.38,0.26-0.3,0.38a0.2,0.2,0,0,0,.15.09,0.42,0.42,0,0,0,.24-0.11,0.42,0.42,0,0,1,.2-0.12c0.06,0,.06,0,0.06.09s0.08,0.12.2,0.12a1.23,1.23,0,0,0,.35-0.08,0.58,0.58,0,0,0,.45-0.3c0-.21.18-0.3,0.42-0.3a1,1,0,0,1,.65.26c0.11,0.2.11,0.35,0,.35-0.35,0-.2.33,0.2,0.42a0.51,0.51,0,0,1,.36.6v0.2l-0.75-.12a3.92,3.92,0,0,0-1.66-.45c-0.24,0-.39,0-0.39.15v0.45a0.17,0.17,0,0,0,.08.18h0a0.09,0.09,0,0,1,.08,0,0.93,0.93,0,0,1,.42.18,1.63,1.63,0,0,0,.75.26c0.18,0,.33.06,0.33,0.18s0.12,0.15.27,0.15h0.24a0.81,0.81,0,0,1,.39.08l0.08,0a0.06,0.06,0,0,0,.06,0,0.82,0.82,0,0,0,0,.15c0,0.11,0,.15-0.06.15l-0.15-.06a0.26,0.26,0,0,0-.12,0,0.15,0.15,0,0,0-.15.15c0,0.09-.11.15-0.3,0.15h-0.3a7.31,7.31,0,0,1-.75-0.09c-0.09,0-.09-0.09,0-0.2a0.62,0.62,0,0,0-.51-0.41,8,8,0,0,1-1.46-1,3.51,3.51,0,0,0-.6-0.48V96a0.53,0.53,0,0,1,.15.53,0.11,0.11,0,0,0,.11.18c0.14,0,.17.18,0.09,0.48s0,0.45.15,0.45a1.2,1.2,0,0,0,.53-0.18,0.68,0.68,0,0,1,.24-0.11c0.06,0,0,.08,0,0.2a0.6,0.6,0,0,0,.08.53c0.2,0.27,0,.45-0.41.45a1.81,1.81,0,0,1-.45-0.08l-0.26,0c-0.18,0-.2.09-0.15,0.39a0.37,0.37,0,0,0,.3.39h0.09a0.77,0.77,0,0,1,.45.56,0.65,0.65,0,0,0,.26.45,1,1,0,0,0,.38-0.24,1.55,1.55,0,0,1,.3-0.24,0.55,0.55,0,0,1-.12.3,0.68,0.68,0,0,0-.18.57,0.92,0.92,0,0,0,.21-0.24,0.62,0.62,0,0,1,.24-0.24s0,0.08,0,.23a0.32,0.32,0,0,0,.21.33c0.09,0,.15.09,0.09,0.21a0.3,0.3,0,0,1-.26.12,0.41,0.41,0,0,1-.15,0h-0.12a1.13,1.13,0,0,0-.57.18,0.78,0.78,0,0,1-.42.2,1.34,1.34,0,0,1-.6-0.3,1.55,1.55,0,0,0-.72-0.27h-0.08a0.24,0.24,0,0,0-.17.29,0.29,0.29,0,0,0,.3.15c0.15,0,.23.11,0.15,0.21s0,0.12,0,.12a0.75,0.75,0,0,0,.23,0,0.71,0.71,0,0,1,.21,0,0.15,0.15,0,0,1,.18.11,0.3,0.3,0,0,1-.21.26c-0.14,0-.09.2,0.12,0.38s0.29,0.36.09,0.6-0.17.3,0,.3a0.78,0.78,0,0,0,.51-0.23,0.3,0.3,0,0,1,.15-0.11c0.09,0,.06.21-0.12,0.48a0.24,0.24,0,0,1-.21.15,2.67,2.67,0,0,1-.9-0.45,2.73,2.73,0,0,0-1-.42,0.11,0.11,0,0,0-.11,0,0.87,0.87,0,0,0,.45,1.11c0.29,0,.29,0,0,0.18s-0.24.2,0,.23h0.24l0.18,0h0c0.08,0,.06.09,0,0.21a0.6,0.6,0,0,1-.6.2h-0.24a2.21,2.21,0,0,0-1.11.24,1,1,0,0,1-.45.2,0.12,0.12,0,0,1-.09,0,0.08,0.08,0,0,0-.06,0,0.17,0.17,0,0,0-.09.2,0.45,0.45,0,0,0,.23.39c0.12,0.06.09,0.12-.18,0.12a0.36,0.36,0,0,0-.42.3,0.2,0.2,0,0,0,.24.23l0.27,0,0.3-.06q0.11,0,0,0c-0.15.09-.06,0.27,0.35,0.69s0.75,1.05.45,1.05a6.81,6.81,0,0,1-.9-0.57,2.83,2.83,0,0,0-1.1-.57h0a0.11,0.11,0,0,0-.09.12,1,1,0,0,0,.33.41c0.15,0.11.21,0.18,0.18,0.18l0,0H161a0.31,0.31,0,0,0-.15.3c0,0.18,0,.26,0,0.26a0.3,0.3,0,0,0,.15-0.11,0.41,0.41,0,0,1,.26-0.11c0.18,0,.21.18,0,0.39s-0.14.24,0.09,0.24a0.25,0.25,0,0,1,.3.2,0.26,0.26,0,0,0,.27.18,0.25,0.25,0,0,1,.3.21,0.24,0.24,0,0,1-.27.15,0.45,0.45,0,0,0-.39.3,0.55,0.55,0,0,1-.53.27,0.48,0.48,0,0,1-.42-0.18,0.33,0.33,0,0,0-.23-0.18c-0.11,0-.17.21-0.11,0.48s0.15,0.42.3,0.42l0.15,0h0.12a0.33,0.33,0,0,1,.33.3,0.88,0.88,0,0,0,.6.75A0.3,0.3,0,0,0,162,111a0.38,0.38,0,0,1,.15-0.12s0,0.08,0,.23-0.11.3,0,.3l0.15,0,0.12,0a1,1,0,0,1,.6.36,1.63,1.63,0,0,0,.87.45,0.35,0.35,0,0,1,.39.18,1.59,1.59,0,0,1-1.32.41,1.37,1.37,0,0,1-.65-0.12,0.48,0.48,0,0,0-.26-0.15l-0.41-.15a5.36,5.36,0,0,0-1.36-.27c-0.09,0-.15,0-0.15,0a2.07,2.07,0,0,0,.53.56l0.53,0.45-0.56.12-0.54.15,0.6,0.24c0.6,0.26.6,0.63,0,.63a0.33,0.33,0,0,0-.38.2,0.18,0.18,0,0,0,0,0,0.18,0.18,0,0,0,.21.15,1.31,1.31,0,0,0,.57-0.21,0.75,0.75,0,0,1,.35-0.09,0.3,0.3,0,0,1,.21.06c0.11,0.15,0,.24-0.5.3-0.78.15-.93,0.36-0.63,0.9a1.17,1.17,0,0,1,.21.6s0,0.09.15,0.09l0.15,0h0.18c0.12,0,.21,0,0.21.09a0.15,0.15,0,0,0,.15.12h0.13a0.15,0.15,0,0,1,.1.19v0a0.18,0.18,0,0,0,.16.2c0.32,0,.21.33-0.2,0.56a0.86,0.86,0,0,1-.42.11,2.12,2.12,0,0,1-1.46-.8,1.21,1.21,0,0,0-.68-0.45c-0.18,0-.26.23-0.15,0.6a1.63,1.63,0,0,0,.41.83c0.27,0.21.24,0.27-.12,0.51s-0.39.35,0.6,0.38a0.75,0.75,0,0,1,.63.45,0.74,0.74,0,0,0,.45.41,0.33,0.33,0,0,1,.27.21,0.2,0.2,0,0,0,.23.12l0.15,0c0.3-.08.3-0.21,0.15-0.38s-0.14-.23.06-0.23H162c0.3,0,.35.09,0.15,0.57s-0.21.5-.48,0.5l-0.3,0-0.35,0a0.5,0.5,0,0,0-.36.09,1.49,1.49,0,0,0,1.13.35,0.56,0.56,0,0,0,.27,0,0.15,0.15,0,0,1,.08,0,0.18,0.18,0,0,1,.15.15,0.15,0.15,0,0,0,.15.15,0.78,0.78,0,0,0,.33-0.15,1.26,1.26,0,0,1,.6-0.11,1.28,1.28,0,0,1,.33,0,7,7,0,0,0,1.4.15c1,0,1.05.23,0.15,0.41a1.75,1.75,0,0,0-.75.39,0.87,0.87,0,0,1-.57.27,0.31,0.31,0,0,0-.35.18c0,0.11.11,0.15,0.26,0.15l0.21,0h0.23c0.15,0,.24,0,0.24.09a0.15,0.15,0,0,0,0,0,0.15,0.15,0,0,0,.18.12,0.37,0.37,0,0,0,.18-0.39v-0.45l0.3,0.45a0.7,0.7,0,0,0,.5.33h0.06a0.36,0.36,0,0,1,.15,0c0.2,0,.15.23-0.11,0.38-0.08.06-.08,0.06,0,0.06l0.21,0,0.23,0c0.15,0,.17.08,0.12,0.23s0,0.18,0,.18a0.27,0.27,0,0,0,.15-0.08,1,1,0,0,1,.45-0.15h0a0.21,0.21,0,0,1,.19.23,0.24,0.24,0,0,0,0,0,0.23,0.23,0,0,0,.23.22,0.48,0.48,0,0,0,.42-0.36,0.5,0.5,0,0,1,.57-0.3h0.24c0.26,0,.41,0,0.41-0.09a0.67,0.67,0,0,1,.54-0.12,3.51,3.51,0,0,0,.9-0.12,0.72,0.72,0,0,1,.21,0c0.18,0,.23.24,0.33,1.14a18.74,18.74,0,0,1,0,2.53l-0.12,1.25h0.75c0.68,0,.71,0,0.6-0.51a27.61,27.61,0,0,1-.48-3.91c0-.54,0-0.75.38-0.75a3.91,3.91,0,0,1,.75.15h0q0.26,0,.3-0.45c0-.35.11-0.5,0.2-0.5a0.84,0.84,0,0,1,.36.53,1.1,1.1,0,0,0,.38.53h0a1.26,1.26,0,0,1,.41.12,0.63,0.63,0,0,0,.27,0,0.83,0.83,0,0,0,.41-0.12c0.3-.15.26-0.2-0.27-0.3s-0.87-.45-0.42-0.45a0.12,0.12,0,0,0,.08-0.2c-0.09-.12-0.09-0.18,0-0.18a1.43,1.43,0,0,1,.66.45,1,1,0,0,0,.63.35A0.6,0.6,0,0,0,176.16,121.93Zm5.33-12.63a1.05,1.05,0,0,0,.45-0.3,0.11,0.11,0,0,1,.12,0,0.9,0.9,0,0,1,.6.68,0.76,0.76,0,0,1-.65.18h-0.11l0,0C181.14,109.81,180.89,109.52,181.49,109.29Zm-1.69,5.57a8.68,8.68,0,0,1,1.05-.11c0.23,0,.29,0,0.2.15a1.93,1.93,0,0,1-1.05.3l0,0c-0.18,0-.33,0-0.33-0.12A0.24,0.24,0,0,1,179.8,114.87Zm-1.37,1.73,0,0a0.3,0.3,0,0,1,.21.18c0.08,0.09,0,.18-0.08.18a0.21,0.21,0,0,1-.21-0.2C178.34,116.66,178.39,116.6,178.43,116.6ZM166.16,99.22l-0.21,0c-0.21,0-.2-0.15,0-0.45a0.3,0.3,0,0,1,.27-0.15h0a0.3,0.3,0,0,1,.3.3A0.52,0.52,0,0,1,166.16,99.22Zm-1.28,4.8c0.36,0,.38.06,0.15,0.21a0.9,0.9,0,0,1-.42.15h0a0.15,0.15,0,0,1-.12-0.15A0.36,0.36,0,0,1,164.88,104Zm-1.32,7.68a0.21,0.21,0,0,1-.21-0.18q0-.18.09-0.18v0a0.3,0.3,0,0,1,.2.2C163.71,111.61,163.66,111.7,163.56,111.7Zm0.33-1.13a0.69,0.69,0,0,1-.38.15,3.48,3.48,0,0,1-1.05-.3c-1-.41-1.16-0.56-0.56-0.71h0.24a1.28,1.28,0,0,1,.69.23,1.28,1.28,0,0,0,.63.18h0.12l0.15,0v0A0.27,0.27,0,0,1,163.89,110.57Zm-0.77,6.5c0,0.06,0,.06-0.15.06a0.65,0.65,0,0,1-.45-0.15c0-.06,0-0.11.11-0.11l0.15,0a0.67,0.67,0,0,1,.36.15h0Zm1.49,0.92a9,9,0,0,1-1.42-.09l0,0a0.45,0.45,0,0,0,.33-0.27l0.26,0a2.13,2.13,0,0,1,1.05.23,0.88,0.88,0,0,0,.21.15A2.28,2.28,0,0,1,164.61,118Zm1.26-11.53c-0.32,0-.32,0-0.09.2l0,0c0.18,0.09.17,0.15,0,.15a9.83,9.83,0,0,1-1.55-.26c-1.66-.36-2.59-1.6-1.2-1.63h0.1a0.27,0.27,0,0,1,.2.33q0,0.27.27,0.27h0.2a0.3,0.3,0,0,1,.33.15,0.11,0.11,0,0,0,.09.11h0.08a0.2,0.2,0,0,1,.11,0,0.21,0.21,0,0,1,.18.09,0.24,0.24,0,0,0,.23.09,0.93,0.93,0,0,0,.68-0.35,0.2,0.2,0,0,1,.12-0.11s0,0,0,.15a0.45,0.45,0,0,1-.3.35,0.23,0.23,0,0,0-.15.3,0.15,0.15,0,0,0,.15.08,0.3,0.3,0,0,0,.2-0.08,0.38,0.38,0,0,1,.26-0.11,0.45,0.45,0,0,1,.24.08C166.18,106.43,166.19,106.46,165.88,106.46ZM167,99.1a0.24,0.24,0,0,1,.23.18,0.18,0.18,0,0,1-.2.21v0h0c-0.17,0-.29-0.06-0.26-0.15A0.3,0.3,0,0,1,167,99.1Zm-0.33,2.24a0.3,0.3,0,0,1,.21-0.09,0.35,0.35,0,0,1,.3.5,0.45,0.45,0,0,1-.3.21v0A0.36,0.36,0,0,1,166.69,101.34Zm1.05,20.48a5.22,5.22,0,0,1-.66,0,4.27,4.27,0,0,1-.72,0v0a0.57,0.57,0,0,0,.15-0.15,0.81,0.81,0,0,0,.48.12,2.14,2.14,0,0,0,.75-0.15A0.6,0.6,0,0,0,167.74,121.82Zm-0.2-3.54c-0.15,0-.21-0.09-0.15-0.2a0.36,0.36,0,0,1,.27-0.18h0.07a0.15,0.15,0,0,1,.11.18A0.28,0.28,0,0,1,167.55,118.28Zm0.53-16.7,0,0,0,0a0.21,0.21,0,0,1-.21-0.18c0-.12,0-0.18.08-0.18a0.3,0.3,0,0,1,.18.18,0.1,0.1,0,0,1,0,.18h0Zm1.61-8.84,0.3,0c0.21,0,.3.06,0.3,0.15v0c0,0.15,0,.23-0.15.23a3,3,0,0,1-.6-0.15C169.08,92.84,169.08,92.84,169.69,92.75Zm0.87,25a0.41,0.41,0,0,1-.27.2c-0.27,0-.2-0.12.11-0.27h0l0.12,0C170.59,117.61,170.62,117.65,170.56,117.71Zm1.9-21.85a0.24,0.24,0,0,1-.21-0.09c-0.07-.09,0-0.19.18-0.19h0a0.36,0.36,0,0,1,.29.07A0.24,0.24,0,0,1,172.46,95.86ZM175,97.72a2.32,2.32,0,0,1-.9.3c-0.21,0-.21-0.06.09-0.12s0.42-.15.35-0.24,0.15-.21.45-0.24l0.42,0v0C175.63,97.37,175.5,97.47,175,97.72Zm0.51,2.38h0a0.2,0.2,0,0,1,.2.2c0,0.11,0,.15-0.09.15v0a0.3,0.3,0,0,1-.2-0.15C175.36,100.17,175.39,100.09,175.51,100.09Z"/>
      <path class="cls-2" d="M169,86.17c0,0.06.08,0.11,0.23,0.11a1.12,1.12,0,0,0,.26,0v0a0.52,0.52,0,0,0,.45-0.3h0a0.12,0.12,0,0,0-.15-0.08h-0.15a2,2,0,0,1-.48.15A0.15,0.15,0,0,0,169,86.17Z"/>
      <path class="cls-2" d="M166.12,91.24c-0.18,0-.17.15,0.08,0.57a0.42,0.42,0,0,0,.3.3,0.09,0.09,0,0,0,.08,0A0.85,0.85,0,0,0,166.12,91.24Z"/>
      <path class="cls-2" d="M171.76,84.29a3.1,3.1,0,0,0-.68-0.08h-0.27c-0.36,0-.3.06-0.06,0.24l0,0c0.21,0.15.29,0.21,0.24,0.21l-0.26-.08a1,1,0,0,0-.24-0.06c-0.06,0,0,.08.12,0.26a2.33,2.33,0,0,0,.3.3A4.55,4.55,0,0,0,171.76,84.29Z"/>
      <path class="cls-2" d="M171.45,83.91c0.39,0,.39,0,0.09-0.09-0.48-.15-0.68-0.45-0.45-0.75s0.15-.24,0-0.24a0.21,0.21,0,0,0-.23.18,0.12,0.12,0,0,1-.15.08h-0.15a0.57,0.57,0,0,0-.18-0.06l0,0c-0.09,0,0,.12.21,0.45a1,1,0,0,0,.8.48h0Z"/>
      <path class="cls-2" d="M163.2,122.09a0.45,0.45,0,0,0-.18,0,0.27,0.27,0,0,0-.18.06c-0.06.06,0.06,0.09,0.24,0.09v0C163.3,122.21,163.35,122.15,163.2,122.09Z"/>
      <path class="cls-2" d="M170.86,80.19h0a0.66,0.66,0,0,0-.08.53A0.36,0.36,0,0,0,171,81a0.67,0.67,0,0,0,.09-0.53,0.37,0.37,0,0,0-.08-0.35A0.18,0.18,0,0,0,170.86,80.19Z"/>
      <path class="cls-2" d="M171,82.37a0.12,0.12,0,0,0,.08,0c0.24-.14,0-0.65-0.3-0.65v0c-0.35,0-.35.21,0,0.51A0.39,0.39,0,0,0,171,82.37Z"/>
    </g>
    <g>
      <path class="cls-2" d="M63,119.82h97.55l0.09,0a1.54,1.54,0,0,1-.38-0.45v0a0.3,0.3,0,0,0-.27-0.15c-0.78,0-1.13-.06-1.28-0.45a0.63,0.63,0,0,1,.41-0.71,2.44,2.44,0,0,1-.45-0.93,1.26,1.26,0,0,1,.15-0.93,0.6,0.6,0,0,1,.48-0.23,1.5,1.5,0,0,1,1,.6,1.64,1.64,0,0,0,1.13.63l0.12,0a0.63,0.63,0,0,1-.08-0.15,0.6,0.6,0,0,1-.3-0.2,1.11,1.11,0,0,1-.26,0,0.6,0.6,0,0,1-.5-0.21,0.5,0.5,0,0,1-.11-0.38,1.15,1.15,0,0,0-.12-0.3,1.19,1.19,0,0,1-.12-1,0.61,0.61,0,0,1,.18-0.95l-0.3-.12A0.45,0.45,0,0,1,160,113l0.23-.06a1,1,0,0,1-.53-0.75,0.51,0.51,0,0,1,.6-0.5,5.78,5.78,0,0,1,1.51.3,1.36,1.36,0,0,0,.33.11,0.93,0.93,0,0,1,.45.26,1.2,1.2,0,0,0,.33,0h0a2.2,2.2,0,0,1-.3-0.26,0.83,0.83,0,0,0-.27-0.21,0.84,0.84,0,0,1-.3.08,0.51,0.51,0,0,1-.48-0.33,1.45,1.45,0,0,1-.86-1h-0.15a0.76,0.76,0,0,1-.75-0.8,1.33,1.33,0,0,1,0-.3h-2.38v-6l5.72-14.45h-5.42L155,98.5l-2.77-9.34h-5.51l5.69,14.45v6h-5.09V107h-6V89.18h-5.12v20.4h-3.91l-5-10.09L133,89.19h-5.68l-4.64,9.4H122.6V89.16h-5.12v20.42h-3.61v-2.41h-6.38v-4.86H113V98.09h-5.51V93.68h6v-4.5h-10.9v20.4H99v-2.41H92.61v-4.86h5.53V98.09H92.61V93.68h6v-4.5H87.75v20.4H81l3.84-20.42H79.92l-2.3,15.75H77.54L75,89.18H70.09l-2.47,15.73H67.47L65.19,89.16H60l3.82,20.42H63v10.24Zm85.6-8.55h2.94a4.72,4.72,0,0,1,1,.11,2.6,2.6,0,0,1,.9.38,2,2,0,0,1,.63.71,2.62,2.62,0,0,1,0,2.18v0a2.06,2.06,0,0,1-.63.75,2.59,2.59,0,0,1-.9.39,4.29,4.29,0,0,1-1,.12h-0.65v2.2h-2.29v-6.82Zm-6.25,0h2.32v4.85h2.26v2l0,0H142.3v-6.82Zm-8.52,0h2.29v3.88a1.14,1.14,0,0,0,.24.78,1,1,0,0,0,1.34,0h0a1.14,1.14,0,0,0,.23-0.75v-3.91h2.26v4.14a3.06,3.06,0,0,1-.21,1.14,2.51,2.51,0,0,1-.6.9,2.86,2.86,0,0,1-1,.6,4.07,4.07,0,0,1-1.4.21,4,4,0,0,1-1.39-.21,2.78,2.78,0,0,1-1-.6,2.41,2.41,0,0,1-.57-0.9,3.25,3.25,0,0,1-.21-1.14v-4.14Zm-4.52,0a4.72,4.72,0,0,1,1,.11,2.6,2.6,0,0,1,.9.38,2,2,0,0,1,.63.71,2.62,2.62,0,0,1,0,2.18l0,0a2.06,2.06,0,0,1-.63.75,2.59,2.59,0,0,1-.9.39,4.29,4.29,0,0,1-1,.12h-0.65v2.2h-2.29v-6.82h3Zm-6.69-10h0.11l3.81,8.33h-3.91v-8.33Zm-8.84,14.29A1.88,1.88,0,0,1,114,115a2.11,2.11,0,0,1,.41-0.39,2.56,2.56,0,0,1,.53-0.3,2.26,2.26,0,0,1-.48-0.6,1.63,1.63,0,0,1-.18-0.8,1.51,1.51,0,0,1,.23-0.84,1.81,1.81,0,0,1,.57-0.56,2.59,2.59,0,0,1,.81-0.3,3.91,3.91,0,0,1,.84-0.11,3.58,3.58,0,0,1,.84.11,2.41,2.41,0,0,1,.75.3,1.78,1.78,0,0,1,.54.6,1.63,1.63,0,0,1,.23.84,1.51,1.51,0,0,1-.11.57,1.66,1.66,0,0,1-.3.48,2.47,2.47,0,0,1-.41.38,4.67,4.67,0,0,1-.51.3l0.45,0.45,0.54-.75h2.41l-1.66,2,1.85,1.75h-2.71l0,0-0.48-.5a2.53,2.53,0,0,1-.78.45,3.27,3.27,0,0,1-1.14.18,4.15,4.15,0,0,1-1-.12,2.71,2.71,0,0,1-.86-0.36,2,2,0,0,1-.6-0.65,1.87,1.87,0,0,1-.26-1A1.73,1.73,0,0,1,113.74,115.51Zm-11.1-4.25h3a5,5,0,0,1,1,.09,2.51,2.51,0,0,1,.9.35,2,2,0,0,1,.6.69,2.17,2.17,0,0,1,.26,1.05,1.93,1.93,0,0,1-1.2,1.84l1.75,2.77h-2.65v0L105,115.65H104.9v2.44h-2.26v-6.82Zm-6.75,0h4.67v1.93H98.09v0.6h2.38v1.76H98.09v0.63h2.71v1.9H95.89v-6.82Zm-7.65,0H91a6.69,6.69,0,0,1,.9.06,2.89,2.89,0,0,1,.84.26,1.7,1.7,0,0,1,.65.54,1.6,1.6,0,0,1,.26.95,1.45,1.45,0,0,1-.27.9,1.63,1.63,0,0,1-.72.53v0a1.84,1.84,0,0,1,.45.2,1.7,1.7,0,0,1,.42.3,1.4,1.4,0,0,1,.41,1.05,1.81,1.81,0,0,1-.26.95l0,0a1.84,1.84,0,0,1-.6.6,2.56,2.56,0,0,1-.86.35,4.69,4.69,0,0,1-1,.09H88.25v-6.82Zm-10.66,0h3L81.8,115h0.06l1.08-3.67H86v6.82l0,0H83.77l0.08-3.84h0l-1.28,3.85h-1.6l-1.26-3.85h0l0.11,3.85H77.59v-6.82Zm-2.23,0v6.82H73v-6.82h2.33Zm-3-14.68h0.08l2.38,12.95H70Zm-6.62,14.66h5.65v2H69.71v4.88H67.38v-4.88H65.72v-2Z"/>
      <path class="cls-2" d="M91.41,113.8a0.39,0.39,0,0,0,.15-0.35,0.3,0.3,0,0,0-.15-0.3,0.86,0.86,0,0,0-.45-0.08H90.41v0.83H91A0.66,0.66,0,0,0,91.41,113.8Z"/>
      <path class="cls-2" d="M151.83,114a0.45,0.45,0,0,0,.21-0.42,0.53,0.53,0,0,0-.06-0.27,0.42,0.42,0,0,0-.15-0.18v0a0.72,0.72,0,0,0-.23-0.08h-0.74v1.08h0.48A0.9,0.9,0,0,0,151.83,114Z"/>
      <path class="cls-2" d="M129.56,114.08a0.45,0.45,0,0,0,.21-0.45,0.53,0.53,0,0,0,0-.26,0.42,0.42,0,0,0-.15-0.18h0a0.72,0.72,0,0,0-.23-0.08l-0.26,0H128.6v1.11h0.48A0.9,0.9,0,0,0,129.56,114.08Z"/>
      <path class="cls-2" d="M105.59,114.14a0.78,0.78,0,0,0,.26-0.08,0.6,0.6,0,0,0,.2-0.18,0.48,0.48,0,0,0,.09-0.3,0.54,0.54,0,0,0-.08-0.3,0.45,0.45,0,0,0-.18-0.15l0,0a0.68,0.68,0,0,0-.23-0.08h-0.81v1.08h0.45Z"/>
      <path class="cls-2" d="M91.71,115.84a0.33,0.33,0,0,0-.08-0.23,0.54,0.54,0,0,0-.18-0.15,0.78,0.78,0,0,0-.23-0.06H90.4v0.9h0.71a0.75,0.75,0,0,0,.45-0.12A0.41,0.41,0,0,0,91.71,115.84Z"/>
      <path class="cls-2" d="M116,116.4a0.63,0.63,0,0,0,.23.11l0.23,0a1,1,0,0,0,.33-0.06,0.57,0.57,0,0,0,.24-0.15l-0.84-.86a0.68,0.68,0,0,0-.26.2v0a0.5,0.5,0,0,0-.15.36,0.45,0.45,0,0,0,.08.24A0.53,0.53,0,0,0,116,116.4Z"/>
      <path class="cls-2" d="M116.72,113.57a1,1,0,0,0,.36-0.23,0.5,0.5,0,0,0,0-.66,0.39,0.39,0,0,0-.33-0.12h0a0.41,0.41,0,0,0-.3.15,0.45,0.45,0,0,0-.12.3,0.54,0.54,0,0,0,.09.3A1.13,1.13,0,0,0,116.72,113.57Z"/>
    </g>
  </g>
</svg>
