<svg id="Layer_1" data-name="Layer 1" xmlns="http://www.w3.org/2000/svg" viewBox="0 0 22 42"><defs><style>.cls-1 { fill: #2a8645; } .cls-2 { fill: #fff; }</style></defs><title>tree</title><path class="cls-1" d="M22 32.1h-.08a.4.4 0 0 0-.4-.25 1 1 0 0 0-.27.07l-.75.18h-.26l.06-.08a.54.54 0 0 0 .06-.26l.2-.13a.77.77 0 0 0 .6-.6.2.2 0 0 0 .06-.03 1.6 1.6 0 0 0 .44-.95 2 2 0 0 0 0-.24.42.42 0 0 0-.43-.4.56.56 0 0 0-.45.34l-.06.05v-.04a.66.66 0 0 0-.2-.43 1.46 1.46 0 0 1 .27-.53 1.35 1.35 0 0 0 .43-1.08l.1-.7a.4.4 0 0 0-.1-.3l.06-.07a.77.77 0 0 0-.1-1.1.72.72 0 0 1-.13-.5.4.4 0 0 1 .08-.25.66.66 0 0 0 .2-.8.5.5 0 0 0-.44-.26 1.86 1.86 0 0 0-1 .53.54.54 0 0 0 0-.33.43.43 0 0 0 .1-.63.88.88 0 0 0 .18-1 .5.5 0 0 0-.44-.2 1.35 1.35 0 0 0-.77.32 3.1 3.1 0 0 1-.5.37 2.27 2.27 0 0 0-.64.33 2.56 2.56 0 0 1-.4.22 1 1 0 0 0 .14-.3h.13a.75.75 0 0 0 .77-.55h.06a.68.68 0 0 0 .47-.38.48.48 0 0 0 0-.1.47.47 0 0 0 .13-.12.5.5 0 0 0 .05-.22.87.87 0 0 0 .3-.46 1.2 1.2 0 0 0 0-.45.52.52 0 0 0 .4-.5.56.56 0 0 0-.58-.55 1.4 1.4 0 0 0-1 .46 13.64 13.64 0 0 1-1.52.92 1.2 1.2 0 0 0 .26-.47.2.2 0 0 1 0-.1.64.64 0 0 0 .58-.3.47.47 0 0 0 0-.43.18.18 0 0 1 .05-.08.5.5 0 0 0 .5-.3.4.4 0 0 0 0-.33 1.18 1.18 0 0 0 .3-.4.73.73 0 0 0 .07-.9.38.38 0 0 0-.3-.14 3.4 3.4 0 0 0-1.34.8 4.77 4.77 0 0 1-1.7.62.68.68 0 0 0-.2-.3.67.67 0 0 0 0-.12 1.05 1.05 0 0 0 .36-.22.67.67 0 0 0 .2-.63v-.08a.6.6 0 0 0 .2 0 2.08 2.08 0 0 0 1.24-.46.4.4 0 0 0 .1-.45.55.55 0 0 0-.57-.28h-.13v-.1a.6.6 0 0 0 0-.4.9.9 0 0 0 .23-.67.5.5 0 0 0 .37-.42.45.45 0 0 0 0-.1l.05-.1a.73.73 0 0 0-.13-.68.9.9 0 0 0-.68-.5.65.65 0 0 0-.6.62.16.16 0 0 1 0 .05 1.63 1.63 0 0 0-.83.53l-.08.07h-.13a1.08 1.08 0 0 0-.4.07 1.2 1.2 0 0 0 .22-.23l.1-.13a1.38 1.38 0 0 0 .4-.16.56.56 0 0 0 .4-.62.43.43 0 0 0-.4-.32 1 1 0 0 1 .26-.53.75.75 0 0 0 .18-.7v-.1a.5.5 0 0 0 0-.46.4.4 0 0 0-.36-.22h-.12a.84.84 0 0 0 .1-.26.42.42 0 0 0 .17-.2.5.5 0 0 0-.15-.6.56.56 0 0 0-.4-.15 1.5 1.5 0 0 0-.83.48 3.73 3.73 0 0 1-1 .66.72.72 0 0 1 .13-.13A2.74 2.74 0 0 0 14 10a.46.46 0 0 0 .1-.5.4.4 0 0 0-.4-.22 1.6 1.6 0 0 0-.64.22l-.2.1a.52.52 0 0 0 0-.2v-.1a1 1 0 0 0 1-.63.6.6 0 0 0 0-.26.44.44 0 0 0 .05-.1.43.43 0 0 0-.08-.47.45.45 0 0 0-.34-.13.87.87 0 0 0 .3-.7c0-.53-.3-.62-.46-.62a1.28 1.28 0 0 0-.68.4 2.37 2.37 0 0 1-.52.36 1.18 1.18 0 0 0-.26.05v-.12a1.93 1.93 0 0 1 .14-.5.68.68 0 0 0 .52-.5.4.4 0 0 1 .18-.08.7.7 0 0 0 .5-.4.54.54 0 0 0 0-.47.54.54 0 0 0-.46-.26.77.77 0 0 0-.5.22 2.93 2.93 0 0 1-.34.23 2.1 2.1 0 0 0 .28-.32.7.7 0 0 0 .15-.62v-.16a.44.44 0 0 0-.5-.22h-.17a.36.36 0 0 0 0-.1.47.47 0 0 0 0-.1.47.47 0 0 0-.46-.5l-.2-.07a.56.56 0 0 0 .1-.57.45.45 0 0 0-.07-.13.64.64 0 0 0 .1-.53.88.88 0 0 0-.4-.53.42.42 0 0 0 .17-.1 1 1 0 0 0 .16-.67c0-.18 0-.7-.45-.7a.5.5 0 0 0-.4.3 1 1 0 0 0-.1.8 1 1 0 0 0 .22.34.54.54 0 0 0-.45.32.78.78 0 0 0 .26.8.4.4 0 0 0-.4.2.75.75 0 0 0 .27.8l.08.13a.4.4 0 0 0-.17.2.43.43 0 0 0 0 .16v.05a.58.58 0 0 0 .1.6.43.43 0 0 0-.32.4H9.6a.82.82 0 0 0-.25 0l-.28.1a.52.52 0 0 0-.52.53.5.5 0 0 0 .58.47h.26a.65.65 0 0 0-.27.26A1.26 1.26 0 0 0 9.3 7.6a.53.53 0 0 0-.1.17h-.14a1 1 0 0 0-.4-.5.77.77 0 0 0-.42-.16.4.4 0 0 0-.35.18.88.88 0 0 0 .1.8 2.17 2.17 0 0 0 .5.83.5.5 0 0 0 0 .27v.08a1 1 0 0 0-.5-.13.42.42 0 0 0-.35.17.6.6 0 0 0 0 .52.78.78 0 0 0 .52.57.67.67 0 0 0 .22.52 1.74 1.74 0 0 0-.1.32h-.08L8 11.2a1.08 1.08 0 0 0-.35-.33.82.82 0 0 0-.4-.16 1 1 0 0 0 0-.12 1.1 1.1 0 0 0-.76-.8.47.47 0 0 0-.44.23.9.9 0 0 0 .13.87.76.76 0 0 0 .6.46v.13a.27.27 0 0 1 0 .2.64.64 0 0 1-.4.22c-.27 0-.76.1-.73.53s.52.44.86.44h.25l-.62.26a.82.82 0 0 0-.52.47.5.5 0 0 0 .06.45.55.55 0 0 0 .4.26.5.5 0 0 0-.07.22v.17l-.3-.26a1.34 1.34 0 0 0-.73-.5.4.4 0 0 0-.4.24.43.43 0 0 0 .1.46.54.54 0 0 1 0 .1.5.5 0 0 0 0 .4.47.47 0 0 0 .16.2.78.78 0 0 0 .14.7l.1.1a.5.5 0 0 0-.33.17.74.74 0 0 0-.1.62.68.68 0 0 0 .65.65.84.84 0 0 1 .1.22.82.82 0 0 0 .52.66l-.06.05-.18.12a1.35 1.35 0 0 1-.34-.17 1.63 1.63 0 0 0-.8-.3.6.6 0 0 0-.62.6.6.6 0 0 0 0 .07.52.52 0 0 0 .4.5.44.44 0 0 0 0 .08.43.43 0 0 0 .3.22.8.8 0 0 0 .2.4 1.73 1.73 0 0 0-.84-.34.46.46 0 0 0-.4.22A1.18 1.18 0 0 0 3.66 21a1.1 1.1 0 0 0 .15.2.38.38 0 0 0 0 .14 2.1 2.1 0 0 0-1 .26l-.15.1a.42.42 0 0 0-.17 0 .5.5 0 0 0-.45.56.84.84 0 0 0 0 .16.66.66 0 0 0-.32.57.64.64 0 0 0 .1.3.48.48 0 0 0-.5.48.64.64 0 0 0 .26.5.94.94 0 0 0 0 .2.67.67 0 0 0 .1.53.4.4 0 0 0 .2.14.45.45 0 0 0 0 .13.48.48 0 0 0 .45.26l.1.1a.8.8 0 0 0-.15.25H2a.6.6 0 0 0-.52-.3.46.46 0 0 0-.35.18.83.83 0 0 0-.1.7.66.66 0 0 0 .65.7h.13a1.26 1.26 0 0 0 .75.9.44.44 0 0 0 .4.28.7.7 0 0 0 .27-.07.7.7 0 0 1 .23.18 1.9 1.9 0 0 0 .26.22 1 1 0 0 1-.27 0 .8.8 0 0 0-.43-.24 1.15 1.15 0 0 1-.28-.1 4.87 4.87 0 0 0-1.3-.25.44.44 0 0 0-.5.43.9.9 0 0 0 .44.67l-.2.05a.4.4 0 0 0-.04.75l.26.1a.53.53 0 0 0-.28.47.53.53 0 0 0 .13.37 1.06 1.06 0 0 0 .1.85 1 1 0 0 1 .1.26.44.44 0 0 0 .1.34.5.5 0 0 0 .42.18h.22a.52.52 0 0 0 .26.17.56.56 0 0 0 .06.12h-.1a1.4 1.4 0 0 1-1-.55 1.28 1.28 0 0 0-.87-.53.5.5 0 0 0-.4.2 1.12 1.12 0 0 0-.14.82 2.15 2.15 0 0 0 .38.82.56.56 0 0 0-.35.62c.13.34.43.36 1.1.4a.26.26 0 0 1 .23.13 1.34 1.34 0 0 0 .32.4.52.52 0 0 0-.28.22.44.44 0 0 0 0 .45 1.92 1.92 0 0 0 1.3.46h.2a.5.5 0 0 0 .4.17 1 1 0 0 0 .47-.16.8.8 0 0 1 .52 0 3.8 3.8 0 0 0 .56.1l-.06.07a.38.38 0 0 1-.2.1.74.74 0 0 0-.58.2h-.2a.6.6 0 0 0-.42.14.43.43 0 0 0-.1.47.58.58 0 0 0 .57.3.72.72 0 0 0 .35-.08.8.8 0 0 0 .26 0H4.78a.55.55 0 0 0 .45.22.47.47 0 0 0 .4-.2l.08.07a.4.4 0 0 0 .33.45h.17a.44.44 0 0 0 .05.13.42.42 0 0 0 .35.17.56.56 0 0 0 .3-.1h.07a.57.57 0 0 0 .54.36.8.8 0 0 0 .73-.58h.36a.85.85 0 0 0 .6-.17h.2a3.55 3.55 0 0 0 .8-.1c0 .12 0 .36.05.56a16.25 16.25 0 0 1 0 2.14l-.1 1.08a.4.4 0 0 0 .37.42h.65a1 1 0 0 0 .83-.26.8.8 0 0 0 .1-.7 25.07 25.07 0 0 1-.42-3.36v-.24a2.82 2.82 0 0 1 .5.1h.12a.57.57 0 0 0 .52-.3.63.63 0 0 0 .52.42h.06l.2.07a.9.9 0 0 0 .38.07 1.07 1.07 0 0 0 .52-.13.78.78 0 0 0 .3-.25h.1a.9.9 0 0 0 .33-.07.77.77 0 0 0 .5-.38l.5.07a.4.4 0 0 0 .45-.34.4.4 0 0 0-.34-.45h.08a.63.63 0 0 0 .26.05.52.52 0 0 0 .52-.5h.94a.77.77 0 0 0 .9-.36.43.43 0 0 0 0-.33 1.4 1.4 0 0 0 .5-.4 1.38 1.38 0 0 1 .2-.2.55.55 0 0 0 .44-.64.44.44 0 0 1 .28-.26h.17a1.36 1.36 0 0 0 .96-.64.9.9 0 0 0 .4-.9zM3.84 37.28c-.15 0-.26 0-.2-.08a.23.23 0 0 1 .14-.06.38.38 0 0 1 .15 0c.14.08.07.13-.1.13zm6.6-33.05c-.22-.15-.27-.22.04-.22h.23a2.6 2.6 0 0 1 .6.07 3.94 3.94 0 0 1-.72.7 2 2 0 0 1-.26-.27c-.13-.16-.15-.22-.1-.22l.2.05.22.07s-.02-.05-.2-.18zM10.5.5a.16.16 0 0 1 .1-.1.33.33 0 0 1 .07.3.6.6 0 0 1-.08.47.32.32 0 0 1-.16-.17.6.6 0 0 1 .06-.5zm-.1 1.33c.27 0 .47.45.27.57h-.06a.33.33 0 0 1-.22-.13c-.26-.27-.26-.44.03-.44zm-.27 1.1l.13.07h.13a.1.1 0 0 0 .12 0 .18.18 0 0 1 .2-.16c.12 0 .12.07 0 .2s0 .54.38.67c.26.06.26.08-.08.1a.8.8 0 0 1-.68-.43c-.22-.37-.3-.43-.2-.43zM9.3 5.82h-.2c-.14 0-.2 0-.2-.08A.13.13 0 0 1 9 5.6a1.73 1.73 0 0 0 .4-.13h.17a.1.1 0 0 1 .13.07.44.44 0 0 1-.4.27zm.4.26zM6.84 10.9a.08.08 0 0 1-.06 0 .36.36 0 0 1-.26-.25c-.2-.37-.22-.5-.06-.5a.75.75 0 0 1 .38.76zm1.07 3.3l-.43-.14a.7.7 0 0 0 .35-.4h.05a.48.48 0 0 0-.05.17.54.54 0 0 0 .1.36zM19.5 24.53l-.07.07v-.06zm-.67.66l-.04.05z"/><path class="cls-2" d="M10.52.5a.6.6 0 0 0-.06.46.32.32 0 0 0 .15.2.6.6 0 0 0 .07-.45.33.33 0 0 0-.06-.3.16.16 0 0 0-.08.1zM8.9 5.73c0 .05.1.1.2.1h.22a.44.44 0 0 0 .38-.28.1.1 0 0 0-.13-.07h-.13A1.73 1.73 0 0 1 9 5.6a.13.13 0 0 0-.1.13z"/><path class="cls-2" d="M15.06 37c.32-.13.3-.13 0-.13a.38.38 0 0 1-.35-.18.4.4 0 0 1 .4-.12h.4l.76.08-.62-.2c-.6-.18-.8-.45-.36-.45h.22a1.4 1.4 0 0 0 .5 0 .84.84 0 0 1 .32-.05.56.56 0 0 1 .18 0 .3.3 0 0 0 .13 0q.13 0 .13-.22c0-.22.13-.3.77-.3h.57c.52 0 .62 0 .46-.13s-.17-.53 0-.53a.22.22 0 0 1 .1 0h.06a.75.75 0 0 0 .43-.3.9.9 0 0 1 .4-.33.25.25 0 0 0 .1-.26.77.77 0 0 1 .68-.66h.13a1.16 1.16 0 0 0 .65-.5v.18c.27-.4.37-.53.27-.53l-.2.05-.78.17-.7.15h.03a.5.5 0 0 1-.4-.18.32.32 0 0 0-.25-.13 1.32 1.32 0 0 0-.45.13 1.52 1.52 0 0 1-.58.13.7.7 0 0 1-.26-.05c-.28-.1-.26-.17.04-.17h.3a1 1 0 0 0 .63-.32.5.5 0 0 1 .34-.22.26.26 0 0 1 .18.08.48.48 0 0 0 .3.1c.22 0 .4-.12.32-.27a.7.7 0 0 1 .44-.42.65.65 0 0 0 .4-.26c-.1 0 0-.17.2-.36a1.28 1.28 0 0 0 .32-.7c0-.16 0-.24-.05-.24a.46.46 0 0 0-.12.17 1.32 1.32 0 0 1-1.08.5 1.85 1.85 0 0 1-.54-.08.87.87 0 0 1-.58-.4c0-.14.05-.2.15-.2a.42.42 0 0 1 .26.12.53.53 0 0 0 .3.08.83.83 0 0 0 .73-.24.36.36 0 0 0-.15-.2 1.16 1.16 0 0 1 .45-1.1 2.15 2.15 0 0 0 .22-.8L21 27l-.67.66a4.75 4.75 0 0 1-1.25.9 1.65 1.65 0 0 1-.52.17c-.1 0-.13 0-.18-.17s0-.2.05-.2h.23a.23.23 0 0 0 .1-.43c-.1-.07-.1-.1 0-.1h.26l.2.17c.15 0 .2-.08.2-.26s.05-.45.22-.45a.74.74 0 0 1 .3.1 1.1 1.1 0 0 0 .26.1l-.1-.14c-.23-.25-.26-.46-.1-.46h.26a.1.1 0 0 0 .1-.1.1.1 0 0 1 .1-.1h.16a.5.5 0 0 0 .38-.22.42.42 0 0 0 0-.63 1.05 1.05 0 0 1 0-1.32.37.37 0 0 0 .15-.35.13.13 0 0 0-.15-.07 3.8 3.8 0 0 0-1.64 1.22 2.6 2.6 0 0 1-1 .83q-.15 0-.15-.26c0-.13 0-.2.1-.2h.11a.2.2 0 0 0 .16-.16.27.27 0 0 0 0-.2.44.44 0 0 0-.1-.1.24.24 0 0 0 0-.04.35.35 0 0 1-.33-.2.13.13 0 0 1 .13-.1h.23c.3 0 .85-.48.6-.64s-.2-.33-.07-.33a.5.5 0 0 1 .26.08.8.8 0 0 0 .25.12c.05 0 0-.05 0-.16a.27.27 0 0 1 .1-.33c.1-.05.07-.1-.06-.1a.26.26 0 0 1-.27-.25.17.17 0 0 1 .13-.2h.11a.26.26 0 0 0 .22-.18c.1-.26.05-.4-.1-.4a1 1 0 0 0-.57.26 2.48 2.48 0 0 1-.65.4 2.26 2.26 0 0 0-.52.3 2.48 2.48 0 0 1-1 .44c-.06 0-.1 0-.06-.1s0-.16-.2-.16-.27 0 .05-.26a.93.93 0 0 0 .36-.5.53.53 0 0 1 .45-.25.4.4 0 0 0 .45-.26.4.4 0 0 1 .4-.3c.18 0 .3-.14.25-.2s0-.14.1-.14a.1.1 0 0 0 .1 0 .1.1 0 0 0 0-.13c-.05-.1 0-.17.05-.17.27 0 .4-.7.17-.83s-.13-.16.13-.16a.35.35 0 0 0 .36-.16.18.18 0 0 0-.22-.17 1 1 0 0 0-.67.37 13.6 13.6 0 0 1-2.67 1.4.46.46 0 0 1-.17-.2.52.52 0 0 1 .4-.54 1 1 0 0 0 .55-.66.45.45 0 0 1 .43-.4c.2 0 .3-.07.27-.16a.47.47 0 0 1 .36-.65c.22 0 .22-.05-.06-.26s-.28-.23-.2-.23h.28a.6.6 0 0 0 .42-.36.55.55 0 0 0 .07-.4 3.23 3.23 0 0 0-1 .66 4.77 4.77 0 0 1-2.2.8c-.14 0-.2 0-.14-.14s-.06-.2-.2-.26-.16-.16-.12-.22a.33.33 0 0 0-.1-.33c-.1-.15-.1-.2.1-.2a.8.8 0 0 0 .5-.2c.24-.22 0-.54-.5-.67-.24-.07-.2-.1.1-.1h.2a1.32 1.32 0 0 0 .3 0 3.88 3.88 0 0 1 .47-.08 1.9 1.9 0 0 0 1.08-.32s0-.07-.2-.07a3.08 3.08 0 0 0-.46 0h-.46c-.18 0-.3 0-.3-.1a.2.2 0 0 1 .23-.17c.3 0 .65-.44.44-.58s-.1-.18.06-.34a.48.48 0 0 0 .17-.47.3.3 0 0 1 .2-.33c.22-.1.24-.16 0-.26s-.2-.12.04-.12.26-.07.08-.33a.5.5 0 0 0-.34-.32.34.34 0 0 0-.23.32.45.45 0 0 1-.32.34 1.1 1.1 0 0 0-.62.4 1.15 1.15 0 0 1-.38.25c0-.05 0-.05-.13-.05a.84.84 0 0 0-.27.07 1.1 1.1 0 0 1-.4.08 1 1 0 0 1-.42-.1c-.5-.25-.55-.47 0-.47a.85.85 0 0 0 .66-.36 1 1 0 0 1 .3-.3.94.94 0 0 0 .3-.12c.3-.16.3-.2 0-.2s-.3-.7.1-1.16c.16-.2.2-.33.12-.33s-.12-.12-.05-.3a.25.25 0 0 0 .05-.2.73.73 0 0 0-.26.17l-.65.58a3.58 3.58 0 0 1-1.68 1.2.26.26 0 0 1-.23-.14c-.08-.08-.08-.12 0-.12h.13a.47.47 0 0 0 .17 0 .08.08 0 0 0 .07-.08.45.45 0 0 1 .32-.24.42.42 0 0 0 .32-.4.73.73 0 0 1 .82-.46h.13s0-.05-.05-.16-.1-.28.2-.57a.66.66 0 0 0 .3-.55.1.1 0 0 1 0-.14.1.1 0 0 1 .15 0c.15 0 .15-.05 0-.18a.18.18 0 0 0-.13-.05 1.1 1.1 0 0 0-.58.37 3.87 3.87 0 0 1-1.94.92.25.25 0 0 1-.2-.05 1.64 1.64 0 0 1 .9-1 2.74 2.74 0 0 0 .9-1c.07-.13.1-.17 0-.17a1.73 1.73 0 0 0-.45.18 5.5 5.5 0 0 1-1.27.43l-.45.05c-.17 0-.17-.08-.12-.3a.34.34 0 0 1 .13-.25.18.18 0 0 1 .14.07.87.87 0 0 0 .56.18c.3 0 .34-.07.26-.57s0-.54.35-.54.84-.38.53-.55c-.14-.12-.13-.12.05-.12s.18 0 .13-.1L13.47 8a1.46 1.46 0 0 0-.52.17 2.43 2.43 0 0 1-.6.26c-.22 0 0-.58.23-.58a.17.17 0 0 0 .2-.2.3.3 0 0 1 .3-.3.47.47 0 0 0 .3-.35c0-.14 0-.2-.05-.2a1.34 1.34 0 0 0-.44.3 2 2 0 0 1-.7.43 2.22 2.22 0 0 0-.67.26 1.2 1.2 0 0 1-.48.15c-.13 0-.13-.12.13-.32a1.1 1.1 0 0 0 .33-.63 1.14 1.14 0 0 1 .4-.88.3.3 0 0 0 .17-.22.74.74 0 0 1 .44-.4c.18-.05.27-.16.22-.3a.17.17 0 0 0-.13-.08.45.45 0 0 0-.27.13 6.43 6.43 0 0 1-1 .6 3.12 3.12 0 0 1-.6.27c-.07 0-.07-.07-.07-.26a.28.28 0 0 1 .34-.3c.1 0 .13-.13.1-.26s0-.18 0-.18h.05a1.08 1.08 0 0 0 .7-.8.06.06 0 0 0-.04 0 .86.86 0 0 0-.42.2 1.34 1.34 0 0 1-.6.37.22.22 0 0 0-.17.23c0 .16-.04.24-.12.24a.5.5 0 0 1-.32-.18.26.26 0 0 0-.16-.1v.14a.47.47 0 0 0 .34.4c.17.07.27.18.2.26a.17.17 0 0 1-.14.1h-.07a.3.3 0 0 0-.2.24.4.4 0 0 1-.37.4h-.1c-.36 0-.34.63.05 1.06.2.17.3.24.2.24H9.8l-.13-.07a.13.13 0 0 0-.1.16c0 .14-.13.22-.4.22H9c-.2-.03-.37-.1-.34-.25a.48.48 0 0 0-.26-.33.6.6 0 0 0-.22-.1.7.7 0 0 0 .1.42 1.58 1.58 0 0 0 .4.7.3.3 0 0 1 .1.34c-.06.13.12.28.38.4a1.22 1.22 0 0 1 .5.32.92.92 0 0 0 .25.4c.18.17.2.22 0 .22h-.27a.8.8 0 0 1-.52-.13 1.5 1.5 0 0 0-.6-.46 2 2 0 0 0-.5-.25c-.05 0 0 .08 0 .2a.4.4 0 0 0 .3.3.36.36 0 0 1 .24.37c0 .16 0 .26.13.26h.18c.08 0 0 .1-.1.36a.74.74 0 0 0-.12.55c0 .06-.12.08-.34.08h-.17a.57.57 0 0 1-.5-.13.42.42 0 0 0-.25-.26.54.54 0 0 0-.2-.1c-.06 0-.06.08 0 .3a.8.8 0 0 1-.78.86c-.58.1-.52.18.06.18H7a2.05 2.05 0 0 1 .7.08.1.1 0 0 0 .1 0 .46.46 0 0 0 .2-.12.4.4 0 0 1 .13-.1v.14s-.37.38-1.83 1c-.2.04-.3.2-.3.3a.17.17 0 0 0 .13.1.36.36 0 0 0 .2-.1.36.36 0 0 1 .18-.1c.06 0 .06 0 .06.07s.06.12.17.12a1 1 0 0 0 .3-.07.5.5 0 0 0 .4-.26c0-.2.14-.27.35-.27a.82.82 0 0 1 .56.22c.1.17.1.3 0 .3-.3 0-.17.3.17.37a.45.45 0 0 1 .32.53v.17l-.65-.1a3.3 3.3 0 0 0-1.42-.4c-.2 0-.34 0-.34.12v.4a.15.15 0 0 0 .07.16.08.08 0 0 1 .06 0 .8.8 0 0 1 .36.16 1.38 1.38 0 0 0 .64.22.24.24 0 0 1 .28.16c0 .1.1.13.23.13h.28a.68.68 0 0 1 .34.07h.06a.05.05 0 0 0 .05 0 .73.73 0 0 0 0 .13c0 .1 0 .13-.05.13L8.6 16a.22.22 0 0 0-.1 0 .13.13 0 0 0-.13.13c0 .08-.1.13-.26.13h-.24a6.13 6.13 0 0 1-.65-.08c-.07 0-.07-.08 0-.17a.53.53 0 0 0-.43-.35 6.84 6.84 0 0 1-1.25-.9A3 3 0 0 0 5 14.3v.06a.47.47 0 0 1 .13.46.1.1 0 0 0 0 .1.1.1 0 0 0 .12 0c.12 0 .14.17.08.43s0 .4.13.4a1 1 0 0 0 .45-.16.58.58 0 0 1 .1-.05c.05 0 0 .07 0 .17a.54.54 0 0 0 .06.46c.17.24 0 .4-.35.4a1.52 1.52 0 0 1-.38-.07H5.1c-.1-.03-.1.05-.1.3a.32.32 0 0 0 .26.35h.1a.67.67 0 0 1 .4.5A.57.57 0 0 0 6 18a.85.85 0 0 0 .32-.2 1.33 1.33 0 0 1 .26-.22.5.5 0 0 1-.1.26.6.6 0 0 0-.15.5.8.8 0 0 0 .18-.2.54.54 0 0 1 .18-.14v.2a.28.28 0 0 0 .18.3c.14-.06.14.02.14.13a.26.26 0 0 1-.22.1h-.25a1 1 0 0 0-.5.17.67.67 0 0 1-.35.17 1.14 1.14 0 0 1-.52-.26 1.3 1.3 0 0 0-.62-.23h-.07a.2.2 0 0 0-.15.26.25.25 0 0 0 .26.13c.13 0 .2.1.13.18s0 .1 0 .1a.63.63 0 0 0 .2 0h.18a.13.13 0 0 1 .15.1.26.26 0 0 1-.18.22c-.12 0-.08.17.1.33s.25.3.08.52-.14.26 0 .26a.67.67 0 0 0 .44-.2.26.26 0 0 1 .13-.1c.08 0 .05.2-.1.43a.2.2 0 0 1-.18.14 2.27 2.27 0 0 1-.77-.4 2.32 2.32 0 0 0-.75-.46.1.1 0 0 0-.1 0 .77.77 0 0 0 .4 1c.25 0 .25 0 0 .16s-.2.17 0 .2h.36c.06 0 .05.08 0 .18a.5.5 0 0 1-.52.17H4a1.87 1.87 0 0 0-1 .2.83.83 0 0 1-.4.17.1.1 0 0 1-.07 0 .06.06 0 0 0-.05 0 .15.15 0 0 0-.08.17.4.4 0 0 0 .2.34c.1.05.07.1-.16.1a.3.3 0 0 0-.36.27.17.17 0 0 0 0 .07.17.17 0 0 0 .2.12h.23l.27-.05q.1 0 0 0c-.13.07-.05.23.3.6s.65.92.4.92a5.82 5.82 0 0 1-.78-.5 2.4 2.4 0 0 0-.95-.5.1.1 0 0 0-.08.1.83.83 0 0 0 .33.28.25.25 0 0 1 .15.16H2a.27.27 0 0 0-.13.26.24.24 0 0 0 0 .22.26.26 0 0 0 .13-.12.35.35 0 0 1 .22-.1c.15 0 .18.17 0 .35s-.12.2.08.2a.2.2 0 0 1 .26.18.22.22 0 0 0 .23.16.22.22 0 0 1 .25.2.2.2 0 0 1-.23.12.4.4 0 0 0-.34.26.47.47 0 0 1-.45.24.4.4 0 0 1-.36-.16.3.3 0 0 0-.2-.16c-.08 0-.13.18-.08.42s.12.37.25.37h.23a.28.28 0 0 1 .28.25.76.76 0 0 0 .52.66.26.26 0 0 0 .18-.08.32.32 0 0 1 .13-.1v.2s-.1.25 0 .25h.22a.86.86 0 0 1 .52.32 1.4 1.4 0 0 0 .75.4.3.3 0 0 1 .33.15 1.35 1.35 0 0 1-1.1.25 1.15 1.15 0 0 1-.57-.1.4.4 0 0 0-.16-.1l-.4-.15a4.5 4.5 0 0 0-1.16-.24H1.3a1.8 1.8 0 0 0 .46.5l.45.4-.47.1-.46.14.52.2c.5.23.5.56 0 .56a.28.28 0 0 0-.33.17.16.16 0 0 0 .18.13 1.1 1.1 0 0 0 .5-.18.64.64 0 0 1 .3-.08.25.25 0 0 1 .17.05c.1.12 0 .2-.43.25-.68.13-.8.32-.55.8a1 1 0 0 1 .18.52s0 .08.13.08h.27c.1 0 .18 0 .18.08a.13.13 0 0 0 .13.1h.1a.13.13 0 0 1 .1.18.16.16 0 0 0 .13.18c.27 0 .18.3-.17.5a.72.72 0 0 1-.35.08 1.8 1.8 0 0 1-1.25-.7 1 1 0 0 0-.58-.4c-.15 0-.22.2-.13.53a1.44 1.44 0 0 0 .34.7c.23.2.2.25-.1.46s-.34.3.52.33a.65.65 0 0 1 .54.4.64.64 0 0 0 .4.35.28.28 0 0 1 .22.18.17.17 0 0 0 .2.1h.12c.26-.06.26-.17.13-.32s-.12-.2.05-.2h.07c.25 0 .3.1.12.5s-.18.44-.4.44H2.04a.42.42 0 0 0-.3.08 1.26 1.26 0 0 0 1 .3.47.47 0 0 0 .22 0h.06a.16.16 0 0 1 .13.13.13.13 0 0 0 .13.13.67.67 0 0 0 .27-.13 1.07 1.07 0 0 1 .52-.1 1.07 1.07 0 0 1 .27 0 5.9 5.9 0 0 0 1.2.14c.83 0 .9.2.13.35a1.5 1.5 0 0 0-.65.34.74.74 0 0 1-.5.23.27.27 0 0 0-.3.16c0 .08.1.12.23.12h.36c.13 0 .2 0 .2.08a.13.13 0 0 0 .16.1.33.33 0 0 0 .15-.5v-.4l.26.4a.6.6 0 0 0 .44.3H6.2c.17 0 .13.2-.1.32-.05.05-.05.05 0 .05h.38c.13 0 .14.07.1.2s0 .16 0 .16a.23.23 0 0 0 .13-.07.8.8 0 0 1 .4-.13.18.18 0 0 1 .16.2.2.2 0 0 0 .2.2.42.42 0 0 0 .35-.32.43.43 0 0 1 .5-.25h.2c.2 0 .34 0 .34-.08a.57.57 0 0 1 .45-.1 3 3 0 0 0 .77-.12h.18c.15 0 .2.2.28 1a16.72 16.72 0 0 1 0 2.2l-.1 1.1h.65c.58 0 .6 0 .52-.45a24.62 24.62 0 0 1-.4-3.43c0-.47 0-.66.3-.66a3.3 3.3 0 0 1 .66.14q.23 0 .27-.4c0-.3.1-.43.17-.43a.73.73 0 0 1 .3.47 1 1 0 0 0 .33.46 1.07 1.07 0 0 1 .35.1.53.53 0 0 0 .23 0 .7.7 0 0 0 .35-.1c.26-.13.22-.17-.23-.26s-.75-.4-.36-.4a.1.1 0 0 0 .07-.17c-.08-.1-.08-.16 0-.16a1.22 1.22 0 0 1 .57.4.84.84 0 0 0 .54.3.5.5 0 0 0 .28-.04zm4.57-11a.9.9 0 0 0 .37-.3.1.1 0 0 1 .1 0 .78.78 0 0 1 .52.6.64.64 0 0 1-.56.15H20c-.67-.04-.9-.3-.37-.45zm-1.45 4.87a7.3 7.3 0 0 1 .9-.1c.2 0 .25 0 .17.14a1.63 1.63 0 0 1-.9.27c-.15 0-.28 0-.28-.1a.2.2 0 0 1 .1-.23zM17 32.37a.26.26 0 0 1 .18.15c.06.08 0 .16-.06.16a.18.18 0 0 1-.18-.17c0-.1.06-.14.06-.14zM6.5 17.14h-.2c-.17 0-.16-.13 0-.4a.26.26 0 0 1 .24-.13.26.26 0 0 1 .26.26.45.45 0 0 1-.3.27zm-1.1 4.2c.3 0 .3.05.12.18a.76.76 0 0 1-.36.13.13.13 0 0 1-.16-.12.3.3 0 0 1 .4-.18zm-1.15 6.72a.18.18 0 0 1-.18-.16q0-.15.08-.15a.26.26 0 0 1 .17.17c.06.08.02.15-.07.15zm.28-1a.6.6 0 0 1-.32.13 2.94 2.94 0 0 1-.9-.2c-.85-.36-1-.5-.47-.62H3a1.08 1.08 0 0 1 .6.2 1.08 1.08 0 0 0 .53.16h.23a.23.23 0 0 1 .2.1.24.24 0 0 1-.02.25zm-.65 5.7c0 .06 0 .06-.13.06a.55.55 0 0 1-.4-.13c0-.05 0-.1.1-.1h.13a.56.56 0 0 1 .3.14zm1.28.8a7.56 7.56 0 0 1-1.2-.07H4a.4.4 0 0 0 .28-.24h.22a1.8 1.8 0 0 1 .9.2.75.75 0 0 0 .18.13 1.9 1.9 0 0 1-.42-.02zM6.24 23.5c-.27 0-.27 0-.08.16.15.08.14.13 0 .13a8.26 8.26 0 0 1-1.33-.23c-1.42-.32-2.22-1.4-1-1.42a.24.24 0 0 1 .16.3q0 .23.22.23h.18a.25.25 0 0 1 .28.13.1.1 0 0 0 .08.1h.16a.18.18 0 0 1 .14.08.2.2 0 0 0 .2.08.8.8 0 0 0 .57-.3.17.17 0 0 1 .1-.1v.14a.4.4 0 0 1-.26.3.2.2 0 0 0-.13.26.13.13 0 0 0 .13.07.26.26 0 0 0 .17-.07.32.32 0 0 1 .22-.1.38.38 0 0 1 .2.08c.24.12.25.15-.02.15zm1-6.45a.2.2 0 0 1 .2.16.16.16 0 0 1-.18.15c-.18.03-.26-.03-.26-.1a.26.26 0 0 1 .22-.25zM6.94 19a.26.26 0 0 1 .18-.08h.12a.3.3 0 0 1 .14.4.4.4 0 0 1-.26.18.3.3 0 0 1-.18-.5zm.9 17.92a4.4 4.4 0 0 1-.57 0 3.6 3.6 0 0 1-.62 0 .5.5 0 0 0 .13-.13.7.7 0 0 0 .4.1 1.8 1.8 0 0 0 .66-.13.54.54 0 0 0 0 .16zm-.17-3.1c-.13 0-.18-.08-.13-.17a.3.3 0 0 1 .23-.16h.07a.13.13 0 0 1 .1.15.24.24 0 0 1-.26.18zm.46-14.6a.18.18 0 0 1-.18-.16c0-.1 0-.16.06-.16a.26.26 0 0 1 .16.16.1.1 0 0 1 0 .16zM9.5 11.5h.27c.18 0 .26.04.26.12 0 .13 0 .2-.13.2a2.57 2.57 0 0 1-.52-.13c-.38-.13-.38-.13.13-.2zm.76 21.83a.35.35 0 0 1-.23.17c-.23 0-.17-.1.1-.24h.1c.05-.02.08.02.03.07zM11.9 14.2a.2.2 0 0 1-.2-.07c-.05-.08 0-.17.16-.17a.3.3 0 0 1 .25.06.2.2 0 0 1-.22.2zm2.17 1.63a2 2 0 0 1-.77.26c-.18 0-.18-.06.08-.12s.36-.13.3-.2.13-.2.4-.22h.35c.18-.03.06.06-.36.28zm.44 2.08a.17.17 0 0 1 .18.18c0 .1 0 .13-.08.13a.26.26 0 0 1-.17-.12c-.05-.08-.03-.16.07-.16zM11 3.75c.34 0 .34 0 .08-.08-.4-.13-.58-.4-.4-.66s.14-.2 0-.2a.18.18 0 0 0-.18.16.1.1 0 0 1-.13.07h-.1L10.1 3c-.08 0 0 .1.18.4a.8.8 0 0 0 .68.42zM3.94 37.16a.38.38 0 0 0-.15 0 .23.23 0 0 0-.16.05c-.05.06.05.1.2.1.16-.03.23-.08.1-.14zM10.6 2.4h.07c.2-.1 0-.56-.26-.56-.3 0-.3.18 0 .45a.33.33 0 0 0 .2.1zM11.3 4.08a2.6 2.6 0 0 0-.6-.08h-.22c-.3 0-.26.05-.05.2.18.14.25.2.2.2l-.2-.08-.22-.05c-.04 0 0 .07.1.22a2 2 0 0 0 .27.25 3.94 3.94 0 0 0 .72-.67z"/><path class="cls-2" d="M6.45 10.17c-.15 0-.14.13.06.5a.36.36 0 0 0 .27.26.08.08 0 0 0 .06 0 .75.75 0 0 0-.38-.76z"/></svg>